<?xml version="1.0" encoding="UTF-8" standalone="no"?>
<!-- Created with Inkscape (http://www.inkscape.org/) -->

<svg
   width="42.69326mm"
   height="51.782822mm"
   viewBox="0 0 42.69326 51.782822"
   version="1.1"
   id="svg1"
   xml:space="preserve"
   inkscape:version="1.3.2 (091e20ef0f, 2023-11-25, custom)"
   sodipodi:docname="IconsWild.svg"
   xmlns:inkscape="http://www.inkscape.org/namespaces/inkscape"
   xmlns:sodipodi="http://sodipodi.sourceforge.net/DTD/sodipodi-0.dtd"
   xmlns="http://www.w3.org/2000/svg"
   xmlns:svg="http://www.w3.org/2000/svg"><sodipodi:namedview
     id="namedview1"
     pagecolor="#ffffff"
     bordercolor="#000000"
     borderopacity="0.25"
     inkscape:showpageshadow="2"
     inkscape:pageopacity="0.0"
     inkscape:pagecheckerboard="0"
     inkscape:deskcolor="#d1d1d1"
     inkscape:document-units="mm"
     inkscape:zoom="0.16968249"
     inkscape:cx="4249.1125"
     inkscape:cy="813.28366"
     inkscape:window-width="1920"
     inkscape:window-height="1036"
     inkscape:window-x="0"
     inkscape:window-y="20"
     inkscape:window-maximized="1"
     inkscape:current-layer="layer1"
     showguides="true" /><defs
     id="defs1" /><g
     inkscape:label="Layer 1"
     inkscape:groupmode="layer"
     id="layer1"
     transform="translate(-974.50155,70.029608)"><path
       id="path604"
       style="fill:#f7146f;fill-opacity:1"
       d="m 975.81027,-19.446169 c -1.01423,-1.11999 -1.09703,-2.441487 -1.25083,-19.964648 -0.14452,-16.465161 -0.0572,-18.806542 0.71269,-19.101952 0.48256,-0.18518 0.88648,-0.886516 0.89759,-1.558526 0.0457,-2.76335 2.31175,-4.930517 8.69165,-8.312348 4.97104,-2.635026 7.84812,-2.135216 9.8358,1.708691 0.47657,0.92171 1.16614,1.67584 1.53231,1.67584 0.3661,0 2.03241,1.411116 3.70279,3.135827 1.67043,1.72471 3.28843,3.135826 3.59553,3.135826 0.3072,0 0.5585,1.363351 0.5585,3.029671 v 3.029666 l 3.2781,-0.22938 c 2.7325,-0.19118 3.6055,-0.007 5.2431,1.105861 3.0321,2.06064 4.1813,4.534676 4.4767,9.637003 0.3862,6.671308 -0.1859,9.353128 -2.5546,11.974965 -2.4821,2.74747 -5.594,3.835436 -8.4569,2.95677 l -1.9864,-0.60971 v 3.545107 c 0,2.779586 -0.2511,3.814547 -1.1626,4.792907 -1.1271,1.20996 -1.5395,1.24781 -13.59456,1.24781 -11.91257,0 -12.47818,-0.0502 -13.51887,-1.19938 z m 25.66963,-1.407021 c 0.6499,-0.65 0.8959,-2.032546 0.8959,-5.036327 0,-2.277206 0.1464,-4.286796 0.3254,-4.465756 0.1789,-0.17896 1.0128,0.0333 1.8529,0.47161 3.3285,1.73661 7.3636,0.67927 9.2875,-2.433688 1.0452,-1.691269 1.1541,-2.631779 0.9837,-8.502416 l -0.1915,-6.600808 -1.8277,-1.631826 c -2.3717,-2.11743 -5.2294,-2.66585 -7.6356,-1.4654 -1.0063,0.50201 -2.0345,0.91275 -2.2849,0.91275 -0.2505,0 -0.5318,-1.54202 -0.6251,-3.426701 -0.093,-1.884686 -0.4262,-3.488236 -0.7398,-3.563436 -0.3679,-0.0882 -0.6238,5.885957 -0.7212,16.837251 l -0.1511,16.974001 -11.25138,-0.15457 -11.25197,-0.15456 -0.15103,-16.961971 c -0.0949,-10.654864 -0.35987,-16.961971 -0.71268,-16.961971 -0.87206,0 -0.75249,35.500588 0.12251,36.375588 0.4859,0.485901 3.944,0.684181 11.93244,0.684181 9.46507,0 11.38971,-0.142 12.14361,-0.895951 z m 2.5625,-11.033344 c -1.6469,-1.646906 -1.6666,-1.743316 -1.6666,-8.159673 0,-5.804147 0.1268,-6.629177 1.1951,-7.775818 2.6218,-2.814386 6.4039,-2.795176 8.7935,0.0447 1.2966,1.540921 1.4142,2.148971 1.4142,7.311628 0,6.276777 -0.6075,8.230553 -2.9334,9.433314 -2.5563,1.32188 -4.9243,1.02457 -6.8028,-0.854121 z m 5.3671,-0.578646 c 1.9447,-0.7394 2.8246,-3.77891 2.5675,-8.869837 -0.2414,-4.781487 -1.3225,-6.559588 -3.9883,-6.559588 -3.0479,0 -3.9024,1.631391 -3.9024,7.449438 0,6.310597 0.4576,7.328977 3.8112,8.478633 0.058,0.0199 0.7383,-0.20452 1.512,-0.498646 z m -10.45437,-8.622037 v -15.998621 l -2.13798,0.17695 -2.13788,0.17696 -0.17667,3.11854 c -0.2057,3.631137 -0.89007,4.702197 -2.85275,4.464777 -1.38137,-0.1671 -1.84984,-0.68425 -2.7376,-3.02212 -0.31072,-0.818281 -0.52612,-0.207061 -0.76275,2.16438 -0.32927,3.299867 -1.04661,4.365707 -2.9503,4.383617 -1.64203,0.0154 -2.15451,-1.37098 -2.32551,-6.291337 -0.16384,-4.714297 -0.19808,-4.817857 -1.59281,-4.817857 h -1.42538 l -0.15156,15.821671 -0.15155,15.821671 h 9.70158 9.70116 z m -11.96382,-13.108621 c 1.82546,-1.1801 3.36074,-0.27506 4.22204,2.488857 0.6026,1.93361 1.47044,0.33511 1.47044,-2.708187 0,-1.76863 0.3043,-3.284841 0.72997,-3.638191 0.40147,-0.3332 2.13318,-0.69173 3.84826,-0.796716 2.67535,-0.16378 2.93178,-0.2733 1.80481,-0.77083 -0.72257,-0.31897 -1.62641,-1.21055 -2.00868,-1.98131 -0.41237,-0.83162 -1.28224,-1.470391 -2.13938,-1.571141 -1.06804,-0.12554 -1.58451,-0.64547 -1.98218,-1.995526 -0.95887,-3.254961 -5.04287,-3.970101 -6.69523,-1.17237 -0.25077,0.42459 -1.2129,0.77199 -2.13806,0.77199 -1.12726,0 -1.68212,0.28676 -1.68212,0.86934 0,0.47813 -0.70034,1.135596 -1.55631,1.461036 -1.82955,0.695601 -2.41407,1.473491 -2.42602,3.228591 -0.008,1.13281 0.27798,1.282836 2.44292,1.282836 1.34841,0 2.75953,0.30788 3.13583,0.68418 0.41998,0.419981 0.68418,2.474871 0.68418,5.321397 0,5.454947 0.72722,6.902838 1.14923,2.288111 0.178,-1.946451 0.62793,-3.430827 1.1403,-3.762067 z m -1.71938,-3.704851 c 0,-0.71436 0.61954,-0.850907 3.23332,-0.71269 4.64171,0.24548 4.84071,1.596371 0.2351,1.596371 -2.75257,0 -3.46842,-0.18238 -3.46842,-0.883681 z" /></g></svg>
