<?xml version="1.0" encoding="UTF-8" standalone="no"?>
<!-- Created with Inkscape (http://www.inkscape.org/) -->

<svg
   width="52.91666mm"
   height="42.780964mm"
   viewBox="0 0 52.91666 42.780964"
   version="1.1"
   id="svg1"
   inkscape:version="1.3.2 (091e20ef0f, 2023-11-25, custom)"
   sodipodi:docname="burger.svg"
   xmlns:inkscape="http://www.inkscape.org/namespaces/inkscape"
   xmlns:sodipodi="http://sodipodi.sourceforge.net/DTD/sodipodi-0.dtd"
   xmlns="http://www.w3.org/2000/svg"
   xmlns:svg="http://www.w3.org/2000/svg">
  <sodipodi:namedview
     id="namedview1"
     pagecolor="#ffffff"
     bordercolor="#000000"
     borderopacity="0.25"
     inkscape:showpageshadow="2"
     inkscape:pageopacity="0.0"
     inkscape:pagecheckerboard="0"
     inkscape:deskcolor="#d1d1d1"
     inkscape:document-units="mm"
     inkscape:zoom="0.74118967"
     inkscape:cx="86.347668"
     inkscape:cy="22.936099"
     inkscape:window-width="1920"
     inkscape:window-height="1036"
     inkscape:window-x="0"
     inkscape:window-y="20"
     inkscape:window-maximized="1"
     inkscape:current-layer="layer1" />
  <defs
     id="defs1" />
  <g
     inkscape:label="Layer 1"
     inkscape:groupmode="layer"
     id="layer1"
     transform="translate(-82.032524,-142.47037)">
    <path
       id="path477"
       style="fill:#6d6d6d;fill-opacity:1;stroke-width:1.32661"
       d="m 92.90942,185.04918 c -1.583463,-0.26574 -3.15898,-0.85842 -3.15898,-1.18835 0,-0.17807 -0.18148,-0.32377 -0.403288,-0.32377 -0.58701,0 -2.704326,-2.27618 -3.110095,-3.34345 -0.191177,-0.50282 -0.347597,-1.30814 -0.347597,-1.78959 0,-0.54055 -0.145834,-0.78523 -0.38128,-0.63971 -0.238909,0.14765 -0.355464,-0.074 -0.312151,-0.59353 0.118864,-1.42612 0.01061,-1.70667 -0.656152,-1.70667 -0.782804,0 -1.809398,-1.0612 -1.809398,-1.87039 0,-0.32263 -0.157945,-0.5866 -0.350993,-0.5866 -0.480191,0 -0.44704,-2.71747 0.03516,-2.87819 0.503261,-0.16775 0.503261,-2.85082 0,-3.01857 -0.446947,-0.14899 -0.532844,-2.52718 -0.09127,-2.52718 0.162151,0 0.502478,-0.62922 0.756284,-1.39828 0.616315,-1.86744 1.077204,-1.94082 11.233818,-1.78824 11.936062,0.17929 14.394592,0.18116 26.851332,0.0204 6.17756,-0.0797 11.58453,-0.022 12.01549,0.12828 1.49393,0.52088 1.84567,2.05036 1.75584,7.63501 -0.0886,5.50879 -0.32051,6.28373 -1.88038,6.28373 -0.77754,0 -0.83453,0.13186 -0.83453,1.93047 0,1.06178 -0.14082,1.93049 -0.31295,1.93049 -0.17211,0 -0.40899,0.38267 -0.52637,0.85038 -0.21857,0.87087 -2.12618,3.0106 -2.68399,3.0106 -0.17066,0 -0.59288,0.29727 -0.93823,0.6606 -1.19994,1.2624 -3.73579,1.44737 -19.16033,1.39759 -8.1468,-0.0263 -15.20725,-0.11409 -15.689869,-0.19506 z m 28.43082,-2.56511 c 0,-0.19305 0.5923,-0.35189 1.31624,-0.35296 2.12577,-0.003 3.7596,-0.62096 5.10961,-1.93207 1.03543,-1.00559 1.27858,-1.51151 1.34523,-2.79897 0.0447,-0.86432 -0.0402,-1.69298 -0.18879,-1.84147 -0.37434,-0.37414 -11.68001,-0.19333 -12.37925,0.198 -0.69177,0.38714 -1.872,-0.50254 -1.872,-1.41114 0,-1.30376 1.24932,-1.50033 9.5799,-1.50721 7.99908,-0.007 8.00044,-0.007 8.19854,-0.79559 0.31803,-1.26628 -0.10732,-1.81584 -1.58863,-2.05271 -2.40211,-0.38411 -2.16622,-2.81381 0.29328,-3.02077 1.12311,-0.0944 1.2423,-0.20555 1.2423,-1.15751 0,-0.93144 -0.13173,-1.06569 -1.14075,-1.16298 -0.6274,-0.0605 -1.14074,-0.25794 -1.14074,-0.43875 0,-0.19314 -2.83198,-0.32876 -6.86518,-0.32876 -4.4874,0 -6.79003,0.12152 -6.64823,0.35099 0.14245,0.23051 -2.86284,0.35101 -8.75423,0.35101 -5.74677,0 -8.971153,-0.12616 -8.971153,-0.35101 0,-0.22023 -2.222994,-0.35099 -5.966967,-0.35099 -3.743974,0 -5.966967,0.1308 -5.966967,0.35099 0,0.19305 -0.394864,0.35101 -0.877497,0.35101 -0.756032,0 -0.877457,0.15789 -0.877297,1.14073 l 1.99e-4,1.14075 8.661024,0.009 c 6.503928,0.008 8.696628,0.11661 8.803998,0.43875 0.0953,0.28593 1.00128,0.42893 2.71751,0.42893 1.41597,0 2.82436,0.0959 3.12972,0.21305 0.74906,0.28745 0.70676,1.75936 -0.059,2.05483 -0.33784,0.13041 -5.12948,0.12484 -10.648092,-0.0119 -5.518628,-0.13709 -10.612476,-0.14071 -11.319689,-0.008 -1.229658,0.23069 -1.285813,0.30345 -1.285813,1.66618 v 1.42495 l 1.491742,-0.1554 c 2.099009,-0.21868 3.071225,0.20371 3.071225,1.33434 0,0.6418 -0.224953,0.97785 -0.745698,1.11404 -0.672934,0.17598 -0.727246,0.37376 -0.556618,2.02706 0.135739,1.31517 0.434729,2.07769 1.059759,2.70272 1.048059,1.04806 3.375337,2.02945 4.812635,2.02945 0.575229,0 1.045882,0.15795 1.045882,0.351 0,0.22767 4.56298,0.351 12.986927,0.351 8.42394,0 12.98691,-0.12337 12.98691,-0.351 z m -26.983215,-5.22604 c -0.603128,-0.53848 -1.096612,-1.13391 -1.096612,-1.32319 0,-0.18928 -0.355384,-0.66604 -0.789741,-1.05947 -2.022093,-1.83156 -2.444404,-2.89621 -1.516815,-3.82381 0.77621,-0.7762 1.786965,-0.59481 2.328989,0.41796 0.270615,0.50568 1.049292,1.4936 1.730372,2.19542 1.222122,1.25932 1.260395,1.27132 2.925683,0.91803 0.928054,-0.19688 1.589048,-0.45628 1.468884,-0.57645 -0.12019,-0.12019 1.014205,-0.4917 2.520795,-0.82566 1.50659,-0.33396 2.81824,-0.71227 2.91476,-0.8407 0.0966,-0.12841 1.04422,-0.44831 2.10598,-0.71083 1.06178,-0.26251 2.00946,-0.57525 2.10599,-0.69496 0.0966,-0.11966 1.13216,-0.46735 2.30142,-0.77254 2.33805,-0.61022 3.67252,-0.37643 3.65439,0.64024 -0.0215,1.20681 -0.93993,1.85048 -3.44858,2.41701 -1.37898,0.31142 -2.50723,0.68118 -2.50723,0.8217 0,0.14052 -1.30307,0.54867 -2.89573,0.90697 -1.59265,0.3583 -2.9747,0.76224 -3.07122,0.89762 -0.0966,0.1354 -1.28114,0.52113 -2.63249,0.85721 -1.351334,0.33607 -2.535953,0.72289 -2.632477,0.85958 -0.09658,0.13671 -0.669206,0.34448 -1.272626,0.46174 -0.881914,0.17137 -1.312238,0.0211 -2.193742,-0.76587 z m 27.591515,-5.90688 c -0.53416,-0.0808 -0.88023,-0.29399 -0.76904,-0.4739 0.11117,-0.17992 -0.0696,-0.32712 -0.40194,-0.32712 -0.75261,0 -4.46401,-1.12988 -4.70229,-1.43155 -0.0966,-0.12218 -0.80729,-0.36847 -1.5795,-0.54727 -1.28549,-0.29765 -1.41295,-0.43137 -1.51019,-1.58435 -0.0848,-1.0051 0.0321,-1.29544 0.57931,-1.43853 0.82568,-0.21592 2.51038,0.0683 2.51038,0.4236 0,0.1397 0.86871,0.46241 1.93049,0.71713 1.06176,0.25471 1.93049,0.57709 1.93049,0.71639 0,0.13929 0.69939,0.42938 1.5542,0.64462 1.53264,0.38592 2.65777,0.2479 2.65777,-0.32604 0,-0.16165 0.54217,-0.88572 1.20483,-1.60905 1.10119,-1.20201 1.28236,-1.27983 2.10598,-0.90455 1.15505,0.52626 1.16432,1.59837 0.0236,2.73903 -0.48262,0.48262 -0.8775,1.0168 -0.8775,1.18706 0,0.17027 -0.41617,0.63693 -0.92483,1.03705 -0.50866,0.4001 -0.78507,0.72988 -0.61425,0.73284 0.17083,0.003 0.0736,0.15849 -0.21591,0.34562 -0.53283,0.34435 -1.14124,0.36511 -2.90168,0.099 z M 86.019719,159.50242 c -0.420587,-1.09604 0.602438,-6.50212 1.23044,-6.50212 0.139307,0 0.455185,-0.55838 0.701974,-1.24085 0.728943,-2.01588 5.584042,-6.60561 7.41229,-7.00716 0.580231,-0.12749 1.05497,-0.33865 1.05497,-0.46937 0,-0.32658 2.597773,-1.11056 3.679947,-1.11056 0.48566,0 0.88303,-0.15795 0.88303,-0.351 0,-0.22336 2.80798,-0.35099 7.72195,-0.35099 4.91397,0 7.72194,0.12762 7.72194,0.35099 0,0.19305 0.41604,0.351 0.92453,0.351 0.98885,0 3.6984,0.71014 3.98945,1.04559 0.0966,0.1113 0.83747,0.49412 1.64657,0.85082 0.80908,0.35669 1.55438,0.86567 1.65621,1.13106 0.10188,0.26537 0.38807,0.48251 0.63607,0.48251 0.50118,0 2.5546,2.04709 2.5546,2.54673 0,0.17481 0.29454,0.5332 0.6545,0.79643 0.72015,0.52657 1.62699,2.0929 1.62699,2.81017 0,0.25142 0.15995,0.51044 0.35545,0.5756 0.19549,0.0651 0.55793,1.11113 0.80539,2.32434 0.24748,1.21322 0.56138,2.09443 0.69756,1.95825 0.13617,-0.13617 0.24758,0.10586 0.24758,0.53798 0,1.03018 -0.79047,1.78841 -1.86448,1.78841 -0.8913,0 -1.27982,-0.71996 -1.28969,-2.38995 -0.003,-0.45003 -0.1609,-0.71399 -0.3558,-0.59353 -0.19305,0.11926 -0.35099,-0.10507 -0.35099,-0.49867 0,-0.87693 -1.03538,-3.5378 -1.3766,-3.5378 -0.13605,0 -0.46979,-0.56685 -0.74164,-1.25969 -0.29479,-0.75132 -0.92323,-1.48066 -1.55724,-1.80726 -0.58465,-0.30115 -1.26939,-0.83994 -1.52165,-1.19729 -0.25225,-0.35736 -0.68661,-0.64973 -0.96524,-0.64973 -0.27862,0 -0.5066,-0.13649 -0.5066,-0.30331 0,-0.43593 -2.81942,-1.45071 -4.0482,-1.45706 -0.80133,-0.004 -0.91994,-0.0837 -0.51477,-0.34562 0.34779,-0.22475 -2.42222,-0.34208 -8.16069,-0.34562 -5.56105,-0.004 -8.6872,0.12099 -8.6872,0.34562 0,0.19305 -0.27641,0.35021 -0.614241,0.34926 -0.918383,-0.003 -4.024418,1.155 -4.71367,1.75673 -2.758358,2.40812 -5.202019,5.36303 -5.202019,6.29035 0,0.1831 -0.188219,0.77755 -0.418253,1.321 -0.230046,0.54346 -0.585736,1.69886 -0.790431,2.56759 -0.318598,1.35212 -0.511314,1.5955 -1.338731,1.69075 -0.639305,0.0736 -1.03994,-0.08 -1.183306,-0.4536 z m 37.862781,-3.04726 c -0.23995,-0.23996 -0.43628,-0.95751 -0.43628,-1.59457 0,-0.99243 0.12205,-1.1583 0.85243,-1.1583 1.92935,0 2.76586,2.86828 0.9001,3.08632 -0.48399,0.0565 -1.07629,-0.0935 -1.31625,-0.33345 z m -6.75424,-0.23284 c -0.28957,-0.1312 -0.58524,-0.4755 -0.65704,-0.76508 -0.0718,-0.28957 -0.20867,-0.8029 -0.30418,-1.14074 -0.13802,-0.48821 0.045,-0.61425 0.89158,-0.61425 1.66085,0 2.17563,0.3322 2.17563,1.404 0,1.21714 -0.86792,1.67708 -2.10599,1.11607 z m -8.35374,-0.48427 c -0.48526,-0.48526 -0.57872,-1.82357 -0.10693,-1.53203 0.17282,0.10679 0.39677,-0.021 0.49767,-0.28386 0.10095,-0.26292 0.5878,-0.55534 1.08203,-0.64982 1.10602,-0.21142 1.47793,0.63169 0.86857,1.96908 -0.44884,0.9851 -1.60713,1.23078 -2.34129,0.49663 z m -16.128352,-0.70919 c -1.081077,-0.52139 -0.990364,-1.15834 0.23737,-1.66688 1.239169,-0.51328 2.482862,-0.19033 2.482862,0.64473 0,1.31137 -1.191889,1.75924 -2.720232,1.02215 z m 9.476942,0.0665 c -0.43436,-0.1746 -0.80991,-0.51996 -0.83454,-0.7675 -0.0247,-0.24753 -0.082,-0.80544 -0.12762,-1.2398 -0.065,-0.61958 0.0959,-0.78974 0.74678,-0.78974 0.45626,0 0.82957,0.14729 0.82957,0.32734 0,0.18003 0.31591,0.4276 0.702,0.55014 0.85057,0.26996 0.95617,1.75786 0.14679,2.06844 -0.30536,0.11714 -0.58177,0.20304 -0.61425,0.1908 -0.0325,-0.0119 -0.41443,-0.1651 -0.84878,-0.33968 z m 17.34514,-3.03104 c -0.76135,-0.76136 0.18889,-3.27599 1.23793,-3.27599 0.51413,0 0.65068,0.44689 0.63753,2.08633 -0.009,1.12406 -1.19118,1.87393 -1.87546,1.18966 z m -21.381618,-0.4914 c -0.396271,-0.23386 -0.614245,-0.79224 -0.614245,-1.57353 0,-1.03438 0.119394,-1.21106 0.818184,-1.21106 0.501391,0 0.990457,0.3219 1.263114,0.83136 0.861865,1.61042 -0.03184,2.80022 -1.467053,1.95323 z m 6.265318,-0.94185 c -0.46075,-1.50777 0.4883,-2.8904 1.67217,-2.4361 1.13649,0.4361 0.33725,3.05035 -0.93257,3.05035 -0.30354,0 -0.63636,-0.27641 -0.7396,-0.61425 z m 8.12559,-0.56746 c -0.33783,-0.26134 -0.61424,-0.81314 -0.61424,-1.22622 0,-0.59341 0.212,-0.75105 1.01001,-0.75105 1.09701,0 1.66316,0.48276 1.85236,1.57949 0.0917,0.5311 -0.0925,0.7228 -0.75639,0.78747 -0.48262,0.047 -1.15391,-0.12828 -1.49174,-0.38969 z" />
  </g>
</svg>
