<?xml version="1.0" encoding="UTF-8" standalone="no"?>
<!-- Created with Inkscape (http://www.inkscape.org/) -->

<svg
   width="52.916664mm"
   height="42.781189mm"
   viewBox="0 0 52.916664 42.781189"
   version="1.1"
   id="svg1"
   inkscape:version="1.3.2 (091e20ef0f, 2023-11-25, custom)"
   sodipodi:docname="burger_pink.svg"
   xmlns:inkscape="http://www.inkscape.org/namespaces/inkscape"
   xmlns:sodipodi="http://sodipodi.sourceforge.net/DTD/sodipodi-0.dtd"
   xmlns="http://www.w3.org/2000/svg"
   xmlns:svg="http://www.w3.org/2000/svg">
  <sodipodi:namedview
     id="namedview1"
     pagecolor="#ffffff"
     bordercolor="#000000"
     borderopacity="0.25"
     inkscape:showpageshadow="2"
     inkscape:pageopacity="0.0"
     inkscape:pagecheckerboard="0"
     inkscape:deskcolor="#d1d1d1"
     inkscape:document-units="mm"
     inkscape:zoom="0.74118967"
     inkscape:cx="75.55421"
     inkscape:cy="60.713204"
     inkscape:window-width="1920"
     inkscape:window-height="1036"
     inkscape:window-x="0"
     inkscape:window-y="20"
     inkscape:window-maximized="1"
     inkscape:current-layer="layer1" />
  <defs
     id="defs1" />
  <g
     inkscape:label="Layer 1"
     inkscape:groupmode="layer"
     id="layer1"
     transform="translate(-84.931197,-132.29167)">
    <path
       id="path561"
       style="fill:#f7146f;fill-opacity:1;stroke-width:1.32661"
       d="m 95.808821,174.8707 c -1.583444,-0.26574 -3.158929,-0.85843 -3.158929,-1.18835 0,-0.17807 -0.181481,-0.32378 -0.403289,-0.32378 -0.587025,0 -2.704298,-2.27618 -3.110111,-3.34346 -0.191164,-0.50282 -0.347571,-1.30814 -0.347571,-1.7896 0,-0.54055 -0.145927,-0.78523 -0.381268,-0.63971 -0.238923,0.14765 -0.355532,-0.074 -0.312152,-0.59353 0.119395,-1.42614 0.01327,-1.70669 -0.656275,-1.70669 -0.782701,0 -1.809366,-1.06119 -1.809366,-1.8704 0,-0.32263 -0.157867,-0.5866 -0.351021,-0.5866 -0.480101,0 -0.446936,-2.71749 0.03449,-2.87821 0.503316,-0.16775 0.503316,-2.85083 0,-3.01858 -0.446936,-0.14899 -0.532768,-2.5272 -0.09154,-2.5272 0.162245,0 0.502521,-0.62922 0.756302,-1.39829 0.616344,-1.86744 1.077209,-1.94082 11.233882,-1.78824 11.936197,0.17929 14.394657,0.18116 26.851427,0.0204 6.17762,-0.0797 11.58463,-0.022 12.01564,0.12829 1.4939,0.52088 1.84559,2.05037 1.75578,7.63504 -0.0889,5.50883 -0.32052,6.28377 -1.88034,6.28377 -0.77752,0 -0.83457,0.13186 -0.83457,1.93048 0,1.06178 -0.14075,1.9305 -0.31295,1.9305 -0.17206,0 -0.40899,0.38268 -0.52639,0.85039 -0.2185,0.87086 -2.12617,3.01061 -2.68401,3.01061 -0.1706,0 -0.59286,0.29727 -0.93818,0.6606 -1.19992,1.2624 -3.73587,1.44737 -19.16038,1.3976 -8.14686,-0.0263 -15.207359,-0.11409 -15.68998,-0.19507 z m 28.431019,-2.56512 c 0,-0.19306 0.59233,-0.35189 1.31626,-0.35296 2.12577,-0.003 3.75962,-0.62097 5.10958,-1.93208 1.03542,-1.0056 1.27859,-1.51152 1.34532,-2.79898 0.0451,-0.86433 -0.0398,-1.693 -0.18891,-1.84148 -0.37424,-0.37415 -11.68002,-0.19333 -12.37928,0.19799 -0.6917,0.38715 -1.87198,-0.50253 -1.87198,-1.41114 0,-1.30378 1.24927,-1.50034 9.57999,-1.50723 7.99907,-0.007 8.0004,-0.007 8.1986,-0.7956 0.31799,-1.26627 -0.10746,-1.81584 -1.58876,-2.05272 -2.40209,-0.3841 -2.16622,-2.81382 0.29332,-3.02077 1.12311,-0.0945 1.24237,-0.20556 1.24237,-1.15752 0,-0.93144 -0.13133,-1.0657 -1.14075,-1.16299 -0.62749,-0.0605 -1.14076,-0.25793 -1.14076,-0.43875 0,-0.19314 -2.83205,-0.32876 -6.86521,-0.32876 -4.4874,0 -6.79013,0.12152 -6.64832,0.35099 0.14248,0.23052 -2.86283,0.35101 -8.75431,0.35101 -5.74675,0 -8.97108,-0.12616 -8.97108,-0.35101 0,-0.22023 -2.223004,-0.35099 -5.967099,-0.35099 -3.743965,0 -5.966968,0.1308 -5.966968,0.35099 0,0.19305 -0.394801,0.35101 -0.877422,0.35101 -0.756035,0 -0.877553,0.15789 -0.87742,1.14074 l 2.64e-4,1.14076 8.661052,0.009 c 6.503983,0.008 8.696733,0.11661 8.804063,0.43875 0.0955,0.28594 1.00132,0.42894 2.71756,0.42894 1.41589,0 2.82436,0.0959 3.12974,0.21305 0.74901,0.28745 0.70669,1.75937 -0.0584,2.05484 -0.33789,0.13041 -5.12961,0.12484 -10.64818,-0.0119 -5.518705,-0.13709 -10.612498,-0.14071 -11.319713,-0.008 -1.229771,0.23068 -1.285886,0.30344 -1.285886,1.66618 v 1.42495 l 1.491777,-0.1554 c 2.098963,-0.21867 3.071238,0.20372 3.071238,1.33436 0,0.64181 -0.224994,0.97786 -0.745688,1.11405 -0.672992,0.17598 -0.72725,0.37376 -0.556647,2.02707 0.135713,1.31517 0.434729,2.07769 1.059831,2.70273 1.048023,1.04806 3.375298,2.02946 4.812549,2.02946 0.57522,0 1.0459,0.15795 1.0459,0.351 0,0.22767 4.563019,0.35101 12.986999,0.35101 8.42399,0 12.987,-0.12338 12.987,-0.35101 z m -26.98342,-5.22606 c -0.603078,-0.53849 -1.096579,-1.13392 -1.096579,-1.3232 0,-0.18929 -0.355399,-0.66604 -0.789731,-1.05948 -2.022155,-1.83158 -2.444417,-2.89623 -1.516848,-3.82383 0.7762,-0.77621 1.786945,-0.59482 2.329,0.41796 0.270629,0.50568 1.049351,1.4936 1.730433,2.19542 1.222073,1.25934 1.260414,1.27135 2.925705,0.91806 0.92797,-0.19689 1.58902,-0.45629 1.46883,-0.57646 -0.12072,-0.12019 1.01419,-0.49172 2.52083,-0.82568 1.50663,-0.33396 2.81825,-0.71227 2.91483,-0.8407 0.0968,-0.12842 1.04417,-0.44832 2.106,-0.71084 1.06168,-0.26251 2.00941,-0.57524 2.10599,-0.69496 0.0968,-0.11966 1.13213,-0.46735 2.30141,-0.77254 2.33802,-0.61022 3.67246,-0.37644 3.65441,0.64024 -0.0212,1.20682 -0.9399,1.85049 -3.44866,2.41702 -1.37901,0.31142 -2.50716,0.68119 -2.50716,0.82172 0,0.14053 -1.30313,0.54867 -2.89573,0.90697 -1.59273,0.35831 -2.97479,0.76225 -3.07124,0.89763 -0.0968,0.13539 -1.28124,0.52113 -2.63252,0.85722 -1.35142,0.33607 -2.53596,0.72288 -2.63253,0.85958 -0.0969,0.1367 -0.66915,0.34448 -1.272624,0.46174 -0.88193,0.17137 -1.312283,0.0211 -2.193816,-0.76587 z m 27.59167,-5.90693 c -0.5341,-0.0808 -0.88021,-0.29399 -0.76904,-0.4739 0.11144,-0.17992 -0.0703,-0.32712 -0.40196,-0.32712 -0.75259,0 -4.46392,-1.12989 -4.70231,-1.43156 -0.0968,-0.12218 -0.80724,-0.36846 -1.57947,-0.54726 -1.28548,-0.29766 -1.41297,-0.43138 -1.51021,-1.58436 -0.0849,-1.00511 0.0318,-1.29545 0.57933,-1.43854 0.82569,-0.21592 2.51035,0.0683 2.51035,0.4236 0,0.1397 0.8688,0.46242 1.93049,0.71714 1.06181,0.25471 1.93061,0.57709 1.93061,0.71638 0,0.1393 0.69939,0.42939 1.55413,0.64463 1.53264,0.38592 2.65787,0.2479 2.65787,-0.32604 0,-0.16165 0.54205,-0.88573 1.20483,-1.60906 1.10108,-1.20202 1.2823,-1.27984 2.10599,-0.90455 1.15495,0.52626 1.16424,1.59838 0.0239,2.73904 -0.48262,0.48262 -0.87755,1.01681 -0.87755,1.18707 0,0.17027 -0.41616,0.63693 -0.92478,1.03705 -0.50876,0.4001 -0.78509,0.72989 -0.61435,0.73284 0.17086,0.003 0.073,0.15849 -0.21584,0.34563 -0.5329,0.34434 -1.14129,0.36511 -2.9017,0.099 z M 88.919195,149.32381 c -0.420669,-1.09604 0.602414,-6.50214 1.230432,-6.50214 0.139295,0 0.45516,-0.5584 0.70191,-1.24088 0.728973,-2.01588 5.584108,-6.60564 7.41231,-7.00719 0.580261,-0.12749 1.055056,-0.33866 1.055056,-0.46937 0,-0.32658 2.597767,-1.11057 3.679887,-1.11057 0.48567,0 0.88313,-0.15795 0.88313,-0.35099 0,-0.22337 2.8079,-0.351 7.72194,-0.351 4.91404,0 7.72194,0.12762 7.72194,0.351 0,0.19304 0.41603,0.35099 0.92452,0.35099 0.98885,0 3.69846,0.71015 3.98952,1.0456 0.0968,0.1113 0.83749,0.49412 1.64659,0.85082 0.8091,0.3567 1.55439,0.86569 1.65614,1.13108 0.10215,0.26538 0.38817,0.48252 0.63611,0.48252 0.5012,0 2.55466,2.04709 2.55466,2.54673 0,0.17481 0.2945,0.53321 0.65441,0.79643 0.72022,0.52658 1.62709,2.09291 1.62709,2.81018 0,0.25143 0.15986,0.51045 0.3554,0.57562 0.19555,0.0651 0.55798,1.11113 0.80539,2.32434 0.24755,1.21323 0.56142,2.09444 0.69753,1.95826 0.13625,-0.13617 0.24768,0.10587 0.24768,0.53798 0,1.03019 -0.79053,1.78842 -1.86455,1.78842 -0.89135,0 -1.27979,-0.71996 -1.28973,-2.38995 0,-0.45004 -0.16079,-0.714 -0.3558,-0.59354 -0.19302,0.11926 -0.35089,-0.10507 -0.35089,-0.49868 0,-0.87693 -1.03542,-3.5378 -1.37663,-3.5378 -0.13611,0 -0.46988,-0.56688 -0.7417,-1.25971 -0.29478,-0.75132 -0.92319,-1.48066 -1.55718,-1.80726 -0.58464,-0.30116 -1.26944,-0.83995 -1.52176,-1.1973 -0.25219,-0.35736 -0.68652,-0.64973 -0.96524,-0.64973 -0.27859,0 -0.5065,-0.1365 -0.5065,-0.30332 0,-0.43592 -2.81945,-1.45071 -4.04829,-1.45706 -0.80127,-0.004 -0.91987,-0.0837 -0.51472,-0.34562 0.3477,-0.22476 -2.42227,-0.34209 -8.16079,-0.34563 -5.56103,-0.004 -8.68719,0.12099 -8.68719,0.34563 0,0.19305 -0.27646,0.35022 -0.61422,0.34926 -0.91841,-0.003 -4.02454,1.155 -4.713714,1.75674 -2.758424,2.40813 -5.202044,5.36305 -5.202044,6.29038 0,0.1831 -0.188246,0.77755 -0.41828,1.321 -0.230034,0.54346 -0.5857,1.69887 -0.790395,2.56761 -0.318654,1.35212 -0.511411,1.5955 -1.338818,1.69075 -0.639294,0.0736 -1.039932,-0.08 -1.183204,-0.4536 z m 37.862965,-3.04728 c -0.23999,-0.23995 -0.43633,-0.9575 -0.43633,-1.59457 0,-0.99244 0.12205,-1.1583 0.85235,-1.1583 1.92943,0 2.76599,2.86829 0.90011,3.08633 -0.48395,0.0565 -1.07628,-0.0935 -1.31613,-0.33346 z m -6.75431,-0.23283 c -0.2896,-0.1312 -0.58531,-0.47551 -0.65708,-0.76508 -0.0716,-0.28958 -0.20867,-0.80291 -0.30419,-1.14076 -0.13796,-0.4882 0.0451,-0.61424 0.89162,-0.61424 1.66078,0 2.17564,0.33219 2.17564,1.404 0,1.21714 -0.868,1.67709 -2.10599,1.11608 z m -8.35381,-0.48428 c -0.48528,-0.48526 -0.57867,-1.82357 -0.10746,-1.53204 0.17286,0.10679 0.39679,-0.0209 0.49761,-0.28385 0.10083,-0.26292 0.58783,-0.55535 1.08212,-0.64983 1.106,-0.21142 1.47798,0.63169 0.86853,1.96909 -0.44879,0.9851 -1.60705,1.23079 -2.34133,0.49663 z m -16.128419,-0.70919 c -1.081055,-0.52139 -0.990316,-1.15835 0.237332,-1.66689 1.239186,-0.51329 2.482884,-0.19033 2.482884,0.64473 0,1.31139 -1.191826,1.75925 -2.720216,1.02216 z m 9.476919,0.0665 c -0.43434,-0.1746 -0.8099,-0.51996 -0.83444,-0.7675 -0.0252,-0.24753 -0.0823,-0.80545 -0.12736,-1.23981 -0.065,-0.61959 0.0955,-0.78976 0.74675,-0.78976 0.45623,0 0.82954,0.1473 0.82954,0.32734 0,0.18004 0.31599,0.42762 0.70204,0.55016 0.85062,0.26997 0.95622,1.75787 0.14672,2.06846 -0.30525,0.11713 -0.58172,0.20303 -0.61422,0.19079 -0.0318,-0.0119 -0.41443,-0.1651 -0.84877,-0.33968 z m 17.34531,-3.03107 c -0.76134,-0.76134 0.18891,-3.27599 1.23787,-3.27599 0.51419,0 0.6507,0.4469 0.63757,2.08634 -0.0133,1.12405 -1.19117,1.87393 -1.87544,1.18965 z m -21.38179,-0.4914 c -0.39626,-0.23384 -0.61422,-0.79223 -0.61422,-1.57352 0,-1.03439 0.11939,-1.21107 0.81825,-1.21107 0.50133,0 0.99045,0.3219 1.26307,0.83136 0.8619,1.61043 -0.0318,2.80023 -1.4671,1.95323 z m 6.26545,-0.94184 c -0.46086,-1.50778 0.48819,-2.89041 1.67206,-2.43611 1.13651,0.43611 0.33736,3.05037 -0.93247,3.05037 -0.30353,0 -0.63638,-0.27642 -0.73959,-0.61426 z m 8.12563,-0.56746 c -0.33789,-0.26134 -0.61435,-0.81315 -0.61435,-1.22623 0,-0.59341 0.21199,-0.75105 1.01008,-0.75105 1.09697,0 1.66317,0.48276 1.85235,1.57949 0.0915,0.53111 -0.0929,0.72281 -0.75644,0.78748 -0.48262,0.047 -1.15388,-0.12828 -1.49164,-0.38969 z" />
  </g>
</svg>
