<?xml version="1.0" encoding="UTF-8" standalone="no"?>
<!-- Created with Inkscape (http://www.inkscape.org/) -->

<svg
   width="102.91297mm"
   height="135.41684mm"
   viewBox="0 0 102.91297 135.41684"
   version="1.1"
   id="svg1"
   xml:space="preserve"
   inkscape:version="1.3.2 (091e20ef0f, 2023-11-25, custom)"
   sodipodi:docname="IconsWild.svg"
   xmlns:inkscape="http://www.inkscape.org/namespaces/inkscape"
   xmlns:sodipodi="http://sodipodi.sourceforge.net/DTD/sodipodi-0.dtd"
   xmlns="http://www.w3.org/2000/svg"
   xmlns:svg="http://www.w3.org/2000/svg"><sodipodi:namedview
     id="namedview1"
     pagecolor="#ffffff"
     bordercolor="#000000"
     borderopacity="0.25"
     inkscape:showpageshadow="2"
     inkscape:pageopacity="0.0"
     inkscape:pagecheckerboard="0"
     inkscape:deskcolor="#d1d1d1"
     inkscape:document-units="mm"
     inkscape:zoom="0.16968249"
     inkscape:cx="4249.1125"
     inkscape:cy="813.28366"
     inkscape:window-width="1920"
     inkscape:window-height="1036"
     inkscape:window-x="0"
     inkscape:window-y="20"
     inkscape:window-maximized="1"
     inkscape:current-layer="layer1"
     showguides="true" /><defs
     id="defs1" /><g
     inkscape:label="Layer 1"
     inkscape:groupmode="layer"
     id="layer1"
     transform="translate(-1454.0347,-421.32445)"><path
       style="fill:#ffffff;fill-opacity:1"
       d="m 1484.5637,556.23855 c -1.8603,-1.5064 0.7527,-6.33428 4.3799,-8.09258 0.738,-0.35771 2.4141,-0.93501 3.7247,-1.28289 1.3107,-0.34787 3.1561,-1.02261 4.1011,-1.49941 2.3189,-1.17012 5.1936,-4.06758 6.2996,-6.34948 1.6991,-3.50589 1.6557,-2.78379 1.5761,-26.22408 l -0.072,-21.26862 -0.6383,-1.5875 c -0.4729,-1.17635 -4.5761,-6.82964 -15.8429,-21.82813 -8.3626,-11.13234 -15.398,-20.44598 -15.6343,-20.69696 -0.3944,-0.41903 -0.5485,-0.4247 -1.8841,-0.0693 -4.4103,1.17361 -9.2332,-0.14519 -12.5987,-3.44508 -7.409,-7.26456 -3.8431,-19.82716 6.3072,-22.22026 7.1782,-1.69236 14.3522,2.92228 15.9347,10.24982 l 0.1571,0.72761 h 36.6659 c 41.0293,0 37.8297,-0.15605 39.198,1.91164 0.8698,1.31441 0.9476,3.10763 0.1938,4.46527 -0.2911,0.52413 -8.6646,11.75177 -18.6078,24.95032 -9.9432,13.19855 -18.3599,24.61644 -18.7038,25.37308 -1.169,2.57178 -1.2167,3.64012 -1.1261,25.18823 0.079,18.86228 0.1214,20.48081 0.5676,21.82812 0.8284,2.50099 2.0874,4.56633 3.8711,6.35 2.0613,2.06133 4.039,3.15679 7.4036,4.10102 4.7131,1.32268 6.8186,2.72946 8.1887,5.47138 1.0243,2.04979 1.057,3.16096 0.1147,3.90215 -0.6589,0.51828 -1.0275,0.54837 -6.7175,0.54837 -5.3449,0 -6.083,-0.052 -6.5781,-0.46303 -0.828,-0.68737 -0.9831,-1.92734 -0.3407,-2.72186 0.5119,-0.63307 0.6497,-0.65533 4.8505,-0.78386 l 4.3236,-0.1323 -0.9452,-0.58784 c -0.5199,-0.32331 -2.0081,-0.87546 -3.3073,-1.227 -3.2759,-0.88642 -4.9707,-1.60373 -7.0408,-2.97988 -3.5617,-2.36783 -6.3778,-6.33705 -7.6735,-10.81569 l -0.6124,-2.11667 v -21.10045 -21.10045 l -2.712,-7e-5 -2.7119,-7e-5 v 20.64866 c 0,23.3529 0.028,22.97208 -1.9835,27.10863 -2.5959,5.3387 -6.5471,8.47724 -12.8192,10.18266 -1.6505,0.44876 -3.3706,1.07968 -3.8225,1.40205 l -0.8217,0.58612 14.2121,0.1323 c 13.0321,0.1213 14.2501,0.17041 14.6711,0.59153 0.6868,0.68699 0.6031,2.27047 -0.1523,2.88214 -0.5824,0.47158 -1.3747,0.49508 -16.6924,0.49508 -15.4048,0 -16.107,-0.0211 -16.7018,-0.50273 z m 31.2825,-69.13938 c 0.4565,-0.9043 6.5941,-9.29821 13.6391,-18.65312 7.045,-9.35491 12.7752,-17.00861 12.7337,-17.00822 -0.041,3.9e-4 -1.4446,0.34451 -3.1181,0.76471 -1.6734,0.42019 -4.314,0.91243 -5.8679,1.09386 -3.9421,0.46026 -12.5012,0.19864 -17.2831,-0.5283 -4.318,-0.65641 -13.4617,-2.56633 -14.4136,-3.01069 -1.3869,-0.64741 -1.3124,-2.74011 0.1209,-3.39313 0.5463,-0.24893 1.59,-0.1081 5.8908,0.79489 9.4298,1.97986 13.1692,2.44747 19.4792,2.43588 7.4275,-0.0136 12.2739,-1.00878 17.541,-3.60173 l 2.9537,-1.4541 2.7938,-3.73177 c 1.5365,-2.05247 2.7304,-3.8342 2.653,-3.95939 -0.2253,-0.36466 -83.1886,-0.29216 -83.1886,0.0727 0,0.16518 0.7721,1.33723 1.7157,2.60457 l 1.7157,2.30426 4.1086,0.17715 c 7.4599,0.32166 16.8324,1.8283 17.6616,2.83914 0.6206,0.7565 0.5835,1.6042 -0.1086,2.48409 -0.6695,0.85106 -0.7152,0.84961 -6.8367,-0.21609 -3.5652,-0.62065 -11.2838,-1.41457 -11.514,-1.1843 -0.09,0.0899 6.4103,8.78915 24.1822,32.36274 2.9621,3.92906 5.7544,7.88789 6.2051,8.7974 l 0.8194,1.65364 h 3.6436 3.6435 z m -46.5265,-43.49195 c 0.086,-0.0863 -0.5627,-1.12769 -1.4424,-2.31411 -1.9332,-2.60727 -2.1464,-3.11613 -1.9938,-4.75852 0.1323,-1.42432 0.7387,-2.40065 2.0418,-3.28758 0.8032,-0.54661 1.1746,-0.59531 4.5398,-0.59531 3.5086,0 3.665,-0.023 3.665,-0.53796 0,-1.73135 -2.8788,-5.09906 -5.2147,-6.10036 -1.6501,-0.70729 -4.1508,-0.92451 -5.8768,-0.51047 -1.9083,0.45779 -4.2577,2.0989 -5.4059,3.77605 -3.5303,5.15685 -1.2083,11.96508 4.8145,14.11649 0.9731,0.34759 4.58,0.50435 4.8725,0.21177 z"
       id="path14" /></g></svg>
