<?xml version="1.0" encoding="UTF-8" standalone="no"?>
<!-- Created with Inkscape (http://www.inkscape.org/) -->

<svg
   width="40.624554mm"
   height="40.358585mm"
   viewBox="0 0 40.624554 40.358585"
   version="1.1"
   id="svg1"
   xml:space="preserve"
   inkscape:version="1.3.2 (091e20ef0f, 2023-11-25, custom)"
   sodipodi:docname="IconsWild.svg"
   xmlns:inkscape="http://www.inkscape.org/namespaces/inkscape"
   xmlns:sodipodi="http://sodipodi.sourceforge.net/DTD/sodipodi-0.dtd"
   xmlns="http://www.w3.org/2000/svg"
   xmlns:svg="http://www.w3.org/2000/svg"><sodipodi:namedview
     id="namedview1"
     pagecolor="#ffffff"
     bordercolor="#000000"
     borderopacity="0.25"
     inkscape:showpageshadow="2"
     inkscape:pageopacity="0.0"
     inkscape:pagecheckerboard="0"
     inkscape:deskcolor="#d1d1d1"
     inkscape:document-units="mm"
     inkscape:zoom="0.16968249"
     inkscape:cx="4249.1125"
     inkscape:cy="813.28366"
     inkscape:window-width="1920"
     inkscape:window-height="1036"
     inkscape:window-x="0"
     inkscape:window-y="20"
     inkscape:window-maximized="1"
     inkscape:current-layer="layer1"
     showguides="true" /><defs
     id="defs1" /><g
     inkscape:label="Layer 1"
     inkscape:groupmode="layer"
     id="layer1"
     transform="translate(-404.33228,-122.67595)"><path
       id="path445"
       style="fill:#6d6d6d;fill-opacity:1"
       d="m 417.39503,162.75029 c -0.72455,-0.1222 -1.37939,-0.30915 -1.4552,-0.41543 -0.0758,-0.10629 -0.65651,-0.36031 -1.29044,-0.56451 -0.63392,-0.20419 -1.20809,-0.51587 -1.27591,-0.69263 -0.0678,-0.17675 -0.39479,-0.3895 -0.72658,-0.47277 -0.33179,-0.0833 -1.36497,-0.91793 -2.29596,-1.85478 -2.12716,-2.14057 -2.48589,-2.57155 -3.03933,-3.65157 -0.24585,-0.47976 -0.53544,-0.93182 -0.64353,-1.00459 -0.10809,-0.0728 -0.39395,-0.7276 -0.63524,-1.4552 -0.2413,-0.72761 -0.61384,-1.70094 -0.82788,-2.16296 -0.58842,-1.27015 -0.94784,-4.62606 -0.85933,-8.0235 l 0.0793,-3.04271 h 15.875 15.87501 l 0.0809,1.26326 c 0.0453,0.70661 0.19099,1.19523 0.33073,1.10887 0.14293,-0.0883 0.24982,0.36839 0.24982,1.06745 0,0.7472 -0.10278,1.15833 -0.26458,1.05834 -0.16515,-0.10207 -0.26458,0.43246 -0.26458,1.42229 0,1.70016 -0.66972,5.34278 -1.02564,5.57852 -0.1187,0.0786 -0.42904,0.82755 -0.68964,1.66429 -0.26061,0.83675 -0.56215,1.52135 -0.67009,1.52135 -0.10795,0 -0.34422,0.35719 -0.52505,0.79375 -0.18083,0.43657 -0.42538,0.79375 -0.54344,0.79375 -0.11806,0 -0.28551,0.22327 -0.37212,0.49615 -0.0866,0.27288 -0.56401,0.91475 -1.0609,1.42638 -0.49688,0.51162 -0.83092,1.00273 -0.7423,1.09135 0.0886,0.0886 -0.009,0.16112 -0.21641,0.16112 -0.20764,0 -0.7297,0.32656 -1.16014,0.72568 -1.15043,1.06674 -2.3291,1.81874 -3.48259,2.22191 -0.56158,0.19629 -1.08447,0.44172 -1.16197,0.54541 -0.20093,0.26884 -3.62904,0.74507 -4.88617,0.67878 -0.58209,-0.0307 -1.65115,-0.15579 -2.37571,-0.278 z m 5.69933,-2.30937 c 0.77631,-0.14723 1.47717,-0.36378 1.55747,-0.48124 0.0803,-0.11746 0.64883,-0.41149 1.26342,-0.6534 1.24536,-0.4902 4.53761,-3.59356 5.03829,-4.74924 0.17338,-0.40019 0.41751,-0.72761 0.54251,-0.72761 0.12501,0 0.44987,-0.65484 0.72192,-1.45521 0.27205,-0.80036 0.58051,-1.45521 0.68546,-1.45521 0.10495,0 0.34082,-0.6846 0.52416,-1.52135 0.18334,-0.83674 0.43326,-1.58992 0.55538,-1.67373 0.12212,-0.0838 0.29652,-1.54233 0.38756,-3.24115 l 0.16553,-3.08877 H 420.34038 406.1447 v 1.15071 c 0,1.88179 0.32825,5.19118 0.50412,5.08248 0.0898,-0.0555 0.38648,0.84107 0.65933,1.99234 0.27285,1.15127 0.57503,2.09322 0.6715,2.09322 0.0965,0 0.33046,0.4288 0.51997,0.95287 0.33388,0.92334 0.48672,1.15258 1.61383,2.42057 0.29104,0.32742 0.52916,0.69186 0.52916,0.80985 0,0.30193 2.33714,2.4313 2.66853,2.4313 0.15022,0 0.20896,0.1038 0.13055,0.23068 -0.0784,0.12687 0.42058,0.44337 1.10887,0.70334 0.68828,0.25996 1.31959,0.57548 1.40291,0.70114 0.42012,0.63368 4.78142,0.92587 7.14089,0.47841 z m 14.00659,-4.49482 c 0,-0.14552 -0.17299,-0.26459 -0.38443,-0.26459 -0.62984,0 -1.69198,-0.57179 -1.85598,-0.99915 -0.31179,-0.81253 0.11908,-1.3821 1.04556,-1.3821 0.48739,0 0.93079,0.13389 0.98534,0.29752 0.12076,0.36228 3.08441,0.43515 3.33869,0.0821 0.098,-0.13602 0.5353,-0.44817 0.97186,-0.69366 0.43656,-0.24549 0.80977,-0.54315 0.82934,-0.66146 0.11103,-0.671 0.45427,-1.40574 0.65673,-1.40574 0.12854,0 0.23372,-0.59531 0.23372,-1.32291 0,-0.72761 -0.11104,-1.32292 -0.24675,-1.32292 -0.13572,0 -0.32995,-0.26789 -0.43164,-0.59531 -0.23321,-0.75095 -1.64346,-2.0399 -2.27968,-2.08359 -0.26483,-0.0182 -0.60058,-0.0628 -0.7461,-0.0992 -0.14552,-0.0364 -0.56597,-0.081 -0.93434,-0.0992 -0.77119,-0.0381 -1.04608,-0.54403 -0.80894,-1.48888 0.15164,-0.6042 0.29019,-0.66086 1.61603,-0.66086 0.7976,0 1.45017,0.0951 1.45017,0.21143 0,0.11629 0.42549,0.36529 0.94554,0.55334 0.8867,0.32064 2.3293,1.621 2.23622,2.01572 -0.0231,0.098 0.14514,0.3161 0.37386,0.48475 0.71424,0.52665 1.09096,3.06132 0.7088,4.769 -0.42151,1.8835 -2.30781,3.99373 -3.82424,4.27822 -0.53314,0.10001 -0.96935,0.28766 -0.96935,0.41698 0,0.12933 -0.65484,0.23514 -1.4552,0.23514 -0.80037,0 -1.45521,-0.11906 -1.45521,-0.26458 z M 411.0678,137.27133 c -0.3098,-0.8073 -0.15469,-1.46353 0.50085,-2.11908 0.50388,-0.50387 0.66146,-0.9371 0.66146,-1.81846 0,-0.98566 -0.15338,-1.31666 -1.0357,-2.23497 -1.8199,-1.89415 -2.36574,-4.69778 -1.34827,-6.92514 0.3973,-0.86973 1.73015,-1.67797 2.33153,-1.41384 0.24712,0.10854 0.53861,0.17845 0.64776,0.15535 0.45683,-0.0967 0.15296,1.18201 -0.3565,1.50018 -0.30521,0.19061 -0.48566,0.41583 -0.40099,0.5005 0.0847,0.0847 -0.039,0.29506 -0.27489,0.46752 -0.54402,0.3978 -0.59001,2.47373 -0.062,2.80004 0.20175,0.12468 0.36681,0.3295 0.36681,0.45514 0,0.12564 0.38695,0.61539 0.8599,1.08834 0.47294,0.47294 0.85989,1.01941 0.85989,1.21437 0,0.19496 0.14883,0.40408 0.33073,0.46471 0.22396,0.0747 0.33073,0.72839 0.33073,2.02504 0,1.54851 -0.0886,1.96436 -0.46302,2.17391 -0.25466,0.14251 -0.46302,0.41032 -0.46302,0.59513 0,0.48115 -1.23612,1.48978 -1.82579,1.48978 -0.27436,0 -0.57112,-0.18833 -0.65944,-0.41852 z m 7.97533,-0.0824 c -0.64746,-0.65651 -0.58221,-1.0275 0.33073,-1.88031 1.30931,-1.22308 1.06794,-3.02149 -0.66071,-4.92298 -1.0216,-1.12374 -1.23742,-1.45872 -1.48146,-2.29934 -0.32692,-1.1261 -0.037,-2.94333 0.58366,-3.65902 0.2751,-0.31719 0.50018,-0.67481 0.50018,-0.79471 0,-0.1199 0.30253,-0.41623 0.6723,-0.65851 0.53837,-0.35276 0.8019,-0.38145 1.32291,-0.14406 0.73142,0.33325 0.88363,1.29331 0.24396,1.53878 -0.22366,0.0858 -0.58085,0.49289 -0.79375,0.90459 -0.74045,1.43188 -0.35449,3.29902 0.84432,4.08451 0.34137,0.22368 0.62068,0.5698 0.62068,0.76915 0,0.19936 0.1619,0.4246 0.35979,0.50054 0.51159,0.19631 1.01247,2.42223 0.8045,3.57518 -0.21377,1.1851 -0.56146,1.89437 -1.20583,2.45982 -0.2682,0.23535 -0.48763,0.56277 -0.48763,0.7276 0,0.46254 -1.13527,0.32437 -1.65365,-0.20124 z m 7.84786,-0.15993 c -0.0912,-0.36348 -0.0943,-0.80996 -0.007,-0.99219 0.25675,-0.53452 0.79687,-1.33789 1.17651,-1.74991 0.47576,-0.51635 0.15568,-2.15777 -0.51197,-2.6254 -0.28098,-0.19681 -0.43738,-0.47677 -0.34754,-0.62213 0.0898,-0.14536 -0.057,-0.32388 -0.32631,-0.39672 -0.49991,-0.13522 -1.41568,-1.6595 -1.41568,-2.35637 0,-0.2123 -0.11906,-0.386 -0.26458,-0.386 -0.531,0 -0.24464,-1.81683 0.52581,-3.33615 0.43472,-0.85725 0.79191,-1.45089 0.79375,-1.31919 0.002,0.13169 0.23295,0.0317 0.51356,-0.22229 0.6093,-0.55141 1.49054,-0.35672 1.68094,0.37136 0.12436,0.47556 -0.29304,1.29695 -1.05584,2.07778 -0.18786,0.19229 -0.34156,0.81723 -0.34156,1.38876 0,0.84052 0.18964,1.23679 0.99219,2.07333 1.15026,1.19897 1.65365,1.97055 1.65365,2.53469 0,0.22025 0.11906,0.40046 0.26458,0.40046 0.47491,0 0.31072,2.85049 -0.19844,3.44514 -0.25466,0.29742 -0.46482,0.62621 -0.46703,0.73063 -0.002,0.10442 -0.33504,0.51728 -0.73963,0.91746 -0.93153,0.92138 -1.70446,0.94817 -1.92569,0.0667 z" /></g></svg>
