<?xml version="1.0" encoding="UTF-8" standalone="no"?>
<!-- Created with Inkscape (http://www.inkscape.org/) -->

<svg
   width="52.916695mm"
   height="36.609215mm"
   viewBox="0 0 52.916695 36.609215"
   version="1.1"
   id="svg1"
   inkscape:version="1.3.2 (091e20ef0f, 2023-11-25, custom)"
   sodipodi:docname="cuisine_icon.svg"
   xmlns:inkscape="http://www.inkscape.org/namespaces/inkscape"
   xmlns:sodipodi="http://sodipodi.sourceforge.net/DTD/sodipodi-0.dtd"
   xmlns="http://www.w3.org/2000/svg"
   xmlns:svg="http://www.w3.org/2000/svg">
  <sodipodi:namedview
     id="namedview1"
     pagecolor="#ffffff"
     bordercolor="#000000"
     borderopacity="0.25"
     inkscape:showpageshadow="2"
     inkscape:pageopacity="0.0"
     inkscape:pagecheckerboard="0"
     inkscape:deskcolor="#d1d1d1"
     inkscape:document-units="mm"
     inkscape:zoom="0.74118967"
     inkscape:cx="-29.682011"
     inkscape:cy="41.824652"
     inkscape:window-width="1920"
     inkscape:window-height="1036"
     inkscape:window-x="0"
     inkscape:window-y="20"
     inkscape:window-maximized="1"
     inkscape:current-layer="layer1" />
  <defs
     id="defs1" />
  <g
     inkscape:label="Layer 1"
     inkscape:groupmode="layer"
     id="layer1"
     transform="translate(-112.97705,-137.31878)">
    <path
       id="path424"
       style="fill:#6d6d6d;fill-opacity:1;stroke-width:1.03764"
       d="m 117.82113,173.77786 c -0.1076,-0.10761 -0.19563,-5.11678 -0.19563,-11.13152 v -10.93589 h -0.8107 c -1.03201,0 -2.12929,-0.49879 -3.01982,-1.37271 -0.69281,-0.67986 -0.7003,-0.73515 -0.79415,-5.85774 -0.0521,-2.84426 -0.0157,-5.5931 0.081,-6.10854 0.15979,-0.85172 0.26225,-0.93714 1.12426,-0.93714 0.52165,0 0.973,0.0309 1.003,0.0686 0.03,0.0378 0.12266,2.66305 0.20591,5.834 l 0.15136,5.76536 1.02953,0.0852 1.02953,0.0852 v -5.74831 c 0,-6.13958 0.0838,-6.52971 1.30407,-6.06732 0.61367,0.23254 0.61771,0.27198 0.61771,6.02486 v 5.79077 l 1.02953,-0.0852 1.02954,-0.0852 0.13726,-5.58214 c 0.12348,-5.02134 0.18829,-5.6194 0.64509,-5.95292 0.38727,-0.28274 0.66424,-0.29949 1.1668,-0.0704 l 0.65898,0.30025 v 5.72129 c 0,3.63116 -0.10033,5.72129 -0.27454,5.72129 -0.151,0 -0.27865,0.15444 -0.28367,0.34318 -0.027,1.01215 -1.75718,2.12769 -3.30012,2.12769 h -0.80264 l -0.0717,11.05028 -0.0718,11.05028 -0.69662,0.0812 c -0.38315,0.0447 -0.78466,-0.007 -0.89227,-0.11439 z m 40.89792,-0.17276 c -0.43273,-0.31794 -0.46183,-1.65552 -0.39564,-18.18834 l 0.0714,-17.84517 0.99538,-0.0832 c 0.62795,-0.0525 1.15277,0.0742 1.42174,0.34318 0.23449,0.23449 0.52998,0.42635 0.65666,0.42635 0.4873,0 2.9089,2.59557 3.30156,3.53875 0.22695,0.54515 0.55318,1.08195 0.72495,1.19288 0.20989,0.13555 0.17727,0.20446 -0.0995,0.21011 -0.36606,0.007 -0.36606,0.0373 0,0.26841 0.34622,0.21859 0.42354,1.43137 0.48547,7.61431 0.0449,4.48122 -0.0316,7.51519 -0.19592,7.76612 -0.20373,0.31123 -0.82517,0.41181 -2.54452,0.41181 h -2.27496 l -0.13727,7.07983 c -0.1142,5.89017 -0.20647,7.1235 -0.54907,7.33976 -0.55574,0.3508 -0.90541,0.33288 -1.46032,-0.0748 z m 4.75481,-22.97989 c 0,-7.16722 -0.005,-7.19319 -1.99042,-9.40941 l -0.755,-0.84297 v 8.27695 8.27695 h 1.37271 1.37271 z m -25.53233,20.67463 c -2.02127,-0.30274 -3.84357,-0.74689 -3.84357,-0.93682 0,-0.11865 -0.43144,-0.35812 -0.95877,-0.53216 -0.52733,-0.17403 -1.05239,-0.4709 -1.1668,-0.65971 -0.11442,-0.18881 -0.39334,-0.43147 -0.61984,-0.53926 -1.05541,-0.50225 -1.6289,-0.92487 -1.47027,-1.08352 0.0956,-0.0956 -0.15227,-0.29766 -0.55072,-0.44914 -0.39843,-0.15148 -0.72457,-0.37114 -0.72475,-0.48813 -1.9e-4,-0.11699 -0.30523,-0.56722 -0.67788,-1.00052 -0.37265,-0.43331 -0.83506,-1.14369 -1.02758,-1.57862 -0.19252,-0.43493 -0.44342,-0.79078 -0.55755,-0.79078 -0.11414,0 -0.20753,-0.12489 -0.20753,-0.27754 0,-0.15264 -0.2426,-0.80124 -0.53911,-1.44134 -0.7857,-1.69614 -1.09385,-3.34286 -1.10142,-5.88612 -0.006,-2.1753 0.41964,-5.01626 0.79473,-5.29844 0.10034,-0.0755 0.3515,-0.66232 0.55808,-1.30406 0.20659,-0.64174 0.47105,-1.16681 0.5877,-1.16681 0.11666,0 0.28084,-0.2162 0.36485,-0.48044 0.084,-0.26425 0.58415,-0.97462 1.1114,-1.57861 0.52726,-0.60399 0.96102,-1.25988 0.96392,-1.45754 0.003,-0.19766 0.10452,-0.29804 0.22583,-0.22306 0.12131,0.075 0.68413,-0.28837 1.25071,-0.80742 0.56658,-0.51906 1.13799,-0.94374 1.2698,-0.94374 0.13181,0 0.40768,-0.15443 0.61305,-0.34318 0.57323,-0.52682 1.53652,-1.02953 1.97282,-1.02953 0.21596,0 0.43425,-0.12476 0.48508,-0.27726 0.11281,-0.33845 0.79273,-0.50151 3.75469,-0.90049 1.89817,-0.25568 2.74096,-0.23216 4.91135,0.13708 1.441,0.24514 2.69543,0.56167 2.78764,0.70341 0.0923,0.14173 0.64523,0.41345 1.22896,0.6038 0.58372,0.19035 1.28624,0.54801 1.56117,0.79477 0.27492,0.24677 0.82971,0.69575 1.23287,0.99774 1.4779,1.10708 2.84296,2.43126 2.71678,2.63542 -0.0713,0.11534 0.0892,0.37259 0.35678,0.57167 0.26751,0.19907 0.73287,0.85613 1.03412,1.46012 0.30126,0.60398 0.63665,1.16491 0.74531,1.24649 0.30558,0.22941 1.03786,4.00011 1.03786,5.34423 0,0.66072 0.12355,1.27765 0.27455,1.37097 0.151,0.0933 0.27454,0.29322 0.27454,0.44421 0,0.151 -0.12354,0.19819 -0.27454,0.10488 -0.16632,-0.10283 -0.27835,0.29666 -0.28419,1.01332 -0.0118,1.45067 -0.67033,4.62447 -1.00768,4.85671 -0.13569,0.0934 -0.47329,0.65636 -0.75022,1.25097 -0.59021,1.26728 -0.65293,1.35022 -2.62511,3.47026 -0.83048,0.89275 -1.66828,1.62377 -1.86177,1.6245 -0.19349,7.1e-4 -0.42047,0.18028 -0.5044,0.39901 -0.084,0.21874 -0.7517,0.59669 -1.48391,0.83989 -0.7322,0.2432 -1.37177,0.56365 -1.42126,0.7121 -0.21016,0.63046 -6.07356,1.24947 -8.45572,0.89269 z m 5.07902,-2.2933 c -0.0977,-0.15813 0.15734,-0.27463 0.60151,-0.27477 0.73003,-2e-4 3.82363,-1.04587 3.24206,-1.09584 -0.151,-0.013 0.11052,-0.19118 0.58114,-0.39602 1.39485,-0.60711 3.78065,-2.76192 4.07105,-3.67692 0.0923,-0.29107 0.462,-0.8714 0.82138,-1.28963 0.35937,-0.41822 0.7344,-1.30053 0.83339,-1.96067 0.099,-0.66014 0.2835,-1.13628 0.41,-1.0581 0.36939,0.22829 0.63491,-3.02315 0.42757,-5.2358 -0.10482,-1.11858 -0.30358,-2.0338 -0.4417,-2.0338 -0.13811,0 -0.25112,-0.2329 -0.25112,-0.51756 0,-0.87985 -1.71793,-4.14963 -2.18021,-4.14963 -0.11231,0 -0.43203,-0.42309 -0.71051,-0.94019 -0.27848,-0.51711 -0.79211,-1.07041 -1.1414,-1.22956 -0.34929,-0.15914 -0.63508,-0.40533 -0.63508,-0.54707 0,-0.14175 -0.55594,-0.47004 -1.23543,-0.72954 -0.67948,-0.25949 -1.23544,-0.56868 -1.23544,-0.68705 0,-0.39314 -3.7827,-1.08288 -5.93881,-1.08288 -1.91071,0 -5.2403,0.65131 -5.59191,1.09385 -0.0755,0.095 -0.52374,0.32894 -0.99609,0.51981 -0.47236,0.19088 -1.62299,1.11045 -2.55694,2.04348 -2.21458,2.21236 -2.32333,2.34922 -2.76611,3.48093 -0.20677,0.52849 -0.48178,1.03377 -0.61113,1.12284 -0.40386,0.27808 -1.05362,4.98568 -0.88709,6.42704 0.22262,1.92685 0.74156,3.98085 1.00574,3.98085 0.12245,0 0.22263,0.16633 0.22263,0.36963 0,0.55043 0.82534,2.10124 1.11828,2.10124 0.13994,0 0.25443,0.17487 0.25443,0.3886 0,0.21373 0.44333,0.80057 0.98518,1.30407 0.54184,0.50351 1.26638,1.19344 1.61008,1.53318 0.34371,0.33975 0.75637,0.61773 0.91701,0.61773 0.16065,0 0.46545,0.17335 0.67734,0.38524 0.44559,0.4456 2.7144,1.262 3.50714,1.262 0.29672,0 0.53948,0.12354 0.53948,0.27454 0,0.16483 1.10357,0.27454 2.76162,0.27454 1.77116,0 2.70076,-0.0985 2.59194,-0.27454 z m -6.44682,-3.22302 c -0.67679,-0.23884 -1.39599,-0.59972 -1.59822,-0.80195 -0.20222,-0.20222 -0.48723,-0.36768 -0.63333,-0.36768 -0.37419,0 -2.44055,-2.08753 -2.44055,-2.46555 0,-0.17175 -0.1077,-0.2457 -0.23936,-0.16434 -0.13164,0.0813 -0.46006,-0.43641 -0.72981,-1.15059 -0.26974,-0.7142 -0.62532,-1.38669 -0.79017,-1.49443 -0.19089,-0.12477 -0.29971,-1.47753 -0.29971,-3.72592 0,-2.93 0.0778,-3.60787 0.45801,-3.98802 0.25191,-0.25191 0.53953,-0.82919 0.63917,-1.28283 0.0996,-0.45365 0.3289,-0.91821 0.50947,-1.03236 0.18057,-0.11415 0.53826,-0.53791 0.79485,-0.9417 0.2566,-0.40379 0.71872,-0.81421 1.02693,-0.91202 0.30821,-0.0978 0.50018,-0.27527 0.4266,-0.39431 -0.0736,-0.11906 0.38792,-0.4465 1.02555,-0.72766 0.63763,-0.28114 1.22109,-0.59152 1.29659,-0.68972 0.22939,-0.29836 2.96372,-0.79751 4.36869,-0.79751 1.86318,0 4.09817,0.46595 4.58893,0.95671 0.2288,0.2288 0.5616,0.41614 0.73956,0.41633 0.61927,6.3e-4 3.75533,2.89841 3.75533,3.46998 0,0.20529 0.11478,0.37326 0.25506,0.37326 0.28384,0 1.11764,2.64293 1.11764,3.54265 0,0.3165 0.12355,0.57546 0.27454,0.57546 0.15101,0 0.27455,0.67949 0.27455,1.50998 0,0.83048 -0.0988,1.50998 -0.21962,1.50998 -0.12078,0 -0.3691,0.72377 -0.55181,1.60839 -0.18272,0.88462 -0.57807,1.89187 -0.87856,2.23834 -0.30048,0.34647 -0.54634,0.71832 -0.54634,0.82634 0,0.26959 -2.49014,2.73954 -2.76193,2.73954 -0.12034,0 -0.39358,0.17478 -0.6072,0.38839 -1.18679,1.18679 -6.77015,1.6581 -9.25486,0.78124 z m 6.29905,-1.94722 c 0.0812,-0.11553 0.67639,-0.36449 1.32249,-0.55324 0.6461,-0.18877 1.10209,-0.46072 1.01332,-0.60436 -0.0887,-0.14363 -0.0209,-0.26115 0.15087,-0.26115 0.51037,0 2.45212,-2.18294 2.64563,-2.97426 0.0985,-0.40263 0.31442,-0.82039 0.47992,-0.92838 0.40925,-0.26702 0.40599,-5.65913 -0.003,-5.92238 -0.16747,-0.10765 -0.46914,-0.6559 -0.67038,-1.21835 -0.20123,-0.56244 -0.4241,-0.96441 -0.49526,-0.89325 -0.0712,0.0712 -0.35452,-0.2408 -0.62967,-0.69325 -0.27515,-0.45245 -0.68127,-0.82263 -0.90247,-0.82263 -0.22122,0 -0.50101,-0.16323 -0.62177,-0.36273 -0.44616,-0.73714 -2.51669,-1.28452 -4.85877,-1.28452 -2.32314,0 -3.9287,0.42975 -4.77778,1.27882 -0.22792,0.22793 -0.71153,0.52737 -1.07468,0.66544 -0.36314,0.13807 -0.59241,0.36082 -0.5095,0.49498 0.0829,0.13418 -0.0332,0.39662 -0.25802,0.58322 -0.22483,0.18659 -0.40878,0.49623 -0.40878,0.68808 0,0.19185 -0.16105,0.41063 -0.3579,0.48617 -0.43438,0.16668 -1.01732,2.55438 -1.0081,4.1291 0.009,1.52599 0.48134,3.55048 0.90801,3.89127 0.18904,0.151 0.55311,0.72215 0.80902,1.26924 0.28282,0.60459 0.78975,1.12912 1.29257,1.33738 0.45499,0.18847 0.82727,0.44323 0.82727,0.56614 0,0.12289 0.4324,0.37981 0.96089,0.57092 0.52849,0.1911 0.96089,0.43873 0.96089,0.55028 0,0.48462 4.86519,0.49158 5.20579,0.007 z" />
  </g>
</svg>
