<?xml version="1.0" encoding="UTF-8" standalone="no"?>
<!-- Created with Inkscape (http://www.inkscape.org/) -->

<svg
   width="95.298187mm"
   height="65.930283mm"
   viewBox="0 0 95.298187 65.930283"
   version="1.1"
   id="svg1"
   xml:space="preserve"
   inkscape:version="1.3.2 (091e20ef0f, 2023-11-25, custom)"
   sodipodi:docname="IconsWild.svg"
   xmlns:inkscape="http://www.inkscape.org/namespaces/inkscape"
   xmlns:sodipodi="http://sodipodi.sourceforge.net/DTD/sodipodi-0.dtd"
   xmlns="http://www.w3.org/2000/svg"
   xmlns:svg="http://www.w3.org/2000/svg"><sodipodi:namedview
     id="namedview1"
     pagecolor="#ffffff"
     bordercolor="#000000"
     borderopacity="0.25"
     inkscape:showpageshadow="2"
     inkscape:pageopacity="0.0"
     inkscape:pagecheckerboard="0"
     inkscape:deskcolor="#d1d1d1"
     inkscape:document-units="mm"
     inkscape:zoom="0.16968249"
     inkscape:cx="4249.1125"
     inkscape:cy="813.28366"
     inkscape:window-width="1920"
     inkscape:window-height="1036"
     inkscape:window-x="0"
     inkscape:window-y="20"
     inkscape:window-maximized="1"
     inkscape:current-layer="layer1"
     showguides="true" /><defs
     id="defs1" /><g
     inkscape:label="Layer 1"
     inkscape:groupmode="layer"
     id="layer1"
     transform="translate(-1462.3705,-317.93874)"><path
       id="path567"
       style="fill:#f7146f;fill-opacity:1;stroke-width:1.8687"
       d="m 1471.094,383.59866 c -0.1937,-0.19378 -0.3524,-9.21491 -0.3524,-20.04695 v -19.69466 h -1.46 c -1.8584,0 -3.8346,-0.89829 -5.4385,-2.47214 -1.2475,-1.22439 -1.2612,-1.32395 -1.4301,-10.54933 -0.093,-5.12229 -0.028,-10.07273 0.1458,-11.00099 0.2877,-1.53388 0.4722,-1.68771 2.0247,-1.68771 0.9394,0 1.7523,0.0557 1.8063,0.12352 0.054,0.068 0.2209,4.79594 0.3707,10.50657 l 0.2727,10.38295 1.8541,0.15343 1.8541,0.15342 v -10.35226 c 0,-11.05688 0.1514,-11.75947 2.3486,-10.92676 1.1051,0.41879 1.1124,0.48982 1.1124,10.85029 v 10.42873 l 1.8542,-0.15342 1.8539,-0.15343 0.2472,-10.053 c 0.2224,-9.04302 0.3392,-10.12008 1.1618,-10.72072 0.6974,-0.5092 1.1963,-0.53936 2.1013,-0.12688 l 1.1869,0.54072 v 10.3036 c 0,6.53943 -0.1813,10.30359 -0.4945,10.30359 -0.2719,0 -0.5017,0.27812 -0.5109,0.61803 -0.049,1.82281 -3.1645,3.83181 -5.9432,3.83181 h -1.4455 l -0.1289,19.90066 -0.1289,19.90065 -1.2547,0.14632 c -0.6899,0.0805 -1.4131,-0.0131 -1.6069,-0.206 z m 73.6539,-0.31112 c -0.7793,-0.57259 -0.8318,-2.98145 -0.7126,-32.75573 l 0.129,-32.13772 1.7926,-0.14987 c 1.1309,-0.0946 2.0759,0.13361 2.5605,0.61803 0.4221,0.42231 0.9543,0.76783 1.1825,0.76783 0.8776,0 5.2387,4.6744 5.9458,6.37299 0.4087,0.98178 0.9962,1.94851 1.3057,2.1483 0.3778,0.2441 0.3192,0.3682 -0.1794,0.37839 -0.6593,0.0131 -0.6593,0.0671 0,0.48337 0.6234,0.39366 0.7626,2.5778 0.8742,13.71278 0.08,8.07031 -0.056,13.53425 -0.3528,13.98616 -0.3669,0.5605 -1.486,0.74163 -4.5825,0.74163 h -4.0971 l -0.2472,12.7502 c -0.2056,10.60771 -0.3717,12.82884 -0.9887,13.21832 -1.0009,0.63175 -1.6307,0.59948 -2.63,-0.13474 z m 8.5629,-41.38493 c 0,-12.90758 0,-12.95436 -3.5845,-16.9456 l -1.3597,-1.51811 v 14.90612 14.90613 h 2.4721 2.4721 z m -45.9816,37.23334 c -3.6402,-0.54522 -6.922,-1.34509 -6.922,-1.68714 0,-0.21369 -0.777,-0.64494 -1.7267,-0.95838 -0.9497,-0.31342 -1.8952,-0.84805 -2.1013,-1.18808 -0.206,-0.34003 -0.7083,-0.77704 -1.1162,-0.97116 -1.9007,-0.90451 -2.9335,-1.66561 -2.648,-1.95132 0.172,-0.17211 -0.2741,-0.53605 -0.9917,-0.80886 -0.7176,-0.27282 -1.3049,-0.6684 -1.3053,-0.8791 -10e-5,-0.21067 -0.5495,-1.0215 -1.2208,-1.80185 -0.671,-0.78035 -1.5037,-2.05968 -1.8505,-2.84296 -0.3467,-0.78327 -0.7985,-1.42414 -1.0041,-1.42414 -0.2056,0 -0.3737,-0.22492 -0.3737,-0.49982 0,-0.27489 -0.4369,-1.44297 -0.971,-2.59573 -1.415,-3.05462 -1.9698,-6.02024 -1.9835,-10.60044 -0.019,-3.91754 0.7557,-9.03389 1.4313,-9.54206 0.1812,-0.13604 0.6329,-1.19279 1.005,-2.34852 0.372,-1.15572 0.8484,-2.10132 1.0584,-2.10132 0.21,0 0.5059,-0.38936 0.657,-0.86524 0.1514,-0.47589 1.0521,-1.75522 2.0016,-2.84295 0.9495,-1.08775 1.7308,-2.26895 1.736,-2.62492 0,-0.35597 0.1882,-0.53675 0.4066,-0.40172 0.2185,0.13511 1.2321,-0.51933 2.2526,-1.45409 1.0203,-0.93478 2.0494,-1.6996 2.2867,-1.6996 0.2373,0 0.7342,-0.27811 1.104,-0.61803 1.0325,-0.94878 2.7672,-1.8541 3.553,-1.8541 0.3889,0 0.782,-0.2247 0.8736,-0.49934 0.2031,-0.60951 1.4275,-0.90318 6.7619,-1.62169 3.4184,-0.46047 4.9362,-0.41811 8.8449,0.24685 2.5951,0.44148 4.8541,1.01153 5.0203,1.26679 0.1663,0.25525 1.1619,0.74459 2.2133,1.0874 1.0511,0.34281 2.3164,0.98691 2.8114,1.43131 0.4952,0.44441 1.4944,1.253 2.2204,1.79686 2.6616,1.99376 5.1199,4.3785 4.8926,4.74618 -0.1289,0.20771 0.1607,0.67099 0.6427,1.02952 0.4817,0.35851 1.3198,1.54183 1.8623,2.62956 0.5425,1.08773 1.1465,2.09791 1.3423,2.24483 0.5503,0.41315 1.8691,7.20389 1.8691,9.62455 0,1.18989 0.2225,2.30092 0.4944,2.469 0.2719,0.16799 0.4945,0.52805 0.4945,0.79999 0,0.27193 -0.2226,0.35692 -0.4945,0.18886 -0.2995,-0.18518 -0.5013,0.53427 -0.5118,1.82492 -0.021,2.61253 -1.2072,8.3283 -1.8147,8.74655 -0.2444,0.16819 -0.8525,1.18205 -1.3511,2.25289 -1.0629,2.28228 -1.1759,2.43164 -4.7276,6.24966 -1.4957,1.60777 -3.0045,2.92427 -3.353,2.92557 -0.3485,10e-4 -0.7572,0.32467 -0.9084,0.71859 -0.1513,0.39394 -1.3536,1.0746 -2.6724,1.51258 -1.3185,0.43799 -2.4704,1.01508 -2.5595,1.28244 -0.3785,1.1354 -10.9381,2.25019 -15.2281,1.60766 z m 9.1469,-4.13005 c -0.1756,-0.28477 0.2833,-0.49459 1.0833,-0.49483 1.3146,-3.8e-4 6.886,-1.88352 5.8386,-1.97352 -0.2719,-0.0234 0.1992,-0.34429 1.0466,-0.71319 2.5121,-1.09335 6.8086,-4.974 7.3317,-6.62184 0.1663,-0.52419 0.8319,-1.56932 1.4793,-2.32251 0.6471,-0.7532 1.3226,-2.34216 1.5009,-3.53102 0.1775,-1.18887 0.5105,-2.04636 0.7383,-1.90555 0.6653,0.41113 1.1435,-5.44445 0.7699,-9.42927 -0.1887,-2.01447 -0.5466,-3.6627 -0.7953,-3.6627 -0.2487,0 -0.4522,-0.41943 -0.4522,-0.93209 0,-1.58454 -3.094,-7.47315 -3.9265,-7.47315 -0.2022,0 -0.778,-0.76194 -1.2795,-1.69321 -0.5016,-0.93126 -1.4266,-1.92771 -2.0556,-2.21433 -0.629,-0.2866 -1.1438,-0.72997 -1.1438,-0.98524 0,-0.25528 -1.0011,-0.8465 -2.2249,-1.31384 -1.2236,-0.46732 -2.2249,-1.02414 -2.2249,-1.23732 0,-0.70801 -6.8123,-1.95017 -10.6953,-1.95017 -3.441,0 -9.4375,1.17294 -10.0706,1.96992 -0.1364,0.17117 -0.9433,0.5924 -1.7939,0.93614 -0.8507,0.34377 -2.9229,1.99983 -4.6049,3.68014 -3.9882,3.98429 -4.184,4.23076 -4.9816,6.26889 -0.3722,0.95177 -0.8676,1.86173 -1.1004,2.02214 -0.7273,0.50079 -1.8975,8.97881 -1.5976,11.57458 0.4008,3.4701 1.3354,7.16919 1.8112,7.16919 0.2205,0 0.401,0.29955 0.401,0.66569 0,0.99127 1.4863,3.78415 2.0139,3.78415 0.2521,0 0.4582,0.31493 0.4582,0.69985 0,0.38491 0.7985,1.44175 1.7741,2.34852 0.9759,0.90679 2.2808,2.14928 2.8997,2.76113 0.6191,0.61187 1.3623,1.11248 1.6515,1.11248 0.2893,0 0.8381,0.3122 1.2199,0.69379 0.8024,0.80247 4.8883,2.27275 6.316,2.27275 0.5343,0 0.9716,0.22248 0.9716,0.49442 0,0.29684 1.9873,0.49442 4.9735,0.49442 3.1897,0 4.8639,-0.17734 4.6678,-0.49442 z m -11.6102,-5.80439 c -1.2188,-0.43013 -2.5141,-1.08005 -2.8783,-1.44424 -0.3641,-0.36419 -0.8774,-0.66217 -1.1405,-0.66217 -0.6739,0 -4.3952,-3.75947 -4.3952,-4.44025 0,-0.30931 -0.194,-0.44249 -0.4311,-0.29597 -0.2371,0.14651 -0.8286,-0.78593 -1.3144,-2.07212 -0.4857,-1.28621 -1.1261,-2.49731 -1.4231,-2.69134 -0.3436,-0.22471 -0.5396,-2.66091 -0.5396,-6.71008 0,-5.2767 0.1401,-6.49749 0.8248,-7.18212 0.4537,-0.45367 0.9715,-1.4933 1.1511,-2.31028 0.1794,-0.81697 0.5922,-1.65361 0.9176,-1.85918 0.3251,-0.20558 0.9693,-0.96874 1.4314,-1.69594 0.4621,-0.72718 1.2942,-1.46631 1.8494,-1.64247 0.555,-0.17622 0.9007,-0.49573 0.7683,-0.71013 -0.1327,-0.21441 0.6985,-0.8041 1.8468,-1.31044 1.1483,-0.50632 2.1991,-1.06529 2.3351,-1.24214 0.4132,-0.53731 5.3374,-1.43625 7.8676,-1.43625 3.3554,0 7.3806,0.83914 8.2643,1.72296 0.4121,0.41205 1.0116,0.74944 1.332,0.74978 1.1153,10e-4 6.763,5.2198 6.763,6.24915 0,0.36972 0.2067,0.67221 0.4594,0.67221 0.5111,0 2.0127,4.75971 2.0127,6.38003 0,0.57 0.2226,1.03637 0.4945,1.03637 0.2719,0 0.4945,1.22369 0.4945,2.71935 0,1.49563 -0.1776,2.71934 -0.3956,2.71934 -0.2176,0 -0.6647,1.30346 -0.9938,2.8966 -0.3291,1.59312 -1.0411,3.4071 -1.5822,4.03106 -0.5412,0.62396 -0.9839,1.29365 -0.9839,1.48818 0,0.4855 -4.4845,4.93368 -4.9739,4.93368 -0.2168,0 -0.709,0.31476 -1.0936,0.69947 -2.1374,2.13731 -12.1925,2.98611 -16.6673,1.40694 z m 11.3441,-3.50678 c 0.1458,-0.20806 1.2181,-0.65641 2.3817,-0.99635 1.1636,-0.33995 1.9847,-0.82972 1.825,-1.0884 -0.1607,-0.25867 -0.037,-0.4703 0.2717,-0.4703 0.919,0 4.4159,-3.93131 4.7644,-5.35642 0.1775,-0.72509 0.5662,-1.47745 0.8643,-1.67192 0.7372,-0.48089 0.7312,-10.19164 0,-10.66575 -0.3014,-0.19386 -0.8449,-1.18122 -1.2072,-2.19415 -0.3623,-1.01291 -0.7637,-1.73682 -0.8919,-1.60867 -0.129,0.12819 -0.6386,-0.43365 -1.134,-1.24848 -0.4955,-0.81482 -1.2269,-1.4815 -1.6254,-1.4815 -0.3984,0 -0.9022,-0.29397 -1.1197,-0.65324 -0.8035,-1.32752 -4.5323,-2.31332 -8.7502,-2.31332 -4.1838,0 -7.0752,0.77394 -8.6044,2.30306 -0.4105,0.41048 -1.2813,0.94975 -1.9354,1.1984 -0.654,0.24864 -1.067,0.6498 -0.9175,0.89142 0.1495,0.24164 -0.06,0.71427 -0.4648,1.05032 -0.4049,0.33605 -0.7362,0.89369 -0.7362,1.23919 0,0.34551 -0.2901,0.7395 -0.6445,0.87554 -0.7823,0.30019 -1.8321,4.60025 -1.8155,7.43619 0.019,2.74818 0.8669,6.39413 1.6353,7.00786 0.3403,0.27194 0.996,1.30054 1.4568,2.28581 0.5095,1.08882 1.4223,2.03345 2.3279,2.40851 0.8194,0.33941 1.4899,0.79822 1.4899,1.01956 0,0.22133 0.7787,0.68402 1.7304,1.0282 0.9517,0.34416 1.7306,0.7901 1.7306,0.99101 0,0.87275 8.7618,0.88529 9.3751,0.0131 z" /></g></svg>
