<?xml version="1.0" encoding="UTF-8" standalone="no"?>
<!-- Created with Inkscape (http://www.inkscape.org/) -->

<svg
   width="37.364811mm"
   height="52.217403mm"
   viewBox="0 0 37.364811 52.217403"
   version="1.1"
   id="svg1"
   inkscape:version="1.3.2 (091e20ef0f, 2023-11-25, custom)"
   sodipodi:docname="cupcake.svg"
   xmlns:inkscape="http://www.inkscape.org/namespaces/inkscape"
   xmlns:sodipodi="http://sodipodi.sourceforge.net/DTD/sodipodi-0.dtd"
   xmlns="http://www.w3.org/2000/svg"
   xmlns:svg="http://www.w3.org/2000/svg">
  <sodipodi:namedview
     id="namedview1"
     pagecolor="#ffffff"
     bordercolor="#000000"
     borderopacity="0.25"
     inkscape:showpageshadow="2"
     inkscape:pageopacity="0.0"
     inkscape:pagecheckerboard="0"
     inkscape:deskcolor="#d1d1d1"
     inkscape:document-units="mm"
     inkscape:zoom="0.74118967"
     inkscape:cx="-14.841005"
     inkscape:cy="17.53937"
     inkscape:window-width="1920"
     inkscape:window-height="1036"
     inkscape:window-x="0"
     inkscape:window-y="20"
     inkscape:window-maximized="1"
     inkscape:current-layer="layer1" />
  <defs
     id="defs1" />
  <g
     inkscape:label="Layer 1"
     inkscape:groupmode="layer"
     id="layer1"
     transform="translate(-108.74374,-143.93332)">
    <path
       id="path202"
       style="fill:#6d6d6d;fill-opacity:1"
       d="m 111.17773,186.61481 c -1.53308,-5.52675 -2.43319,-9.74794 -2.14093,-10.0402 0.29226,-0.29226 0.26525,-1.18993 -0.0643,-2.13513 -0.69798,-2.00225 0.28272,-5.40354 1.83809,-6.37488 0.86291,-0.5389 0.99735,-1.11313 0.72529,-3.09797 -0.31254,-2.28023 -0.18895,-2.57413 1.92745,-4.58368 1.24377,-1.18098 2.94577,-2.7051 3.78222,-3.38693 1.6854,-1.37386 2.07058,-4.00156 0.6656,-4.5407 -0.47038,-0.1805 -0.85523,-0.68559 -0.85523,-1.12241 0,-0.9551 5.71981,-1.12968 7.40814,-0.22612 1.47105,0.78728 2.4434,0.28376 3.60169,-1.86512 1.66487,-3.08867 7.75989,-6.38826 9.17902,-4.96913 0.7595,0.7595 0.0633,1.30234 -3.21966,2.51033 -1.59937,0.58851 -3.19441,1.68677 -3.91072,2.69274 -0.66534,0.93438 -1.11757,1.77764 -1.00497,1.8739 0.11261,0.0963 0.80383,0.48704 1.53605,0.8684 0.73222,0.38136 1.76626,1.63481 2.29786,2.78544 0.5316,1.15064 2.04919,3.15229 3.37243,4.44813 1.32324,1.29583 2.41518,2.83524 2.42655,3.4209 0.0132,0.68061 0.88726,1.4763 2.42232,2.20514 5.57884,2.64882 6.30268,8.0167 2.84468,21.09558 -1.07783,4.07657 -2.18985,7.98923 -2.47115,8.69479 -0.51042,1.28022 -0.53934,1.28284 -14.11338,1.28284 h -13.60186 z m 6.5601,7.52371 c 0.16597,-0.16597 -0.29785,-3.69378 -1.03071,-7.83957 -0.73286,-4.1458 -1.33903,-7.60195 -1.34704,-7.68035 -0.0493,-0.4821 -4.00562,-0.0292 -4.00562,0.45849 0,0.33057 0.62076,2.83211 1.37946,5.55897 0.7587,2.72687 1.66658,6.04835 2.0175,7.38108 0.45124,1.71369 0.93765,2.42314 1.66135,2.42314 0.56282,0 1.15909,-0.13579 1.32506,-0.30176 z m 5.39137,-5.77351 c -0.20445,-3.34141 -0.37172,-6.93335 -0.37172,-7.98211 0,-1.87985 -0.0363,-1.90684 -2.56568,-1.90684 -1.71017,0 -2.56568,0.24438 -2.56568,0.7329 0,0.90253 2.23838,13.53292 2.57302,14.51863 0.13307,0.39198 0.93041,0.71269 1.77186,0.71269 h 1.52991 z m 6.5305,3.93721 c 0.0332,-1.17594 0.22566,-4.76815 0.42761,-7.9827 l 0.3672,-5.84463 -2.98602,5.9e-4 -2.98602,5.8e-4 0.30024,4.41867 c 0.16513,2.43027 0.43885,6.02222 0.60826,7.98211 l 0.30802,3.56344 h 1.95015 c 1.86266,0 1.95285,-0.0959 2.01056,-2.13806 z m 6.23785,-3.56344 c 0.51835,-2.97904 1.1123,-6.50685 1.31989,-7.83958 l 0.37743,-2.42314 h -2.57242 -2.57241 l -0.0536,2.42314 c -0.0295,1.33273 -0.22218,4.81748 -0.42828,7.74389 -0.20609,2.92641 -0.25573,5.43972 -0.11031,5.58514 0.14542,0.14542 0.90178,0.18848 1.6808,0.0957 1.31926,-0.15714 1.48104,-0.54018 2.35886,-5.58514 z m 4.53138,2.99329 c 0.39333,-1.48952 1.32466,-4.87795 2.06963,-7.52985 0.74497,-2.6519 1.35449,-5.04064 1.35449,-5.30831 0,-0.26768 -0.95507,-0.40705 -2.12238,-0.30973 l -2.12239,0.17696 -0.98646,5.98658 c -0.54255,3.29262 -1.13851,6.82043 -1.32435,7.83957 -0.30496,1.67237 -0.20366,1.85299 1.03922,1.85299 1.1624,0 1.48861,-0.42225 2.09224,-2.70821 z m 3.10672,-16.80377 c 1.18554,-1.69261 1.1154,-3.19842 -0.25357,-5.44374 -1.66112,-2.72447 -3.53195,-3.42239 -5.53479,-2.06477 -1.39575,0.9461 -3.05078,1.11367 -13.46929,1.36371 -10.91628,0.262 -11.94343,0.37469 -12.68585,1.39181 -1.07034,1.46638 -1.02661,4.00947 0.0881,5.1242 0.76921,0.7692 3.02306,0.89595 15.93189,0.89595 14.89138,0 15.04447,-0.0122 15.9235,-1.26716 z m -7.52217,-8.72212 c 1.4441,-0.57232 1.22504,-2.7666 -0.4783,-4.79089 -1.62016,-1.92545 -2.77972,-2.23218 -3.3012,-0.87323 -0.55371,1.44294 -4.09976,2.63603 -6.21092,2.08971 -3.45574,-0.89428 -5.48596,-5.73613 -3.55885,-8.48747 0.75396,-1.07642 0.74883,-1.24699 -0.0466,-1.55223 -1.48489,-0.56981 -1.84777,-0.39576 -1.54988,0.74336 0.41453,1.58517 -1.44921,5.11295 -3.17592,6.01153 -1.68138,0.87499 -3.72797,2.99598 -4.20408,4.35689 -0.60931,1.74165 0.59241,2.50597 4.54464,2.89048 4.54161,0.44186 16.54037,0.18284 17.98114,-0.38815 z m -5.84404,-6.54509 c 0.62716,-0.62716 1.1403,-1.75329 1.1403,-2.50251 0,-1.64179 -2.20237,-4.41906 -2.64983,-3.34153 -0.16277,0.39198 -0.63804,0.71269 -1.05615,0.71269 -0.41811,0 -0.87238,-0.32071 -1.00949,-0.71269 -0.46237,-1.32185 -2.69649,1.3123 -2.69649,3.1793 0,3.46597 3.8392,5.0972 6.27166,2.66474 z" />
  </g>
</svg>
