<?xml version="1.0" encoding="UTF-8" standalone="no"?>
<!-- Created with Inkscape (http://www.inkscape.org/) -->

<svg
   width="52.91663mm"
   height="37.491829mm"
   viewBox="0 0 52.91663 37.491829"
   version="1.1"
   id="svg1"
   inkscape:version="1.3.2 (091e20ef0f, 2023-11-25, custom)"
   sodipodi:docname="distance_darkmode.svg"
   xmlns:inkscape="http://www.inkscape.org/namespaces/inkscape"
   xmlns:sodipodi="http://sodipodi.sourceforge.net/DTD/sodipodi-0.dtd"
   xmlns="http://www.w3.org/2000/svg"
   xmlns:svg="http://www.w3.org/2000/svg">
  <sodipodi:namedview
     id="namedview1"
     pagecolor="#ffffff"
     bordercolor="#000000"
     borderopacity="0.25"
     inkscape:showpageshadow="2"
     inkscape:pageopacity="0.0"
     inkscape:pagecheckerboard="0"
     inkscape:deskcolor="#d1d1d1"
     inkscape:document-units="mm"
     inkscape:zoom="0.74118967"
     inkscape:cx="-141.66414"
     inkscape:cy="-143.01333"
     inkscape:window-width="1920"
     inkscape:window-height="1036"
     inkscape:window-x="0"
     inkscape:window-y="20"
     inkscape:window-maximized="1"
     inkscape:current-layer="layer1" />
  <defs
     id="defs1" />
  <g
     inkscape:label="Layer 1"
     inkscape:groupmode="layer"
     id="layer1"
     transform="translate(-142.34581,-186.26668)">
    <path
       id="path608"
       style="fill:#ffffff;fill-opacity:1;stroke:none;stroke-width:0.39083;stroke-opacity:1"
       d="m 152.2975,186.26735 c -1.46561,0.0173 -2.91043,0.37065 -4.32836,1.05912 -2.96378,1.43907 -4.8977,4.02835 -5.47635,7.33242 -0.82837,4.73007 1.84105,10.19567 8.1005,16.58556 0.60172,0.61424 1.11374,1.04618 1.30633,1.10213 h 2.1e-4 c 0.87052,0.25293 1.29615,0.0137 2.76594,-1.55454 4.62026,-4.92989 6.99807,-8.81887 7.64385,-12.50157 0.17005,-0.97045 0.17056,-2.95484 6.4e-4,-3.77436 -0.82659,-3.99074 -3.56003,-6.93347 -7.35383,-7.91713 -0.89304,-0.23153 -1.77974,-0.34204 -2.6591,-0.33163 z m 32.80917,0.018 c -4.7841,0.0257 -8.85519,3.43913 -9.79461,8.21219 -0.17934,0.91126 -0.14768,3.16124 0.0577,4.10317 0.61661,2.82694 2.16217,5.74187 4.74279,8.94473 1.65284,2.05136 3.8743,4.40538 4.41578,4.67917 0.51969,0.26279 0.62469,0.27421 1.15891,0.12583 0.27575,-0.0766 0.64981,-0.38276 1.3572,-1.11102 5.78548,-5.95602 8.41456,-10.86638 8.20658,-15.3273 -0.17249,-3.7004 -2.16493,-6.83556 -5.40205,-8.50059 -1.59749,-0.82168 -2.92051,-1.13599 -4.74236,-1.12618 z m -32.78675,2.28001 c 0.62102,-0.009 1.24637,0.0577 1.86132,0.2058 2.84862,0.68644 4.83798,2.58588 5.69569,5.43858 0.38841,1.29189 0.39402,3.05204 0.0145,4.49438 -0.6831,2.59632 -2.34673,5.34503 -5.26812,8.70398 -0.60984,0.7012 -1.35584,1.54632 -1.65794,1.87809 l -0.54936,0.60328 -0.93247,-1.01691 c -3.68721,-4.02096 -5.743,-7.17581 -6.52536,-10.01334 -0.24939,-0.90451 -0.2849,-1.21544 -0.28255,-2.48177 0.002,-1.36066 0.0228,-1.50657 0.3393,-2.42784 0.1852,-0.53912 0.47698,-1.22518 0.64832,-1.52465 1.35363,-2.3659 3.96556,-3.821 6.65664,-3.8596 z m 32.89699,0.005 c 2.02728,-0.002 4.05563,0.77151 5.57796,2.32323 1.5088,1.538 2.32803,3.79137 2.18164,6.00105 -0.20212,3.05105 -1.95135,6.38917 -5.47271,10.44413 -0.54327,0.62562 -1.28323,1.45395 -1.64422,1.84053 l -0.65638,0.70285 -1.09808,-1.21988 c -4.76895,-5.29782 -6.61932,-8.69375 -6.63745,-12.18126 -0.007,-1.41205 0.16389,-2.2458 0.70304,-3.42435 0.4331,-0.94675 0.74267,-1.39777 1.47476,-2.14812 1.51799,-1.55581 3.54423,-2.33545 5.57144,-2.33818 z m 0.21027,2.28809 c -1.40444,-0.0538 -2.82392,0.42697 -3.94902,1.45436 -0.75284,0.68738 -1.21253,1.39917 -1.54667,2.39473 -0.7872,2.34496 0.16156,5.03428 2.25333,6.38742 0.55705,0.36035 1.528,0.74481 2.13943,0.84705 2.1057,0.35209 4.39623,-0.69356 5.60378,-2.55812 1.34125,-2.07105 1.06468,-4.99254 -0.64126,-6.77175 -1.06557,-1.11137 -2.45515,-1.69986 -3.85959,-1.75369 z m -32.77361,0.009 c -0.19378,-0.007 -0.3913,-0.005 -0.59238,0.007 -3.56503,0.20598 -6.03353,3.75076 -4.98717,7.16155 0.56912,1.85518 2.24738,3.42053 4.09912,3.82344 0.90691,0.19733 1.67346,0.18219 2.58559,-0.0511 1.08174,-0.27667 1.73816,-0.65099 2.54398,-1.45013 1.12196,-1.11265 1.65269,-2.39206 1.65269,-3.98401 0,-1.51959 -0.61693,-2.94394 -1.72378,-3.97936 -1.04132,-0.9741 -2.22164,-1.4788 -3.57805,-1.52747 z m 32.54963,2.30404 c 1.04051,0 1.78086,0.32795 2.46962,1.09406 1.45825,1.62184 0.86327,4.30973 -1.1445,5.17036 -1.31689,0.56449 -2.99083,0.15663 -3.85984,-0.94056 -1.30884,-1.65258 -0.76359,-4.1103 1.11671,-5.03364 0.498,-0.24454 0.72083,-0.29022 1.41801,-0.29022 z m -32.77988,0.002 c 0.70037,-0.002 0.91774,0.0419 1.41801,0.2876 2.42855,1.19257 2.451,4.67831 0.0377,5.86634 -0.44629,0.2197 -0.85355,0.33654 -1.26391,0.36253 -2.93727,0.18611 -4.6026,-3.29826 -2.61547,-5.4725 0.69689,-0.76252 1.3423,-1.04046 2.4236,-1.04397 z m -0.0519,22.43675 c -0.96386,0 -1.15268,0.0314 -1.68219,0.27952 -1.19806,0.56141 -2.13653,1.81744 -2.35333,3.14947 -0.35176,2.16138 1.28568,4.39293 3.43325,4.67918 v -6.4e-4 c 1.0846,0.14457 2.13818,-0.0983 2.98043,-0.68668 0.6497,-0.4539 1.29519,-1.25167 1.46587,-1.81165 l 0.11836,-0.38778 2.53752,0.002 v -2.27517 h -2.44744 l -0.31224,-0.66689 c -0.39983,-0.85443 -1.08565,-1.53688 -1.96151,-1.95182 -0.64149,-0.30391 -0.77351,-0.32839 -1.77872,-0.32839 z m 32.83178,0.20681 c -0.93391,2e-5 -1.09375,0.0295 -1.65207,0.30315 -0.78593,0.38525 -1.49,1.08811 -1.84804,1.84497 l -0.28028,0.59217 h -2.18227 v 2.28263 l 2.24004,6.4e-4 0.25286,0.53785 c 0.33203,0.70657 1.10502,1.46692 1.84268,1.81265 0.51981,0.24363 0.72078,0.2779 1.62708,0.2779 0.90362,0 1.10815,-0.0347 1.62101,-0.27508 0.82164,-0.38516 1.47056,-1.0205 1.86898,-1.82981 0.31145,-0.63279 0.33624,-0.75859 0.33624,-1.72117 0,-0.96258 -0.0249,-1.08817 -0.33624,-1.72096 -0.39842,-0.80932 -1.04734,-1.44466 -1.86898,-1.82982 -0.51286,-0.24042 -0.71732,-0.27531 -1.62101,-0.27528 z m -32.98972,2.02835 c 0.50751,-0.0462 1.03692,0.1113 1.4376,0.48594 0.8725,0.81578 0.72504,2.2694 -0.29043,2.8645 -0.81896,0.47994 -1.85661,0.28711 -2.41835,-0.44938 -0.2402,-0.31492 -0.2771,-0.46081 -0.2771,-1.09527 0,-0.60124 0.0433,-0.79222 0.24155,-1.07022 0.31354,-0.4396 0.79921,-0.6894 1.30673,-0.73557 z m 32.82554,0.20803 c 0.0801,-0.002 0.17036,0.002 0.27709,0.0107 0.97688,0.0783 1.55866,0.77616 1.46443,1.75651 -0.0574,0.59664 -0.31445,0.9921 -0.80907,1.24432 -0.78109,0.39829 -1.68975,0.13591 -2.12974,-0.61479 -0.2176,-0.3687 -0.25694,-0.54534 -0.2139,-0.92743 0.0606,-0.53694 0.3001,-0.90926 0.80952,-1.25886 0.21422,-0.14711 0.36138,-0.20508 0.60167,-0.21045 z m -23.79599,0.50391 v 2.27597 l 1.37742,6e-4 2.24991,6.4e-4 v -2.27739 h -2.19682 z m 5.99924,0 v 2.27819 l 1.66501,6e-4 1.96232,6.4e-4 v -2.2796 h -1.94619 z m 5.99903,0 v 2.28041 l 1.95262,6.4e-4 1.67491,6e-4 v -2.28183 h -1.69572 z" />
  </g>
</svg>
