<?xml version="1.0" encoding="UTF-8" standalone="no"?>
<!-- Created with Inkscape (http://www.inkscape.org/) -->

<svg
   width="52.916668mm"
   height="72.107658mm"
   viewBox="0 0 52.916668 72.107658"
   version="1.1"
   id="svg1"
   inkscape:version="1.3.2 (091e20ef0f, 2023-11-25, custom)"
   sodipodi:docname="drinks_icon.svg"
   xmlns:inkscape="http://www.inkscape.org/namespaces/inkscape"
   xmlns:sodipodi="http://sodipodi.sourceforge.net/DTD/sodipodi-0.dtd"
   xmlns="http://www.w3.org/2000/svg"
   xmlns:svg="http://www.w3.org/2000/svg">
  <sodipodi:namedview
     id="namedview1"
     pagecolor="#ffffff"
     bordercolor="#000000"
     borderopacity="0.25"
     inkscape:showpageshadow="2"
     inkscape:pageopacity="0.0"
     inkscape:pagecheckerboard="0"
     inkscape:deskcolor="#d1d1d1"
     inkscape:document-units="mm"
     inkscape:zoom="0.74118967"
     inkscape:cx="64.760751"
     inkscape:cy="294.12174"
     inkscape:window-width="1920"
     inkscape:window-height="1036"
     inkscape:window-x="0"
     inkscape:window-y="20"
     inkscape:window-maximized="1"
     inkscape:current-layer="layer1" />
  <defs
     id="defs1" />
  <g
     inkscape:label="Layer 1"
     inkscape:groupmode="layer"
     id="layer1"
     transform="translate(-87.841671,-70.643755)">
    <path
       id="path627"
       style="fill:#ffffff;fill-opacity:1;stroke-width:1.37745"
       d="m 100.11572,141.92509 c -1.254302,-0.73058 -1.377171,-2.66641 -1.40651,-22.16239 L 98.67753,98.40083 94.822049,96.593368 c -5.442165,-2.551257 -7.361365,-5.876709 -6.919204,-11.988907 0.291193,-4.025844 0.710764,-5.061218 3.013997,-7.437539 4.930994,-5.087458 11.762728,-5.515859 16.842078,-1.056132 1.4853,1.304128 3.13907,3.583848 3.67503,5.066067 l 0.97455,2.694925 h 5.98419 5.98433 l 0.94272,-6.063767 c 0.51848,-3.335081 1.2331,-6.354258 1.58807,-6.709268 0.3551,-0.35501 3.61663,-0.541943 7.248,-0.415383 5.24312,0.182718 6.60253,0.472644 6.60253,1.408111 0,0.924503 -1.29178,1.227074 -6.0021,1.405894 l -6.00196,0.227844 -0.52192,3.69892 c -0.28706,2.034411 -0.69478,4.293772 -0.90609,5.020818 -0.29642,1.019753 0.20759,1.378785 2.20447,1.570705 l 2.58865,0.248809 0.20661,27.806955 c 0.18596,25.04098 0.0758,27.95098 -1.10347,29.25447 -1.1824,1.30662 -2.69264,1.44514 -15.52097,1.42358 -8.18397,-0.0138 -14.7938,-0.36337 -15.58529,-0.82438 z m 29.25441,-28.60254 c 0,-25.187094 -0.062,-26.309343 -1.47029,-26.309343 -1.12565,0 -1.59095,0.782584 -1.98449,3.337753 -0.28279,1.835754 -0.72068,4.486325 -0.97317,5.890153 -0.3989,2.218617 -0.24215,2.5524 1.19921,2.5524 1.63903,0 1.65804,0.207169 1.65804,18.007037 0,15.3229 -0.18389,18.19099 -1.23406,19.24117 -0.98956,0.98954 -3.16868,1.23412 -10.99508,1.23412 -13.83827,0 -12.98728,1.38028 -12.72088,-20.63053 l 0.21144,-17.459127 9.21913,-0.221177 c 10.39575,-0.249429 9.26059,0.582578 10.68171,-7.828693 l 0.69657,-4.123106 h -11.28048 -11.28035 v 26.309343 26.30937 h 14.13635 14.13635 z M 101.88272,96.19023 c 0,-0.567922 1.19617,-1.602993 2.6582,-2.300175 1.50665,-0.718451 3.12075,-2.312463 3.72586,-3.67954 0.60691,-1.371265 1.66258,-2.411955 2.44663,-2.411955 1.69219,0 1.70087,0.262376 0.11708,3.599358 -1.89441,3.992124 -8.94805,7.769848 -8.94805,4.792312 z m 23.56072,21.45177 c 0,-10.47139 -0.28679,-16.49243 -0.78542,-16.49243 -0.43197,0 -0.78529,0.26462 -0.78529,0.58805 0,2.31168 -4.98223,27.44572 -5.55787,28.03809 -2.00887,2.0672 -1.97967,-1.57472 0.10331,-12.91907 3.18687,-17.355517 3.7271,-15.70707 -5.14794,-15.70707 h -7.46082 v 16.49243 16.49243 h 9.81695 9.81694 z m -26.541663,-28.076393 0.232238,-5.301142 5.218745,-0.230337 c 4.73925,-0.20918 5.18183,-0.371429 4.81721,-1.765835 -0.22094,-0.844528 -1.60968,-2.596272 -3.08631,-3.892769 -2.12885,-1.86913 -3.41346,-2.357271 -6.203205,-2.357271 -9.273266,0 -13.288669,12.631102 -5.521093,17.367724 3.870909,2.360535 4.287036,2.010635 4.542415,-3.82037 z" />
  </g>
</svg>
