<?xml version="1.0" encoding="UTF-8" standalone="no"?>
<!-- Created with Inkscape (http://www.inkscape.org/) -->

<svg
   width="82.377014mm"
   height="112.25232mm"
   viewBox="0 0 82.377014 112.25232"
   version="1.1"
   id="svg1"
   xml:space="preserve"
   inkscape:version="1.3.2 (091e20ef0f, 2023-11-25, custom)"
   sodipodi:docname="IconsWild.svg"
   xmlns:inkscape="http://www.inkscape.org/namespaces/inkscape"
   xmlns:sodipodi="http://sodipodi.sourceforge.net/DTD/sodipodi-0.dtd"
   xmlns="http://www.w3.org/2000/svg"
   xmlns:svg="http://www.w3.org/2000/svg"><sodipodi:namedview
     id="namedview1"
     pagecolor="#ffffff"
     bordercolor="#000000"
     borderopacity="0.25"
     inkscape:showpageshadow="2"
     inkscape:pageopacity="0.0"
     inkscape:pagecheckerboard="0"
     inkscape:deskcolor="#d1d1d1"
     inkscape:document-units="mm"
     inkscape:zoom="0.16968249"
     inkscape:cx="4249.1125"
     inkscape:cy="813.28366"
     inkscape:window-width="1920"
     inkscape:window-height="1036"
     inkscape:window-x="0"
     inkscape:window-y="20"
     inkscape:window-maximized="1"
     inkscape:current-layer="layer1"
     showguides="true" /><defs
     id="defs1" /><g
     inkscape:label="Layer 1"
     inkscape:groupmode="layer"
     id="layer1"
     transform="translate(-1360.3678,127.87425)"><path
       id="path576"
       style="fill:#f7146f;fill-opacity:1;stroke-width:2.14432"
       d="m 1379.475,-16.908281 c -1.9526,-1.137325 -2.1439,-4.150886 -2.1896,-34.500931 l -0.049,-33.254687 -6.0019,-2.813754 c -8.472,-3.971622 -11.4597,-9.148457 -10.7714,-18.663507 0.4533,-6.26716 1.1065,-7.87896 4.692,-11.57825 7.6762,-7.91981 18.3114,-8.58671 26.2186,-1.64411 2.3122,2.03017 4.8867,5.57911 5.721,7.8865 l 1.5171,4.1953 h 9.3158 9.316 l 1.4676,-9.4397 c 0.8071,-5.19183 1.9196,-9.89185 2.4722,-10.44453 0.5528,-0.55265 5.6301,-0.84364 11.2832,-0.64664 8.1621,0.28444 10.2783,0.7358 10.2783,2.19207 0,1.43921 -2.0109,1.91023 -9.3436,2.1886 l -9.3435,0.35469 -0.8125,5.75823 c -0.4468,3.16703 -1.0816,6.68425 -1.4105,7.81606 -0.4614,1.58748 0.3232,2.1464 3.4318,2.44519 l 4.0298,0.38731 0.3216,43.287995 c 0.2895,38.982086 0.118,43.512174 -1.7178,45.541364 -1.8407,2.034058 -4.1917,2.249691 -24.1619,2.216132 -12.7403,-0.02144 -23.03,-0.565671 -24.2621,-1.283332 z m 45.5413,-44.5265 c 0,-39.209569 -0.097,-40.956609 -2.2889,-40.956609 -1.7523,0 -2.4767,1.21827 -3.0893,5.195984 -0.4402,2.857798 -1.1219,6.984025 -1.515,9.169386 -0.621,3.453812 -0.3769,3.973402 1.8669,3.973402 2.5515,0 2.5811,0.322527 2.5811,28.032134 0,23.85366 -0.2863,28.318517 -1.9211,29.953346 -1.5405,1.540478 -4.9328,1.921224 -17.1164,1.921224 -21.5425,0 -20.2177,2.148714 -19.803,-32.116213 l 0.3292,-27.179189 14.3517,-0.344335 c 16.1834,-0.388272 14.4162,0.90694 16.6285,-12.187171 l 1.0844,-6.418568 h -17.5607 -17.5605 v 40.956609 40.956638 h 22.0065 22.0066 z m -42.7906,-26.670428 c 0,-0.884103 1.8622,-2.49543 4.1381,-3.580755 2.3455,-1.118456 4.8582,-3.599904 5.8002,-5.728076 0.9448,-2.13467 2.5882,-3.75477 3.8087,-3.75477 2.6343,0 2.6478,0.40845 0.1823,5.603237 -2.9491,6.214686 -13.9297,12.095587 -13.9297,7.460364 z m 36.6777,33.394647 c 0,-16.301146 -0.4464,-25.674285 -1.2226,-25.674285 -0.6725,0 -1.2225,0.411945 -1.2225,0.915431 0,3.59866 -7.756,42.725629 -8.6521,43.647793 -3.1273,3.218065 -3.0819,-2.451449 0.1608,-20.111523 4.9611,-27.017893 5.8021,-24.451701 -8.014,-24.451701 h -11.6145 v 25.674285 25.674293 h 15.2824 15.2823 z m -41.3182,-43.707427 0.3615,-8.252451 8.1242,-0.35858 c 7.3778,-0.32563 8.0667,-0.57819 7.4991,-2.74893 -0.3439,-1.3147 -2.5058,-4.04169 -4.8045,-6.05999 -3.3141,-2.90976 -5.3139,-3.66964 -9.6568,-3.66964 -14.4359,0 -20.6868,19.663255 -8.5948,27.036902 6.026,3.674719 6.6737,3.129998 7.0713,-5.947311 z" /></g></svg>
