<?xml version="1.0" encoding="UTF-8" standalone="no"?>
<!-- Created with Inkscape (http://www.inkscape.org/) -->

<svg
   width="79.036087mm"
   height="52.916672mm"
   viewBox="0 0 79.036087 52.916672"
   version="1.1"
   id="svg1"
   xml:space="preserve"
   inkscape:version="1.3.2 (091e20ef0f, 2023-11-25, custom)"
   sodipodi:docname="footsteps_light.svg"
   xmlns:inkscape="http://www.inkscape.org/namespaces/inkscape"
   xmlns:sodipodi="http://sodipodi.sourceforge.net/DTD/sodipodi-0.dtd"
   xmlns="http://www.w3.org/2000/svg"
   xmlns:svg="http://www.w3.org/2000/svg"><sodipodi:namedview
     id="namedview1"
     pagecolor="#ffffff"
     bordercolor="#000000"
     borderopacity="0.25"
     inkscape:showpageshadow="2"
     inkscape:pageopacity="0.0"
     inkscape:pagecheckerboard="0"
     inkscape:deskcolor="#d1d1d1"
     inkscape:document-units="mm"
     inkscape:zoom="0.74118967"
     inkscape:cx="143.01333"
     inkscape:cy="-26.983646"
     inkscape:window-width="1920"
     inkscape:window-height="1036"
     inkscape:window-x="0"
     inkscape:window-y="20"
     inkscape:window-maximized="1"
     inkscape:current-layer="layer1" /><defs
     id="defs1" /><g
     inkscape:label="Layer 1"
     inkscape:groupmode="layer"
     id="layer1"
     transform="translate(-67.001542,-155.46252)"><path
       style="fill:#6d6d6d;stroke-width:1.60705;fill-opacity:1"
       d="m 67.756863,188.08344 c 0.94996,-2.09163 2.54226,-3.41923 4.84448,-4.03915 2.13251,-0.57424 4.18004,-0.21337 6.77692,1.19437 3.55135,1.92512 3.48186,1.59732 1.95513,9.22298 l -1.34337,6.70984 -1.56407,-0.25011 c -4.96016,-0.79316 -9.09264,-3.26103 -10.56963,-6.3121 -1.10726,-2.28729 -1.13704,-4.2413 -0.0995,-6.52583 z m 17.47252,10.02562 c 0.17626,-1.05238 0.5562,-3.58763 0.84431,-5.63389 l 0.52386,-3.72051 h 1.95829 c 1.28752,0 3.12939,-0.50199 5.37736,-1.46559 4.29361,-1.84046 8.113807,-2.48679 11.470027,-1.94055 5.27745,0.85894 10.75822,3.76937 13.2498,7.03599 1.61822,2.1216 1.91437,5.69357 0.67366,8.12555 -4.51894,8.85782 -20.876867,10.58754 -32.118617,3.39627 -2.61071,-1.67005 -2.65042,-1.7864 -1.97869,-5.79727 z m 8.25894,-28.72807 c 1.2643,-2.90308 6.44704,-5.97389 10.525037,-6.23614 l 1.78461,-0.11474 1.35508,6.72971 1.35509,6.72971 -2.17634,1.43204 c -2.95741,1.94603 -5.72676,2.60724 -8.053327,1.92281 -1.94393,-0.57187 -3.85546,-2.14022 -4.79093,-3.93087 -0.74949,-1.43463 -0.74909,-4.81068 7.8e-4,-6.53251 z m 18.856237,-9.04903 c 9.8652,-6.33049 22.21085,-6.50575 29.93915,-0.42502 1.86324,1.46602 3.75392,5.0479 3.75392,7.11179 0,2.04866 -1.47529,4.90296 -3.33348,6.44941 -3.88489,3.23315 -11.63848,5.83124 -15.75105,5.27789 -2.55995,-0.34446 -5.7193,-1.34124 -8.22039,-2.59355 -1.30877,-0.65531 -2.74633,-1.0042 -4.1376,-1.0042 -2.47538,0 -2.21883,0.54349 -3.21123,-6.8032 -0.36329,-2.68939 -0.74992,-5.30111 -0.85916,-5.80384 -0.15701,-0.72213 0.22514,-1.18597 1.81984,-2.20928 z"
       id="path1"
       sodipodi:nodetypes="sssscsssssscssssssssscccssssssssssssscs" /></g></svg>
