<?xml version="1.0" encoding="UTF-8" standalone="no"?>
<!-- Created with Inkscape (http://www.inkscape.org/) -->

<svg
   width="65.267975mm"
   height="65.281128mm"
   viewBox="0 0 65.267975 65.281128"
   version="1.1"
   id="svg1"
   xml:space="preserve"
   inkscape:version="1.3.2 (091e20ef0f, 2023-11-25, custom)"
   sodipodi:docname="IconsWild.svg"
   xmlns:inkscape="http://www.inkscape.org/namespaces/inkscape"
   xmlns:sodipodi="http://sodipodi.sourceforge.net/DTD/sodipodi-0.dtd"
   xmlns="http://www.w3.org/2000/svg"
   xmlns:svg="http://www.w3.org/2000/svg"><sodipodi:namedview
     id="namedview1"
     pagecolor="#ffffff"
     bordercolor="#000000"
     borderopacity="0.25"
     inkscape:showpageshadow="2"
     inkscape:pageopacity="0.0"
     inkscape:pagecheckerboard="0"
     inkscape:deskcolor="#d1d1d1"
     inkscape:document-units="mm"
     inkscape:zoom="0.57521543"
     inkscape:cx="4933.8036"
     inkscape:cy="904.00912"
     inkscape:window-width="1920"
     inkscape:window-height="1036"
     inkscape:window-x="0"
     inkscape:window-y="20"
     inkscape:window-maximized="1"
     inkscape:current-layer="layer1"
     showguides="true" /><defs
     id="defs1" /><g
     inkscape:label="Layer 1"
     inkscape:groupmode="layer"
     id="layer1"
     transform="translate(-1333.1375,-266.76864)"><path
       style="fill:#f7146f;fill-opacity:1;stroke-width:0.482401"
       d="m 1362.8025,331.96637 c -5.496,-0.55514 -10.4057,-2.28496 -14.9971,-5.28388 -3.6761,-2.401 -7.4142,-6.24309 -9.7613,-10.03293 -6.5421,-10.5632 -6.5421,-23.88813 0,-34.45133 1.3092,-2.11398 2.6045,-3.71448 4.7111,-5.82104 2.1056,-2.10557 3.7047,-3.39995 5.821,-4.71175 11.7249,-7.26756 26.8681,-6.37625 37.5835,2.21213 2.3361,1.87233 5.0847,4.83448 6.6765,7.19526 2.886,4.27996 4.7106,9.13578 5.4089,14.39437 0.2421,1.82333 0.2032,6.49417 -0.07,8.36011 -1.0818,7.39981 -4.2081,13.63638 -9.4192,18.7903 -5.0689,5.01321 -11.1203,8.05008 -18.1594,9.1132 -1.9267,0.291 -6.0207,0.41472 -7.7944,0.23556 z m 7.4666,-2.10181 c 6.471,-0.97923 12.2121,-3.81953 16.8956,-8.35876 4.2196,-4.08961 7.1296,-9.12525 8.4869,-14.68636 0.6727,-2.75615 0.8381,-4.21609 0.8381,-7.39555 0,-3.17817 -0.1655,-4.63953 -0.837,-7.39093 -0.5451,-2.23373 -1.1415,-3.8662 -2.2191,-6.07458 -3.9771,-8.15084 -11.276,-14.10105 -20.0374,-16.33485 -2.7578,-0.70315 -4.3461,-0.88908 -7.5943,-0.88908 -3.2316,0 -4.7818,0.18171 -7.6006,0.89092 -8.6661,2.18037 -16.0839,8.22635 -20.039,16.33301 -1.4252,2.92103 -2.3108,5.7822 -2.8251,9.12592 -0.3147,2.04669 -0.3147,6.6325 0,8.6792 1.3762,8.94807 6.2483,16.55952 13.7445,21.47218 4.1328,2.70846 8.914,4.33103 14.3589,4.87294 1.0888,0.10835 5.5545,-0.0513 6.8285,-0.24406 z m -7.2113,-1.98416 c -5.5071,-0.56582 -10.7538,-2.69027 -15.0509,-6.09422 -1.1848,-0.93851 -3.6781,-3.42928 -4.5619,-4.55717 -3.1568,-4.02892 -5.1733,-8.68056 -5.9069,-13.62584 -1.5203,-10.24774 2.7612,-20.71861 11.0133,-26.93487 1.3958,-1.05143 1.9405,-1.22848 2.3418,-0.7612 0.583,0.67885 0.3876,1.07618 -1.0684,2.17206 -5.9832,4.5033 -9.7959,11.27949 -10.5633,18.77365 -0.4824,4.71165 0.4257,9.80092 2.5157,14.09751 l 0.7313,1.50346 5.4245,-3.29499 c 2.9835,-1.81225 6.731,-4.0877 8.3278,-5.05656 l 2.9034,-1.76158 -0.4964,-0.59684 c -1.0464,-1.25809 -1.6933,-2.80615 -1.9165,-4.58567 -0.1433,-1.14331 -0.03,-1.73153 0.3765,-1.9489 0.9557,-0.51149 4.8669,0.53493 5.2243,1.39775 0.2561,0.61835 -0.193,1.28528 -0.8655,1.28528 -0.1363,0 -0.5565,-0.13617 -0.9338,-0.3026 -0.3772,-0.16644 -0.9628,-0.36136 -1.3011,-0.43316 l -0.6152,-0.13054 0.088,0.52888 c 0.1861,1.11431 0.86,2.43333 1.6829,3.29418 l 0.4472,0.46786 2.0268,-1.23193 2.0267,-1.23193 v -1.6801 -1.6801 l -0.9619,-0.21402 c -1.5622,-0.34754 -2.8907,-1.09367 -4.0814,-2.29205 -1.5504,-1.56044 -2.3528,-3.35491 -2.4002,-5.36765 -0.021,-0.90398 0,-0.99946 0.296,-1.24001 0.2801,-0.2288 0.4368,-0.25164 1.2828,-0.18708 2.5923,0.1978 5.0067,1.6213 6.35,3.74382 0.1894,0.29935 0.3731,0.54427 0.4082,0.54427 0.035,0 0.2188,-0.24492 0.4083,-0.54427 1.3432,-2.12252 3.7576,-3.54602 6.3499,-3.74382 0.8461,-0.0646 1.0027,-0.0417 1.2828,0.18708 0.2946,0.24055 0.3174,0.33603 0.296,1.24001 -0.047,2.00825 -0.8956,3.88183 -2.4609,5.43467 -1.1435,1.13439 -2.5048,1.88779 -4.0207,2.22503 l -0.9619,0.21402 v 1.07209 c 0,0.58964 0.049,1.07208 0.1088,1.07208 0.1657,0 21.1369,-12.7532 21.1804,-12.88048 0.021,-0.0611 -0.3901,-0.67727 -0.9134,-1.36918 -5.6086,-7.41543 -14.7109,-11.42659 -23.8404,-10.50591 -2.7661,0.27896 -5.8617,1.08243 -8.0998,2.10237 -1.5103,0.68824 -2.2203,0.53763 -2.2203,-0.47095 0,-0.56776 0.183,-0.72615 1.5037,-1.30198 2.2408,-0.97693 5.1048,-1.76952 7.7499,-2.1448 1.7148,-0.24329 5.9364,-0.20541 7.7174,0.0693 5.0926,0.78538 9.7454,2.79405 13.7113,5.91937 1.1672,0.91981 3.6583,3.41096 4.5781,4.57815 3.1254,3.96589 5.134,8.61865 5.9194,13.71128 0.2785,1.80616 0.3143,6.01794 0.066,7.71738 -1.1488,7.84855 -5.0421,14.55183 -11.1037,19.11799 -1.3958,1.05143 -1.9405,1.22848 -2.3418,0.7612 -0.583,-0.67885 -0.3876,-1.07618 1.0684,-2.17206 5.9719,-4.49476 9.8163,-11.32571 10.5657,-18.77365 0.4763,-4.73358 -0.4295,-9.8043 -2.518,-14.09721 l -0.7313,-1.50316 -6.9562,4.2243 c -3.8258,2.32336 -7.0826,4.30679 -7.2372,4.40762 -0.265,0.17281 -0.2706,0.20845 -0.098,0.62134 0.3572,0.85475 -0.1245,3.1905 -1.0023,4.86092 -0.5869,1.11676 -2.4554,2.95297 -3.5962,3.53403 -1.0376,0.52847 -1.9882,0.85545 -2.8417,0.97749 l -0.6045,0.0865 -0.033,4.8805 -0.033,4.8805 h 0.3576 c 1.1113,0 3.3743,-0.95989 4.6541,-1.97405 1.3739,-1.0888 2.5253,-2.8642 3.0237,-4.6625 0.3065,-1.10612 0.3323,-1.53211 0.093,-1.53211 -0.094,0 -0.6049,0.11096 -1.1351,0.24658 -1.0785,0.27581 -2.2904,0.84476 -3.1782,1.49202 -0.7056,0.51445 -1.2234,0.55785 -1.6199,0.1358 -0.6267,-0.66707 -0.2407,-1.30319 1.3701,-2.25824 1.5742,-0.93329 3.6027,-1.53069 5.1976,-1.53069 1.4605,0 1.6474,0.27802 1.4423,2.14546 -0.2762,2.51319 -1.3265,4.76195 -3.0545,6.5395 -1.675,1.72304 -3.7826,2.83659 -6.113,3.22978 l -0.9707,0.16378 -0.036,1.61255 c -0.035,1.56614 -0.045,1.62009 -0.3682,1.87413 -0.183,0.14387 -0.432,0.26157 -0.5535,0.26157 -0.1214,0 -0.3704,-0.1177 -0.5533,-0.26157 -0.323,-0.25404 -0.3336,-0.30799 -0.3682,-1.87413 l -0.036,-1.61255 -0.9708,-0.16378 c -3.8117,-0.64311 -7.0212,-3.24441 -8.4655,-6.86143 -0.1937,-0.48495 -0.4199,-1.21389 -0.5027,-1.61987 -0.083,-0.40598 -0.184,-0.77157 -0.2248,-0.81243 -0.084,-0.0838 -11.0026,6.51733 -11.0617,6.68748 -0.021,0.0602 0.4089,0.70419 0.9553,1.43121 5.4886,7.30371 14.7264,11.35698 23.7985,10.44209 2.7532,-0.27764 5.9317,-1.10928 8.1998,-2.14541 1.4102,-0.64419 2.1202,-0.47206 2.1202,0.51399 0,0.55625 -0.1902,0.7301 -1.352,1.23516 -2.3087,1.00368 -4.8921,1.74795 -7.3909,2.1293 -1.5758,0.24049 -5.349,0.33957 -6.8923,0.181 z m 1.6698,-13.55509 c -0.047,-0.29835 -0.2461,-1.0087 -0.442,-1.57856 -1.0413,-3.02915 -3.952,-5.47119 -7.131,-5.98279 -0.5095,-0.082 -0.5424,-0.069 -0.5424,0.21367 0,0.55173 0.5225,2.19596 0.9655,3.0379 0.5946,1.13019 1.4425,2.18112 2.3221,2.87818 1.2569,0.99596 3.4412,1.94038 4.5464,1.96565 0.3613,0.008 0.3659,-3.9e-4 0.2814,-0.53405 z m 0.1244,-9.12102 c -0.035,-0.0904 -0.2343,-0.16444 -0.4435,-0.16444 -0.5361,0 -2.2456,-0.56814 -3.0466,-1.01247 l -0.6747,-0.37432 -1.0802,0.64561 c -0.5942,0.35508 -1.0803,0.68452 -1.0803,0.73208 0,0.0476 0.3877,0.21163 0.8615,0.36457 1.4825,0.4785 2.7689,1.32652 4.1801,2.75551 l 1.2764,1.29243 0.035,-2.03726 c 0.019,-1.1205 0.01,-2.11127 -0.028,-2.20171 z m -0.071,-2.18344 c 0,-0.12075 -0.3923,-1.47291 -0.4431,-1.52741 -0.047,-0.0502 -1.5896,0.87501 -1.6664,0.99931 -0.078,0.12591 1.2867,0.60895 1.7585,0.62249 0.193,0.006 0.351,-0.0369 0.351,-0.0944 z m 3.384,-0.1514 c 2.409,-0.82882 4.2642,-2.94528 4.7224,-5.38742 l 0.087,-0.46646 -0.7985,0.18627 c -1.5955,0.37221 -3.3714,1.64544 -4.2871,3.07366 -0.3743,0.584 -1.0662,2.34421 -1.0662,2.71278 0,0.20996 0.5201,0.1639 1.3419,-0.11883 z m -3.6196,-10.29917 c -0.3228,-1.06003 -0.8494,-1.91097 -1.6881,-2.72792 -1.03,-1.00323 -3.437,-2.04 -3.437,-1.4804 0,0.11185 0.123,0.53578 0.2733,0.94205 0.733,1.98031 2.4065,3.54002 4.3349,4.04006 0.3787,0.0982 0.7095,0.15966 0.735,0.13655 0.026,-0.0231 -0.073,-0.43276 -0.2181,-0.91034 z m 4.1495,0.33816 c 1.4831,-0.72029 2.6961,-2.09985 3.2238,-3.66632 0.1458,-0.43274 0.2651,-0.85356 0.2651,-0.93517 0,-0.39421 -1.8461,0.29778 -2.9435,1.10337 -1.0939,0.80296 -2.041,2.30336 -2.3454,3.71567 l -0.087,0.40294 0.55,-0.11917 c 0.3025,-0.0655 0.9041,-0.29113 1.3369,-0.50132 z m -3.7306,-6.23666 c -0.6328,-0.46529 -1.2382,-1.21279 -1.6871,-2.083 -0.3128,-0.60634 -0.347,-0.80452 -0.347,-2.01273 0,-1.18689 0.039,-1.42365 0.3421,-2.07 0.6067,-1.29443 2.0789,-2.63365 2.7188,-2.47307 0.5666,0.14222 1.8177,1.44049 2.2656,2.35102 0.3908,0.79451 0.4171,0.93241 0.4171,2.19005 0,1.21403 -0.034,1.40712 -0.3509,2.02259 -0.6803,1.31914 -1.8483,2.44664 -2.5345,2.44664 -0.1755,0 -0.5463,-0.16717 -0.8241,-0.3715 z m 1.2866,-2.31193 c 0.5138,-0.74152 0.7245,-1.65631 0.559,-2.4279 -0.1316,-0.61379 -0.7653,-1.65334 -1.0079,-1.65334 -0.2425,0 -0.8762,1.03955 -1.0079,1.65334 -0.1,0.4647 -0.091,0.78099 0.035,1.2668 0.1599,0.61599 0.7748,1.67473 0.9728,1.67473 0.051,0 0.2531,-0.23113 0.4489,-0.51363 z"
       id="path8" /></g></svg>
