<?xml version="1.0" encoding="UTF-8" standalone="no"?>
<!-- Created with Inkscape (http://www.inkscape.org/) -->

<svg
   width="81.511246mm"
   height="81.541893mm"
   viewBox="0 0 81.511246 81.541893"
   version="1.1"
   id="svg1"
   inkscape:version="1.3.2 (091e20ef0f, 2023-11-25, custom)"
   sodipodi:docname="halal.svg"
   xmlns:inkscape="http://www.inkscape.org/namespaces/inkscape"
   xmlns:sodipodi="http://sodipodi.sourceforge.net/DTD/sodipodi-0.dtd"
   xmlns="http://www.w3.org/2000/svg"
   xmlns:svg="http://www.w3.org/2000/svg">
  <sodipodi:namedview
     id="namedview1"
     pagecolor="#ffffff"
     bordercolor="#000000"
     borderopacity="0.25"
     inkscape:showpageshadow="2"
     inkscape:pageopacity="0.0"
     inkscape:pagecheckerboard="0"
     inkscape:deskcolor="#d1d1d1"
     inkscape:document-units="mm"
     inkscape:zoom="0.74118967"
     inkscape:cx="321.10539"
     inkscape:cy="322.45457"
     inkscape:window-width="1920"
     inkscape:window-height="1036"
     inkscape:window-x="0"
     inkscape:window-y="20"
     inkscape:window-maximized="1"
     inkscape:current-layer="layer1" />
  <defs
     id="defs1" />
  <g
     inkscape:label="Layer 1"
     inkscape:groupmode="layer"
     id="layer1"
     transform="translate(-19.843697,-63.235416)">
    <path
       style="fill:#6d6d6d;fill-opacity:0.992157"
       d="m 56.3227,144.54954 c -13.8139,-1.46772 -25.9639,-9.91127 -32.2378,-22.40331 -2.885,-5.74432 -4.2243,-11.45196 -4.241,-18.07389 -0.012,-4.921366 0.5069,-8.29479 1.9631,-12.75341 2.8731,-8.796784 9.0787,-16.831291 16.8297,-21.789526 4.1204,-2.635822 10.1039,-4.951227 15.0402,-5.820052 3.5967,-0.633042 10.175,-0.631716 13.7576,0.0028 21.0065,3.720293 35.5456,22.52471 33.7746,43.682858 -1.8985,22.68133 -22.2847,39.55597 -44.8864,37.15456 z m 7.7495,-3.71268 c 17.0217,-1.83614 30.3693,-14.39821 33.1599,-31.20827 0.4183,-2.51946 0.4147,-8.78936 -0.01,-11.377078 C 94.1182,79.180146 76.514,65.29975 57.6315,67.035565 54.0163,67.367897 52.4861,67.66915 49.3077,68.674275 36.5691,72.70266 26.8089,83.74031 24.1596,97.11386 c -0.7876,3.9754 -0.7876,9.67699 0,13.65239 2.8645,14.46013 14.0187,26.09511 28.0585,29.26812 4.5115,1.01959 7.7837,1.24118 11.8505,0.80249 z M 53.8927,127.883 c -1.1625,-0.46836 -1.5543,-2.49614 -0.6559,-3.39453 0.2673,-0.26728 1.5364,-0.74265 2.8203,-1.05639 1.2839,-0.31374 2.4004,-0.63655 2.4813,-0.71736 0.081,-0.0808 0.02,-0.34957 -0.135,-0.59725 -0.3978,-0.63542 -1.6238,-0.71889 -2.249,-0.15313 -0.3748,0.33919 -0.8631,0.44815 -1.7625,0.39333 -0.6843,-0.0417 -1.2933,-0.12435 -1.3533,-0.18363 -0.06,-0.0593 0.03,-0.41214 0.1991,-0.78412 0.4283,-0.94011 1.8165,-1.44258 3.9854,-1.44258 3.5451,0 4.0668,0.60624 4.259,4.9494 l 0.1323,2.98897 -1.389,-4.3e-4 c -1.0582,-3.3e-4 -1.3891,-0.095 -1.3891,-0.39731 0,-0.51113 -0.08,-0.50176 -1.1181,0.1313 -0.9142,0.55742 -2.7778,0.68589 -3.8255,0.26373 z m 4.1498,-1.85024 c 0.2911,-0.29104 0.5292,-0.83973 0.5292,-1.21931 0,-0.60073 -0.084,-0.66901 -0.6498,-0.52705 -1.8891,0.47413 -2.5003,1.00456 -2.1649,1.87865 0.2217,0.57771 1.6587,0.49453 2.2855,-0.13229 z m 11.4606,1.85024 c -1.1625,-0.46836 -1.5542,-2.49614 -0.6559,-3.39453 0.2673,-0.26728 1.5365,-0.74265 2.8203,-1.05639 1.2839,-0.31374 2.4005,-0.63655 2.4813,-0.71736 0.2718,-0.27186 -0.4122,-1.04679 -1.0012,-1.13414 -0.321,-0.0476 -0.9039,0.12336 -1.2955,0.37992 -0.6365,0.41707 -2.8478,0.56448 -3.2031,0.21354 -0.3078,-0.30403 0.6229,-1.50877 1.4242,-1.84357 1.1251,-0.47009 4.5215,-0.49911 5.4318,-0.0464 1.1051,0.54949 1.5407,1.86979 1.635,4.95495 l 0.085,2.77812 -1.389,-0.0906 c -0.9748,-0.0636 -1.3891,-0.20168 -1.3891,-0.46302 0,-0.48474 -0.088,-0.47255 -1.1181,0.15579 -0.9142,0.55742 -2.7778,0.68589 -3.8255,0.26373 z m 4.1499,-1.85024 c 0.291,-0.29104 0.5291,-0.82909 0.5291,-1.19567 0,-0.59338 -0.08,-0.64718 -0.7276,-0.49042 -1.872,0.45301 -2.4259,0.93558 -2.0871,1.81838 0.2217,0.57771 1.6587,0.49453 2.2856,-0.13229 z m -33.3375,-3.57188 v -5.42395 h 1.5875 1.5875 v 1.98437 1.98438 h 1.9843 1.9844 v -1.98438 -1.98437 h 1.5875 1.5875 v 5.42395 5.42396 h -1.5875 -1.5875 v -2.24896 -2.24895 h -1.9844 -1.9843 v 2.24895 2.24896 H 41.903 40.3155 Z m 23.2833,0 v -5.42395 h 1.4552 1.4552 v 5.42395 5.42396 H 65.054 63.5988 Z m 15.6104,0 v -5.42395 h 1.4552 1.4552 v 5.42395 5.42396 H 80.6644 79.2092 Z M 49.0581,109.34334 c -2.599,-1.20205 -3.1296,-1.85038 -2.2415,-2.73856 0.5927,-0.59268 1.307,-0.51838 2.9975,0.31183 1.3182,0.64737 1.7588,0.72474 3.9951,0.70156 1.9231,-0.0199 2.8729,-0.16499 4.0435,-0.61752 1.7129,-0.66224 3.6154,-2.00469 4.0357,-2.84773 0.5769,-1.1572 -0.5333,-10.269288 -1.6301,-13.378814 -1.0848,-3.075407 -1.0973,-2.918944 0.3569,-4.481035 0.7184,-0.771659 1.4942,-1.682047 1.7241,-2.023083 0.4136,-0.613626 0.421,-0.605383 0.7072,0.79375 0.7997,3.909519 1.0784,6.995054 1.0799,11.956326 0,5.732926 0.1489,6.396806 1.5666,7.064856 1.0451,0.49246 4.2289,0.61949 6.6825,0.26663 2.3657,-0.34023 6.4448,-1.5915 7.752,-2.37796 0.4408,-0.26521 1.7835,-0.82421 2.9836,-1.24224 1.2002,-0.41803 2.1825,-0.845155 2.1828,-0.949175 4e-4,-0.104021 -0.2672,-0.32855 -0.5946,-0.498953 -0.3274,-0.170403 -1.901,-1.156858 -3.4969,-2.192121 l -2.9017,-1.882297 h -2.1371 c -1.5897,0 -2.318,0.118591 -2.8437,0.46302 -0.9555,0.626083 -0.99,0.607632 -0.9889,-0.529166 0,-2.156094 1.6152,-3.632424 3.91,-3.578694 1.5306,0.03584 2.779,0.580671 9.568,4.175855 3.1791,1.683551 4.8515,2.2432 6.7435,2.256625 l 1.3411,0.0095 -0.7938,0.656573 c -0.9266,0.766527 -7.8979,4.727723 -11.455,6.508963 -1.7628,0.88274 -3.1114,1.34713 -4.7625,1.63997 -5.6742,1.00638 -7.9488,0.89672 -10.1461,-0.48916 -0.7797,-0.49176 -1.7528,-1.08719 -2.1625,-1.32319 l -0.7449,-0.42908 -1.8167,1.71376 c -3.0801,2.90567 -5.4263,3.8851 -9.2507,3.86183 -1.6406,-0.01 -2.2983,-0.15246 -3.7033,-0.80229 z m -13.7697,0.0487 c -4.1702,-0.93476 -6.252,-3.94233 -5.5101,-7.96018 0.5398,-2.923587 1.8673,-4.528675 4.6066,-5.570173 l 0.6877,-0.261442 -0.783,0.994912 c -2.1151,2.687818 -2.4961,5.180853 -1.184,7.746973 1.0837,2.11951 1.7714,2.51085 4.3869,2.49646 1.7535,-0.01 2.444,-0.14207 3.6578,-0.70151 1.8216,-0.83952 3.4778,-2.48782 4.0775,-4.05816 0.6143,-1.60848 0.3888,-7.786076 -0.3956,-10.83885 -0.2991,-1.164167 -0.5422,-2.592917 -0.5401,-3.175 0.01,-1.41552 0.761,-3.000684 2.0097,-4.213654 l 1.0251,-0.99589 0.3552,2.207897 c 0.2047,1.272503 0.3666,4.505802 0.382,7.631855 0.026,5.271737 0.01,5.487074 -0.717,7.672912 -1.5529,4.69507 -3.0962,6.87486 -5.8033,8.1968 -1.7545,0.85672 -4.5023,1.22002 -6.2554,0.82705 z m 22.1742,-8.56083 c -0.9171,-1.346063 -2.8877,-3.697547 -4.3792,-5.225516 -1.4914,-1.527968 -2.7104,-2.897187 -2.7087,-3.042708 0,-0.14552 0.1745,-0.740833 0.3842,-1.322916 0.2097,-0.582084 0.3865,-1.557322 0.3929,-2.167198 0.012,-1.17241 0.4426,-1.767704 0.6928,-0.958426 0.4452,1.439674 1.2836,2.79222 2.7576,4.44854 2.0909,2.349613 3.3491,4.196389 4.7276,6.939439 1.1512,2.290865 1.2967,2.938525 0.7765,3.458685 -0.6078,0.60775 -0.9865,0.30265 -2.6437,-2.1299 z"
       id="path12" />
  </g>
</svg>
