<?xml version="1.0" encoding="UTF-8" standalone="no"?>
<!-- Created with Inkscape (http://www.inkscape.org/) -->

<svg
   width="81.511299mm"
   height="81.541893mm"
   viewBox="0 0 81.511299 81.541893"
   version="1.1"
   id="svg1"
   xml:space="preserve"
   inkscape:version="1.3.2 (091e20ef0f, 2023-11-25, custom)"
   sodipodi:docname="IconsWild.svg"
   xmlns:inkscape="http://www.inkscape.org/namespaces/inkscape"
   xmlns:sodipodi="http://sodipodi.sourceforge.net/DTD/sodipodi-0.dtd"
   xmlns="http://www.w3.org/2000/svg"
   xmlns:svg="http://www.w3.org/2000/svg"><sodipodi:namedview
     id="namedview1"
     pagecolor="#ffffff"
     bordercolor="#000000"
     borderopacity="0.25"
     inkscape:showpageshadow="2"
     inkscape:pageopacity="0.0"
     inkscape:pagecheckerboard="0"
     inkscape:deskcolor="#d1d1d1"
     inkscape:document-units="mm"
     inkscape:zoom="0.57521543"
     inkscape:cx="4933.8036"
     inkscape:cy="904.00912"
     inkscape:window-width="1920"
     inkscape:window-height="1036"
     inkscape:window-x="0"
     inkscape:window-y="20"
     inkscape:window-maximized="1"
     inkscape:current-layer="layer1"
     showguides="true" /><defs
     id="defs1" /><g
     inkscape:label="Layer 1"
     inkscape:groupmode="layer"
     id="layer1"
     transform="translate(-1416.8565,-34.190658)"><path
       style="fill:#f7146f;fill-opacity:1"
       d="m 1453.3356,115.50478 c -13.8139,-1.46772 -25.9639,-9.91127 -32.2378,-22.403314 -2.885,-5.744312 -4.2243,-11.451958 -4.241,-18.073881 -0.012,-4.921371 0.5069,-8.294795 1.9631,-12.753415 2.8731,-8.796784 9.0787,-16.831291 16.8297,-21.789526 4.1204,-2.635822 10.1039,-4.951227 15.0402,-5.820052 3.5967,-0.633042 10.175,-0.631716 13.7576,0.0028 21.0065,3.720293 35.5456,22.52471 33.7746,43.682863 -1.8985,22.681325 -22.2847,39.555965 -44.8864,37.154555 z m 7.7495,-3.71268 c 17.0217,-1.83614 30.3693,-14.398211 33.1599,-31.208266 0.4183,-2.519462 0.4147,-8.789359 -0.01,-11.377082 -3.1039,-19.071366 -20.7081,-32.951762 -39.5906,-31.215947 -3.6152,0.332332 -5.1454,0.633585 -8.3238,1.63871 -12.7386,4.028385 -22.4988,15.066035 -25.1481,28.439585 -0.7876,3.975397 -0.7876,9.676989 0,13.652386 2.8645,14.460133 14.0187,26.095114 28.0585,29.268124 4.5115,1.01959 7.7837,1.24118 11.8505,0.80249 z m -10.1795,-12.953863 c -1.1625,-0.468361 -1.5543,-2.496135 -0.6559,-3.394528 0.2673,-0.267276 1.5364,-0.742651 2.8203,-1.056388 1.2839,-0.313736 2.4004,-0.636547 2.4813,-0.717357 0.081,-0.08081 0.02,-0.349577 -0.135,-0.597258 -0.3978,-0.635415 -1.6238,-0.71889 -2.249,-0.153124 -0.3748,0.339185 -0.8631,0.448153 -1.7625,0.393325 -0.6843,-0.04171 -1.2933,-0.124344 -1.3533,-0.183629 -0.06,-0.05929 0.03,-0.412137 0.1991,-0.784116 0.4283,-0.940116 1.8165,-1.442578 3.9854,-1.442578 3.5451,0 4.0668,0.606232 4.259,4.949397 l 0.1323,2.988973 -1.389,-4.35e-4 c -1.0582,-3.32e-4 -1.3891,-0.09498 -1.3891,-0.397311 0,-0.511126 -0.08,-0.501759 -1.1181,0.131303 -0.9142,0.557417 -2.7778,0.685885 -3.8255,0.263726 z m 4.1498,-1.850237 c 0.2911,-0.291042 0.5292,-0.83973 0.5292,-1.219308 0,-0.600727 -0.084,-0.669012 -0.6498,-0.527054 -1.8891,0.474134 -2.5003,1.004565 -2.1649,1.878654 0.2217,0.577707 1.6587,0.494528 2.2855,-0.132292 z m 11.4606,1.850237 c -1.1625,-0.468361 -1.5542,-2.496135 -0.6559,-3.394528 0.2673,-0.267276 1.5365,-0.742651 2.8203,-1.056388 1.2839,-0.313736 2.4005,-0.636547 2.4813,-0.717357 0.2718,-0.271861 -0.4122,-1.046794 -1.0012,-1.134141 -0.321,-0.0476 -0.9039,0.12336 -1.2955,0.379919 -0.6365,0.417064 -2.8478,0.56448 -3.2031,0.213536 -0.3078,-0.304031 0.6229,-1.508772 1.4242,-1.843567 1.1251,-0.470093 4.5215,-0.499111 5.4318,-0.04641 1.1051,0.549488 1.5407,1.869786 1.635,4.954948 l 0.085,2.778125 -1.389,-0.09063 c -0.9748,-0.0636 -1.3891,-0.201689 -1.3891,-0.463021 0,-0.484747 -0.088,-0.472555 -1.1181,0.15579 -0.9142,0.557417 -2.7778,0.685885 -3.8255,0.263726 z m 4.1499,-1.850237 c 0.291,-0.291042 0.5291,-0.829091 0.5291,-1.195666 0,-0.593385 -0.08,-0.647184 -0.7276,-0.490424 -1.872,0.453007 -2.4259,0.935584 -2.0871,1.818382 0.2217,0.577707 1.6587,0.494528 2.2856,-0.132292 z m -33.3375,-3.571875 v -5.423958 h 1.5875 1.5875 v 1.984375 1.984375 h 1.9843 1.9844 v -1.984375 -1.984375 h 1.5875 1.5875 v 5.423958 5.423958 h -1.5875 -1.5875 v -2.248958 -2.248958 h -1.9844 -1.9843 v 2.248958 2.248958 h -1.5875 -1.5875 z m 23.2833,0 v -5.423958 h 1.4552 1.4552 v 5.423958 5.423958 h -1.4552 -1.4552 z m 15.6104,0 v -5.423958 h 1.4552 1.4552 v 5.423958 5.423958 h -1.4552 -1.4552 z M 1446.071,80.298579 c -2.599,-1.20205 -3.1296,-1.850381 -2.2415,-2.738554 0.5927,-0.592687 1.307,-0.518384 2.9975,0.31183 1.3182,0.64736 1.7588,0.724731 3.9951,0.701553 1.9231,-0.01993 2.8729,-0.16499 4.0435,-0.617521 1.7129,-0.662236 3.6154,-2.004682 4.0357,-2.847726 0.5769,-1.157205 -0.5333,-10.269289 -1.6301,-13.378815 -1.0848,-3.075407 -1.0973,-2.918944 0.3569,-4.481035 0.7184,-0.771659 1.4942,-1.682047 1.7241,-2.023083 0.4136,-0.613626 0.421,-0.605383 0.7072,0.79375 0.7997,3.909519 1.0784,6.995054 1.0799,11.956326 0,5.73293 0.1489,6.396808 1.5666,7.064856 1.0451,0.492463 4.2289,0.619491 6.6825,0.266626 2.3657,-0.340229 6.4448,-1.5915 7.752,-2.377958 0.4408,-0.265206 1.7835,-0.824213 2.9836,-1.242239 1.2002,-0.418025 2.1825,-0.845154 2.1828,-0.949174 4e-4,-0.104021 -0.2672,-0.32855 -0.5946,-0.498953 -0.3274,-0.170403 -1.901,-1.156858 -3.4969,-2.192121 l -2.9017,-1.882297 h -2.1371 c -1.5897,0 -2.318,0.118591 -2.8437,0.46302 -0.9555,0.626083 -0.99,0.607632 -0.9889,-0.529166 0,-2.156094 1.6152,-3.632424 3.91,-3.578694 1.5306,0.03584 2.779,0.580671 9.568,4.175855 3.1791,1.683551 4.8515,2.2432 6.7435,2.256625 l 1.3411,0.0095 -0.7938,0.656573 c -0.9266,0.766527 -7.8979,4.727725 -11.455,6.508967 -1.7628,0.882739 -3.1114,1.347124 -4.7625,1.639962 -5.6742,1.006381 -7.9488,0.896723 -10.1461,-0.48916 -0.7797,-0.491756 -1.7528,-1.087187 -2.1625,-1.323182 l -0.7449,-0.42908 -1.8167,1.713755 c -3.0801,2.905667 -5.4263,3.885101 -9.2507,3.861826 -1.6406,-0.01 -2.2983,-0.152453 -3.7033,-0.802281 z m -13.7697,0.04868 c -4.1702,-0.934761 -6.252,-3.942332 -5.5101,-7.960174 0.5398,-2.923592 1.8673,-4.52868 4.6066,-5.570178 l 0.6877,-0.261442 -0.783,0.994912 c -2.1151,2.687818 -2.4961,5.180857 -1.184,7.746976 1.0837,2.119511 1.7714,2.510851 4.3869,2.496457 1.7535,-0.0096 2.444,-0.14207 3.6578,-0.701506 1.8216,-0.83952 3.4778,-2.487823 4.0775,-4.058161 0.6143,-1.608486 0.3888,-7.786079 -0.3956,-10.838853 -0.2991,-1.164167 -0.5422,-2.592917 -0.5401,-3.175 0.01,-1.41552 0.761,-3.000684 2.0097,-4.213654 l 1.0251,-0.99589 0.3552,2.207897 c 0.2047,1.272503 0.3666,4.505802 0.382,7.631855 0.026,5.271737 0.01,5.487074 -0.717,7.672916 -1.5529,4.69507 -3.0962,6.874859 -5.8033,8.196792 -1.7545,0.856728 -4.5023,1.220024 -6.2554,0.827053 z m 22.1742,-8.560824 c -0.9171,-1.346068 -2.8877,-3.697552 -4.3792,-5.225521 -1.4914,-1.527968 -2.7104,-2.897187 -2.7087,-3.042708 0,-0.14552 0.1745,-0.740833 0.3842,-1.322916 0.2097,-0.582084 0.3865,-1.557322 0.3929,-2.167198 0.012,-1.17241 0.4426,-1.767704 0.6928,-0.958426 0.4452,1.439674 1.2836,2.79222 2.7576,4.44854 2.0909,2.349613 3.3491,4.196389 4.7276,6.939439 1.1512,2.290864 1.2967,2.938526 0.7765,3.458686 -0.6078,0.607754 -0.9865,0.30265 -2.6437,-2.129896 z"
       id="path13" /></g></svg>
