<?xml version="1.0" encoding="UTF-8" standalone="no"?>
<!-- Created with Inkscape (http://www.inkscape.org/) -->

<svg
   width="52.916668mm"
   height="52.930878mm"
   viewBox="0 0 52.916668 52.930878"
   version="1.1"
   id="svg1"
   inkscape:version="1.3.2 (091e20ef0f, 2023-11-25, custom)"
   sodipodi:docname="home_icon.svg"
   xmlns:inkscape="http://www.inkscape.org/namespaces/inkscape"
   xmlns:sodipodi="http://sodipodi.sourceforge.net/DTD/sodipodi-0.dtd"
   xmlns="http://www.w3.org/2000/svg"
   xmlns:svg="http://www.w3.org/2000/svg">
  <sodipodi:namedview
     id="namedview1"
     pagecolor="#ffffff"
     bordercolor="#000000"
     borderopacity="0.25"
     inkscape:showpageshadow="2"
     inkscape:pageopacity="0.0"
     inkscape:pagecheckerboard="0"
     inkscape:deskcolor="#d1d1d1"
     inkscape:document-units="mm"
     inkscape:zoom="0.74118967"
     inkscape:cx="39.126287"
     inkscape:cy="-152.4576"
     inkscape:window-width="1920"
     inkscape:window-height="1036"
     inkscape:window-x="0"
     inkscape:window-y="20"
     inkscape:window-maximized="1"
     inkscape:current-layer="layer1" />
  <defs
     id="defs1" />
  <g
     inkscape:label="Layer 1"
     inkscape:groupmode="layer"
     id="layer1"
     transform="translate(-94.456249,-188.91225)">
    <path
       style="fill:#6d6d6d;fill-opacity:1;stroke-width:0.391657"
       d="m 104.64904,241.72162 c -1.98488,-0.37577 -3.87206,-2.22138 -4.35171,-4.25587 -0.12816,-0.5434 -0.15322,-1.99881 -0.15452,-8.96473 v -8.31601 l -0.751277,-0.001 c -1.387409,-0.002 -2.540963,-0.47653 -3.505697,-1.44125 -1.641559,-1.64157 -1.899891,-4.21124 -0.616585,-6.13316 0.16728,-0.25047 5.400849,-5.54218 11.630219,-11.75935 13.14926,-13.1235 11.71328,-11.90833 14.07224,-11.90833 2.38289,0 0.96184,-1.20527 14.27,12.10288 13.30816,13.30817 12.10286,11.88709 12.10286,14.27 0,1.36085 -0.009,1.41816 -0.33385,2.10378 -0.79408,1.67653 -2.54816,2.76666 -4.45175,2.76666 h -0.7584 v 8.285 c 0,5.60878 -0.0368,8.46238 -0.11365,8.83413 -0.44168,2.13365 -2.38012,4.04463 -4.49085,4.42728 -0.37962,0.0688 -2.40563,0.11148 -5.29552,0.11148 h -4.68063 l -0.34259,-0.23316 c -0.18843,-0.12824 -0.4401,-0.36478 -0.55936,-0.52563 -0.21354,-0.28809 -0.21754,-0.39515 -0.26856,-7.15022 -0.0573,-7.58049 -0.0247,-7.22923 -0.73535,-7.93982 -0.19273,-0.19272 -0.56078,-0.44778 -0.81789,-0.56681 -0.4407,-0.20397 -0.6428,-0.21639 -3.52446,-0.21639 h -3.05698 l -0.58552,0.28754 c -0.55071,0.27044 -0.89851,0.61189 -1.23768,1.21505 -0.11961,0.21269 -0.15498,1.49607 -0.19751,7.16863 -0.0511,6.80768 -0.055,6.91388 -0.2686,7.20203 -0.11922,0.16085 -0.37094,0.39738 -0.55937,0.52562 l -0.34258,0.23316 -4.77737,-0.0116 c -2.6276,-0.007 -5.01056,-0.0558 -5.29553,-0.10969 z m 8.13466,-8.85334 c 0,-6.46421 0.005,-6.51771 0.65227,-7.76102 0.44774,-0.8594 1.60141,-1.98483 2.4593,-2.39908 1.23928,-0.59842 1.30411,-0.60609 5.12673,-0.60609 h 3.52328 l 0.73597,0.26925 c 1.85423,0.67839 3.22432,2.16384 3.72251,4.03593 0.12302,0.4622 0.15063,1.63744 0.15165,6.44605 v 5.88078 h 3.60807 c 3.97835,0 4.31127,-0.0411 5.00951,-0.61865 0.2086,-0.17256 0.4884,-0.53528 0.62176,-0.80608 l 0.24243,-0.49235 0.0518,-9.34473 c 0.0512,-9.2358 0.0543,-9.34806 0.26547,-9.63084 0.4989,-0.66805 0.6326,-0.70878 2.51382,-0.76582 1.06422,-0.0322 1.81259,-0.10044 1.9474,-0.17739 0.3827,-0.21844 0.85657,-0.84118 0.92737,-1.21876 0.10689,-0.56969 -0.0317,-1.03882 -0.46588,-1.57811 -0.21999,-0.27315 -5.24282,-5.32938 -11.16186,-11.23607 -8.76249,-8.74415 -10.83641,-10.76312 -11.16262,-10.86688 -0.53339,-0.16964 -1.13573,-0.0766 -1.60173,0.24756 -0.20954,0.14575 -5.28371,5.17431 -11.27588,11.17456 -8.877048,8.88898 -10.918538,10.98379 -11.022326,11.31026 -0.249206,0.7837 0.08156,1.68377 0.772702,2.10242 0.262062,0.15875 0.608909,0.19998 2.044104,0.243 1.88133,0.0564 2.01477,0.097 2.51379,0.76522 0.21118,0.2828 0.21427,0.3945 0.26547,9.68265 l 0.0518,9.39655 0.28729,0.48872 c 0.158,0.26879 0.44202,0.60675 0.63115,0.751 0.70711,0.53935 0.87223,0.55859 4.85873,0.56645 l 3.70465,0.007 z"
       id="path607" />
  </g>
</svg>
