<?xml version="1.0" encoding="UTF-8" standalone="no"?>
<!-- Created with Inkscape (http://www.inkscape.org/) -->

<svg
   width="72.004906mm"
   height="70.819054mm"
   viewBox="0 0 72.004906 70.819054"
   version="1.1"
   id="svg1"
   xml:space="preserve"
   inkscape:version="1.3.2 (091e20ef0f, 2023-11-25, custom)"
   sodipodi:docname="IconsWild.svg"
   xmlns:inkscape="http://www.inkscape.org/namespaces/inkscape"
   xmlns:sodipodi="http://sodipodi.sourceforge.net/DTD/sodipodi-0.dtd"
   xmlns="http://www.w3.org/2000/svg"
   xmlns:svg="http://www.w3.org/2000/svg"><sodipodi:namedview
     id="namedview1"
     pagecolor="#ffffff"
     bordercolor="#000000"
     borderopacity="0.25"
     inkscape:showpageshadow="2"
     inkscape:pageopacity="0.0"
     inkscape:pagecheckerboard="0"
     inkscape:deskcolor="#d1d1d1"
     inkscape:document-units="mm"
     inkscape:zoom="0.16968249"
     inkscape:cx="4249.1125"
     inkscape:cy="813.28366"
     inkscape:window-width="1920"
     inkscape:window-height="1036"
     inkscape:window-x="0"
     inkscape:window-y="20"
     inkscape:window-maximized="1"
     inkscape:current-layer="layer1"
     showguides="true" /><defs
     id="defs1" /><g
     inkscape:label="Layer 1"
     inkscape:groupmode="layer"
     id="layer1"
     transform="translate(-1325.1006,138.95472)"><path
       id="path86"
       style="fill:#6d6d6d;fill-opacity:1;stroke-width:1.38783"
       d="m 1331.369,-69.934844 c -2.8243,-1.903247 -6.2683,-6.413457 -6.2683,-8.208759 0,-0.588441 0.6559,-1.069895 1.4574,-1.069895 1.0249,0 1.7511,-0.980732 2.4477,-3.305714 1.4066,-4.694972 3.0675,-6.921307 7.0459,-9.444278 5.7625,-3.654486 5.8194,-3.930026 5.5434,-26.81373 l -0.2434,-20.17749 9.4124,0.19272 c 7.0646,0.14465 9.7407,0.49004 10.7293,1.38474 1.0828,0.98011 4.1963,1.19201 17.5148,1.19201 16.7095,0 18.0973,0.25053 18.0973,3.26683 0,0.75228 -0.5595,1.92731 -1.2433,2.6112 -1.0464,1.04644 -3.7731,1.24742 -17.2103,1.2686 -12.7843,0.0201 -16.2722,0.25668 -17.5019,1.1869 -0.8448,0.63896 -2.892,1.16176 -4.5495,1.16176 h -3.0138 v 13.37662 13.376638 l 4.6791,-0.424298 c 3.6891,-0.33457 5.4046,-0.0831 8.11,1.188689 1.8871,0.887159 4.2229,1.845055 5.1908,2.128659 0.9679,0.283604 2.4433,1.384795 3.2786,2.44707 1.0343,1.314654 2.3123,1.931407 4.0026,1.931407 5.711,0 12.1399,5.208776 13.1636,10.665294 0.4599,2.451586 0.8075,2.786373 2.8941,2.786373 2.159,0 2.3254,0.184471 1.8552,2.057575 -0.771,3.071956 -3.5393,6.431874 -6.4293,7.803248 -2.1514,1.020918 -6.8934,1.217019 -29.4283,1.217019 -26.6323,0 -26.8874,-0.01554 -29.5341,-1.799188 z m 57.4601,-1.829706 c 1.4547,-0.690308 3.2081,-2.1146 3.8963,-3.165107 l 1.2515,-1.910006 h -32.4596 c -17.8529,0 -32.4548,0.267047 -32.4481,0.593451 0.024,1.171138 1.2203,2.400037 3.9442,4.051656 2.6688,1.618075 3.6864,1.679279 27.9704,1.682124 21.3738,0.0028 25.602,-0.187621 27.8453,-1.252118 z m -55.8157,-8.67516 c 0,-2.283597 2.4385,-5.95772 4.984,-7.509846 3.0283,-1.846443 6.9089,-1.98803 10.0447,-0.366499 1.3655,0.706144 2.4779,0.879415 2.756,0.42934 0.719,-1.163379 -3.9009,-3.196042 -7.261,-3.194668 -3.6395,0.0014 -7.9216,2.061794 -9.8647,4.746419 -1.7885,2.470858 -2.8001,7.121466 -1.5491,7.121466 0.4896,0 0.8901,-0.551794 0.8901,-1.226212 z m 5.3655,-1.426873 c 1.2613,-2.13775 2.2371,-2.766591 5.0236,-3.237469 3.0958,-0.523144 3.2669,-0.658847 1.6321,-1.294752 -3.5393,-1.376676 -8.8561,2.193277 -8.8561,5.946382 0,1.830849 0.4604,1.535047 2.2004,-1.414161 z m 3.3386,1.419476 c 0,-0.678484 -0.3561,-1.013549 -0.7913,-0.744573 -0.4351,0.268962 -0.7912,0.824096 -0.7912,1.233604 0,0.409528 0.3561,0.744578 0.7912,0.744578 0.4352,0 0.7913,-0.555125 0.7913,-1.233609 z m 8.9399,0.733928 c 0.2749,-0.274819 0.1318,-1.186334 -0.317,-2.025599 -1.1717,-2.189516 -4.974,-1.656629 -5.315,0.74492 -0.2197,1.547052 0.1,1.78036 2.4397,1.78036 1.4809,0 2.9175,-0.224842 3.1923,-0.499681 z m 8.824,-0.223177 c -1.3543,-1.302413 -5.8947,-1.355109 -5.8947,-0.06842 0,0.435217 1.4954,0.791279 3.3233,0.791279 2.0268,0 3.0298,-0.28198 2.5714,-0.722859 z m 9.0226,-2.023157 c 1.3409,-3.708722 4.995,-6.188045 9.2557,-6.2801 4.1321,-0.08924 7.2591,1.960107 9.3223,6.109896 1.5891,3.196354 3.3168,3.983006 2.4945,1.135859 -0.7171,-2.48307 -2.8589,-5.346574 -5.4382,-7.270403 -3.1032,-2.314698 -9.5821,-2.190015 -13.0091,0.250365 -2.5975,1.849677 -4.8828,5.394593 -4.8828,7.574186 0,2.148706 1.2307,1.320252 2.2576,-1.519803 z m 9.1981,-2.001631 c 1.2973,0 3.0363,0.919135 4.491,2.373821 1.3056,1.305604 2.5245,2.373825 2.7085,2.373825 1.0236,0 0.039,-2.000748 -1.9781,-4.017243 -3.0229,-3.022882 -7.1813,-3.177237 -9.9876,-0.370732 -1.0681,1.068216 -1.942,2.530174 -1.942,3.24878 0,0.950089 0.6262,0.636072 2.2954,-1.150944 1.4618,-1.56488 3.0645,-2.457507 4.4128,-2.457507 z m 2.3911,3.956367 c -0.269,-0.435196 -1.3372,-0.791273 -2.3739,-0.791273 -1.0366,0 -2.1048,0.356077 -2.3737,0.791273 -0.2916,0.471842 0.6667,0.791279 2.3737,0.791279 1.7072,0 2.6655,-0.319437 2.3739,-0.791279 z m -16.2204,-1.594176 c 0,-1.559995 -5.1332,-3.938811 -8.5058,-3.941781 -4.6944,-0.0042 -4.2132,1.296542 0.6526,1.764075 2.2083,0.212214 4.599,0.969666 5.3124,1.68322 1.4717,1.471812 2.5408,1.679862 2.5408,0.494486 z m -1.1544,-6.265917 c -0.2869,-0.464161 -1.4796,-0.827857 -2.6508,-0.808233 l -2.1291,0.03567 2.3736,1.038974 c 2.5704,1.12509 3.2217,1.052978 2.4063,-0.266436 z m 3.8537,-1.927784 c -0.6469,-1.685663 -4.375,-3.663784 -6.9052,-3.663784 -2.2105,0 -6.3148,2.936906 -5.6369,4.033669 0.2521,0.408009 1.3718,0.02345 2.4881,-0.854642 1.1161,-0.878055 2.4988,-1.596481 3.0722,-1.596481 2.0222,0 5.049,1.84092 5.5326,3.364831 0.303,0.954788 0.7708,1.260819 1.2281,0.803514 0.4061,-0.406233 0.5056,-1.345435 0.2211,-2.087107 z m 5.7935,-3.123903 c -0.4505,-1.373289 -4.5368,-1.693088 -4.5368,-0.35505 0,0.594659 0.4106,1.491838 0.9125,1.993707 1.1215,1.121647 4.0895,-0.220263 3.6243,-1.638657 z m -19.2015,-0.510085 c 2.1753,-2.4037 6.3184,-3.501005 9.2976,-2.462391 1.491,0.519743 2.7867,0.582057 3.2141,0.154563 1.1464,-1.146448 -4.5214,-2.625088 -7.7446,-2.020409 -2.8276,0.5305 -7.5098,3.747568 -7.5098,5.160063 0,1.195161 1.2517,0.815519 2.7427,-0.831826 z m -5.5121,-1.66744 c 0,-1.510657 -2.5587,-1.896059 -4.0994,-0.617461 -1.1172,0.927239 -1.0483,1.097776 0.6315,1.564741 2.4702,0.686644 3.4679,0.414115 3.4679,-0.94728 z m 3.5608,-16.957258 c 0,-11.18514 -0.2333,-14.63778 -0.9891,-14.63521 -0.7575,0.003 -0.9669,3.29035 -0.8945,14.04511 0.1083,16.041447 0.05,15.228676 1.0922,15.228676 0.4991,0 0.7914,-5.407046 0.7914,-14.638576 z m -4.7476,-1.18691 c 0,-8.44026 -0.2948,-13.45166 -0.7914,-13.45166 -0.4964,0 -0.7912,5.0114 -0.7912,13.45166 0,8.44025 0.2948,13.451666 0.7912,13.451666 0.4966,0 0.7914,-5.011416 0.7914,-13.451666 z m 0,-17.40804 c 0,-0.4352 -0.3562,-0.79127 -0.7914,-0.79127 -0.4351,0 -0.7912,0.35607 -0.7912,0.79127 0,0.43521 0.3561,0.79127 0.7912,0.79127 0.4352,0 0.7914,-0.35606 0.7914,-0.79127 z m 4.7476,0 c 0,-0.4352 -0.5342,-0.79127 -1.1869,-0.79127 -0.6528,0 -1.187,0.35607 -1.187,0.79127 0,0.43521 0.5342,0.79127 1.187,0.79127 0.6527,0 1.1869,-0.35606 1.1869,-0.79127 z m 3.9563,0 c 0,-0.4352 -0.356,-0.79127 -0.7912,-0.79127 -0.4352,0 -0.7912,0.35607 -0.7912,0.79127 0,0.43521 0.356,0.79127 0.7912,0.79127 0.4352,0 0.7912,-0.35606 0.7912,-0.79127 z m 5.5387,-0.39563 c 0.8166,-0.98397 3.7417,-1.18692 17.1084,-1.18692 10.2221,0 16.1242,-0.28964 16.1242,-0.79127 0,-0.50224 -6.0341,-0.79127 -16.5198,-0.79127 -14.1248,0 -16.6702,-0.18211 -17.5619,-1.25648 -0.9344,-1.12618 -1.1104,-1.07327 -1.6962,0.51032 -0.6965,1.88299 -0.1453,4.70252 0.9193,4.70252 0.3525,0 1.0842,-0.5341 1.626,-1.1869 z m -9.9325,-4.4196 c -0.2546,-0.41223 -0.8005,-0.54104 -1.2126,-0.28628 -0.4122,0.25477 -0.5412,0.8005 -0.2864,1.21273 0.2549,0.41223 0.8006,0.54105 1.2127,0.28628 0.4124,-0.25477 0.5412,-0.8005 0.2863,-1.21273 z m -4.3101,0.0676 c 0,-0.4352 -0.3562,-0.79127 -0.7914,-0.79127 -0.4351,0 -0.7912,0.35607 -0.7912,0.79127 0,0.4352 0.3561,0.79127 0.7912,0.79127 0.4352,0 0.7914,-0.35607 0.7914,-0.79127 z m 8.7039,0 c 0,-0.4352 -0.356,-0.79127 -0.7912,-0.79127 -0.4352,0 -0.7912,0.35607 -0.7912,0.79127 0,0.4352 0.356,0.79127 0.7912,0.79127 0.4352,0 0.7912,-0.35607 0.7912,-0.79127 z" /></g></svg>
