<?xml version="1.0" encoding="UTF-8" standalone="no"?>
<!-- Created with Inkscape (http://www.inkscape.org/) -->

<svg
   width="72.004776mm"
   height="70.819016mm"
   viewBox="0 0 72.004776 70.819016"
   version="1.1"
   id="svg1"
   xml:space="preserve"
   inkscape:version="1.3.2 (091e20ef0f, 2023-11-25, custom)"
   sodipodi:docname="IconsWild.svg"
   xmlns:inkscape="http://www.inkscape.org/namespaces/inkscape"
   xmlns:sodipodi="http://sodipodi.sourceforge.net/DTD/sodipodi-0.dtd"
   xmlns="http://www.w3.org/2000/svg"
   xmlns:svg="http://www.w3.org/2000/svg"><sodipodi:namedview
     id="namedview1"
     pagecolor="#ffffff"
     bordercolor="#000000"
     borderopacity="0.25"
     inkscape:showpageshadow="2"
     inkscape:pageopacity="0.0"
     inkscape:pagecheckerboard="0"
     inkscape:deskcolor="#d1d1d1"
     inkscape:document-units="mm"
     inkscape:zoom="0.16968249"
     inkscape:cx="4249.1125"
     inkscape:cy="813.28366"
     inkscape:window-width="1920"
     inkscape:window-height="1036"
     inkscape:window-x="0"
     inkscape:window-y="20"
     inkscape:window-maximized="1"
     inkscape:current-layer="layer1"
     showguides="true" /><defs
     id="defs1" /><g
     inkscape:label="Layer 1"
     inkscape:groupmode="layer"
     id="layer1"
     transform="translate(-1445.5453,152.54124)"><path
       id="path595"
       style="fill:#f7146f;fill-opacity:1;stroke-width:1.38783"
       d="m 1451.8135,-83.521395 c -2.8242,-1.903247 -6.2681,-6.413457 -6.2681,-8.208759 0,-0.588441 0.6557,-1.069895 1.4572,-1.069895 1.0249,0 1.7512,-0.980726 2.4477,-3.305695 1.4067,-4.694976 3.0677,-6.921306 7.0459,-9.444276 5.7626,-3.65449 5.8195,-3.93003 5.5434,-26.81373 l -0.2432,-20.17749 9.4124,0.19271 c 7.0646,0.14466 9.7405,0.49005 10.7292,1.38474 1.0829,0.98012 4.1962,1.19201 17.5147,1.19201 16.7095,0 18.0974,0.25054 18.0974,3.26684 0,0.75227 -0.5596,1.92731 -1.2434,2.61119 -1.0464,1.04645 -3.7731,1.24743 -17.2102,1.26861 -12.7843,0.0201 -16.2721,0.25668 -17.502,1.1869 -0.8448,0.63896 -2.892,1.16176 -4.5495,1.16176 h -3.0138 v 13.37662 13.37664 l 4.6791,-0.42431 c 3.6893,-0.33456 5.4046,-0.0831 8.1101,1.1887 1.887,0.88716 4.2229,1.84505 5.1908,2.12866 0.9678,0.2836 2.4432,1.38479 3.2786,2.44707 1.0342,1.31465 2.3123,1.9314 4.0025,1.9314 5.7111,0 12.1399,5.20878 13.1636,10.665298 0.4599,2.451566 0.8076,2.786353 2.8942,2.786353 2.1589,0 2.3253,0.184471 1.8551,2.057575 -0.7709,3.071956 -3.5393,6.431874 -6.4293,7.803248 -2.1514,1.020904 -6.8933,1.217005 -29.4283,1.217005 -26.6322,0 -26.8873,-0.01554 -29.5341,-1.799174 z m 57.4601,-1.829706 c 1.4547,-0.690308 3.2081,-2.1146 3.8963,-3.165107 l 1.2516,-1.910006 h -32.4596 c -17.853,0 -32.4548,0.267046 -32.448,0.593451 0.024,1.171138 1.2202,2.400037 3.9442,4.051656 2.6687,1.618075 3.6864,1.679279 27.9703,1.682124 21.3737,0.0028 25.6019,-0.187621 27.8452,-1.252118 z m -55.8155,-8.675154 c 0,-2.283584 2.4383,-5.957707 4.9839,-7.509835 3.0282,-1.84644 6.909,-1.98803 10.0447,-0.3665 1.3655,0.70615 2.4778,0.87942 2.7559,0.42934 0.7191,-1.16338 -3.9007,-3.19604 -7.2608,-3.19466 -3.6396,0.001 -7.9218,2.06179 -9.8649,4.746415 -1.7885,2.470857 -2.8001,7.121446 -1.5489,7.121446 0.4894,0 0.8901,-0.551788 0.8901,-1.226206 z m 5.3654,-1.426874 c 1.2612,-2.137736 2.237,-2.766577 5.0237,-3.237455 3.0957,-0.523144 3.2668,-0.658846 1.6319,-1.294752 -3.5391,-1.376674 -8.8559,2.193277 -8.8559,5.946368 0,1.830844 0.4602,1.535041 2.2003,-1.414161 z m 3.3386,1.419477 c 0,-0.678485 -0.356,-1.013549 -0.7913,-0.744573 -0.4352,0.268962 -0.7913,0.824095 -0.7913,1.233604 0,0.409522 0.3561,0.744572 0.7913,0.744572 0.4353,0 0.7913,-0.555119 0.7913,-1.233603 z m 8.94,0.733928 c 0.2748,-0.274819 0.1318,-1.186334 -0.317,-2.025599 -1.1719,-2.189502 -4.974,-1.656616 -5.3151,0.74492 -0.2197,1.547046 0.1,1.780354 2.4398,1.780354 1.4809,0 2.9175,-0.224843 3.1923,-0.499675 z m 8.8239,-0.223178 c -1.3543,-1.302412 -5.8948,-1.355108 -5.8948,-0.06842 0,0.435211 1.4956,0.791273 3.3233,0.791273 2.0268,0 3.0299,-0.28198 2.5715,-0.722853 z m 9.0225,-2.023142 c 1.3409,-3.708722 4.9951,-6.188046 9.2557,-6.280096 4.1322,-0.0892 7.2591,1.960102 9.3224,6.109892 1.5891,3.196334 3.3168,3.982986 2.4945,1.135845 -0.7171,-2.483057 -2.859,-5.346561 -5.4382,-7.270387 -3.1032,-2.3147 -9.5822,-2.19002 -13.0092,0.25036 -2.5975,1.84968 -4.8828,5.394596 -4.8828,7.574175 0,2.1487 1.2307,1.320246 2.2576,-1.519789 z m 9.1981,-2.001631 c 1.2974,0 3.0363,0.919134 4.4911,2.373806 1.3055,1.305605 2.5244,2.37382 2.7085,2.37382 1.0235,0 0.039,-2.000742 -1.9781,-4.017223 -3.023,-3.022883 -7.1814,-3.177237 -9.9877,-0.370732 -1.0681,1.068215 -1.942,2.53016 -1.942,3.248766 0,0.950083 0.6262,0.636072 2.2955,-1.150944 1.4618,-1.564866 3.0645,-2.457493 4.4127,-2.457493 z m 2.3911,3.956353 c -0.2689,-0.435197 -1.3371,-0.791273 -2.3739,-0.791273 -1.0365,0 -2.1047,0.356076 -2.3737,0.791273 -0.2916,0.471836 0.6667,0.791273 2.3737,0.791273 1.7072,0 2.6655,-0.319437 2.3739,-0.791273 z m -16.2204,-1.594177 c 0,-1.559981 -5.1332,-3.938797 -8.5056,-3.941767 -4.6945,-0.0042 -4.2134,1.296542 0.6524,1.764076 2.2083,0.212213 4.599,0.969665 5.3125,1.68322 1.4718,1.471798 2.5407,1.679848 2.5407,0.494471 z m -1.1543,-6.265901 c -0.2868,-0.46416 -1.4797,-0.82786 -2.6507,-0.80823 l -2.1291,0.0357 2.3735,1.03898 c 2.5705,1.12509 3.2217,1.05297 2.4063,-0.26644 z m 3.8536,-1.92779 c -0.6468,-1.68566 -4.3748,-3.66378 -6.905,-3.66378 -2.2105,0 -6.3148,2.93691 -5.637,4.03367 0.2522,0.40801 1.3719,0.0234 2.488,-0.85464 1.1162,-0.87806 2.4988,-1.59648 3.0724,-1.59648 2.0221,0 5.0489,1.84092 5.5326,3.36483 0.3028,0.95479 0.7707,1.26082 1.2279,0.80351 0.4063,-0.40623 0.5058,-1.34543 0.2211,-2.08711 z m 5.7935,-3.1239 c -0.4505,-1.37329 -4.5368,-1.69309 -4.5368,-0.35505 0,0.59466 0.4107,1.49184 0.9125,1.99371 1.1215,1.12165 4.0895,-0.22027 3.6243,-1.63866 z m -19.2015,-0.51008 c 2.1755,-2.4037 6.3186,-3.50101 9.2978,-2.4624 1.4908,0.51975 2.7867,0.58206 3.214,0.15457 1.1465,-1.14645 -4.5215,-2.62509 -7.7446,-2.02041 -2.8275,0.5305 -7.5097,3.74757 -7.5097,5.16006 0,1.19516 1.2517,0.81552 2.7425,-0.83182 z m -5.5119,-1.66744 c 0,-1.51066 -2.5589,-1.89606 -4.0995,-0.61747 -1.1172,0.92724 -1.0484,1.09778 0.6314,1.56475 2.4704,0.68664 3.4681,0.41411 3.4681,-0.94728 z m 3.5606,-16.95726 c 0,-11.18514 -0.2333,-14.63778 -0.9889,-14.63521 -0.7577,0.003 -0.9671,3.29034 -0.8945,14.04511 0.1083,16.04145 0.05,15.22867 1.0922,15.22867 0.499,0 0.7912,-5.40704 0.7912,-14.63857 z m -4.7476,-1.18691 c 0,-8.44026 -0.2948,-13.45166 -0.7912,-13.45166 -0.4966,0 -0.7914,5.0114 -0.7914,13.45166 0,8.44025 0.2948,13.45166 0.7914,13.45166 0.4964,0 0.7912,-5.01141 0.7912,-13.45166 z m 0,-17.40804 c 0,-0.4352 -0.356,-0.79127 -0.7912,-0.79127 -0.4352,0 -0.7914,0.35607 -0.7914,0.79127 0,0.43521 0.3562,0.79127 0.7914,0.79127 0.4352,0 0.7912,-0.35606 0.7912,-0.79127 z m 4.7476,0 c 0,-0.4352 -0.534,-0.79127 -1.1868,-0.79127 -0.6529,0 -1.1869,0.35607 -1.1869,0.79127 0,0.43521 0.534,0.79127 1.1869,0.79127 0.6528,0 1.1868,-0.35606 1.1868,-0.79127 z m 3.9565,0 c 0,-0.4352 -0.3561,-0.79127 -0.7914,-0.79127 -0.4351,0 -0.7912,0.35607 -0.7912,0.79127 0,0.43521 0.3561,0.79127 0.7912,0.79127 0.4353,0 0.7914,-0.35606 0.7914,-0.79127 z m 5.5385,-0.39563 c 0.8166,-0.98397 3.7418,-1.18692 17.1084,-1.18692 10.2221,0 16.1243,-0.28964 16.1243,-0.79127 0,-0.50224 -6.0342,-0.79127 -16.5198,-0.79127 -14.1248,0 -16.6703,-0.18212 -17.5618,-1.25648 -0.9346,-1.12618 -1.1105,-1.07327 -1.6964,0.51032 -0.6964,1.88299 -0.1453,4.70252 0.9193,4.70252 0.3527,0 1.0842,-0.5341 1.626,-1.1869 z m -9.9323,-4.4196 c -0.2548,-0.41223 -0.8005,-0.54105 -1.2128,-0.28628 -0.4122,0.25476 -0.541,0.8005 -0.2862,1.21273 0.2547,0.41223 0.8005,0.54105 1.2127,0.28628 0.4122,-0.25478 0.541,-0.8005 0.2863,-1.21273 z m -4.3103,0.0676 c 0,-0.4352 -0.356,-0.79127 -0.7912,-0.79127 -0.4352,0 -0.7914,0.35607 -0.7914,0.79127 0,0.4352 0.3562,0.79127 0.7914,0.79127 0.4352,0 0.7912,-0.35607 0.7912,-0.79127 z m 8.7041,0 c 0,-0.4352 -0.3561,-0.79127 -0.7914,-0.79127 -0.4351,0 -0.7912,0.35607 -0.7912,0.79127 0,0.4352 0.3561,0.79127 0.7912,0.79127 0.4353,0 0.7914,-0.35607 0.7914,-0.79127 z"
       inkscape:export-filename="pates_pink.svg"
       inkscape:export-xdpi="96"
       inkscape:export-ydpi="96" /></g></svg>
