<?xml version="1.0" encoding="UTF-8" standalone="no"?>
<!-- Created with Inkscape (http://www.inkscape.org/) -->

<svg
   width="52.916668mm"
   height="52.114487mm"
   viewBox="0 0 52.916668 52.114487"
   version="1.1"
   id="svg1"
   inkscape:version="1.3.2 (091e20ef0f, 2023-11-25, custom)"
   sodipodi:docname="pizza_pink.svg"
   xmlns:inkscape="http://www.inkscape.org/namespaces/inkscape"
   xmlns:sodipodi="http://sodipodi.sourceforge.net/DTD/sodipodi-0.dtd"
   xmlns="http://www.w3.org/2000/svg"
   xmlns:svg="http://www.w3.org/2000/svg">
  <sodipodi:namedview
     id="namedview1"
     pagecolor="#ffffff"
     bordercolor="#000000"
     borderopacity="0.25"
     inkscape:showpageshadow="2"
     inkscape:pageopacity="0.0"
     inkscape:pagecheckerboard="0"
     inkscape:deskcolor="#d1d1d1"
     inkscape:document-units="mm"
     inkscape:zoom="0.74118967"
     inkscape:cx="178.09207"
     inkscape:cy="178.09207"
     inkscape:window-width="1920"
     inkscape:window-height="1036"
     inkscape:window-x="0"
     inkscape:window-y="20"
     inkscape:window-maximized="1"
     inkscape:current-layer="layer1" />
  <defs
     id="defs1" />
  <g
     inkscape:label="Layer 1"
     inkscape:groupmode="layer"
     id="layer1"
     transform="translate(-57.837875,-101.33489)">
    <path
       id="path586"
       style="fill:#f7146f;fill-opacity:1;stroke-width:1.0253"
       d="m 79.156452,153.26719 c -6.984734,-0.80781 -13.744927,-5.20886 -17.812896,-11.59671 -4.108468,-6.45131 -4.673509,-16.40547 -1.336167,-23.53731 2.490344,-5.32164 6.087804,-9.00046 11.548741,-11.80971 4.071865,-2.0947 4.983149,-2.32977 9.843569,-2.53895 4.376583,-0.18837 6.042793,0.001 9.110277,1.03829 3.571827,1.2072 3.782423,1.21815 4.337929,0.22558 0.856841,-1.53126 3.153814,-3.71349 3.908535,-3.71349 1.41276,0 7.63928,6.72619 9.29647,10.04247 2.20152,4.40566 3.2748,9.32696 2.39325,10.97408 -0.61251,1.14457 -1.14864,1.19725 -12.185553,1.19725 H 86.715659 l -1.002843,1.69777 c -0.551609,0.93378 -1.002945,1.85448 -1.002945,2.04601 0,0.19152 4.834378,0.34823 10.743062,0.34823 8.812017,0 10.873167,0.15682 11.467127,0.87245 1.08774,1.31068 0.23469,6.52634 -1.75582,10.73533 -4.60451,9.73615 -14.927095,15.30024 -26.007788,14.01871 z m 9.685468,-2.5889 c 3.671897,-1.07541 4.563187,-1.71556 3.654364,-2.62444 -0.452361,-0.4523 -1.403734,-0.36936 -3.352516,0.29228 -3.436693,1.16678 -9.962709,1.18998 -13.202443,0.047 -3.172781,-1.11939 -3.636626,-1.10211 -3.399987,0.12668 0.257247,1.33571 5.659537,3.00657 9.870329,3.05277 1.790374,0.0197 4.683967,-0.38276 6.430253,-0.89423 z m -17.89133,-3.71136 c 0.186706,-0.3021 -0.971059,-1.77512 -2.572778,-3.27338 -3.377431,-3.15915 -5.708854,-7.45344 -6.246315,-11.50527 -0.292107,-2.20205 -0.592314,-2.80456 -1.322018,-2.65282 -0.683053,0.14209 -0.911592,0.76846 -0.826799,2.26652 0.219823,3.88493 2.460712,8.57584 5.841117,12.22701 3.112084,3.36143 4.406624,4.10327 5.126793,2.93794 z m 18.267819,-0.75143 1.877935,-0.79663 -3.826101,-6.69693 c -2.10432,-3.68331 -4.008604,-7.01959 -4.231811,-7.41395 -0.245046,-0.43306 -2.07797,2.17139 -4.628294,6.57637 -2.3224,4.01136 -4.222583,7.417 -4.222583,7.56807 0,0.15107 1.249529,0.67577 2.776709,1.16599 3.21041,1.03049 9.351119,0.82859 12.254145,-0.40292 z m -5.677684,-0.96139 c 0,-0.81934 0.563093,-1.22085 2.122159,-1.51334 4.14138,-0.77692 3.678459,1.24194 -0.514596,2.24428 -1.326222,0.31704 -1.607563,0.18911 -1.607563,-0.73094 z m -3.850503,-3.8714 c -1.130903,-1.72594 -0.82762,-2.80865 1.149358,-4.10402 1.805753,-1.18322 3.675997,-0.38572 4.224941,1.80163 0.812958,3.23895 -3.539018,5.10335 -5.374299,2.30239 z m 3.517281,-2.11676 c -0.498089,-0.80598 -2.005071,-0.60976 -2.005071,0.26109 0,0.42869 0.17307,0.95252 0.384692,1.16407 0.528643,0.52866 2.018194,-0.78146 1.620379,-1.42516 z m 15.261854,5.82928 c 4.570873,-4.21323 8.765883,-15.02554 6.040643,-15.56927 -0.72479,-0.14462 -1.04642,0.43788 -1.34642,2.43882 -0.58975,3.9327 -3.55276,9.35411 -6.558418,11.99975 -1.454589,1.28042 -2.474657,2.60335 -2.266624,2.93986 0.641016,1.03717 1.40681,0.70179 4.130819,-1.80916 z m -21.834623,-8.1458 c 2.163787,-3.67298 3.94524,-6.87543 3.958672,-7.11657 0.01333,-0.24114 -3.801802,-0.43843 -8.478387,-0.43843 h -8.502788 l 0.385717,2.19215 c 0.212031,1.20568 0.858173,3.2906 1.435826,4.63314 1.191703,2.77002 5.692449,7.93264 6.640131,7.61674 0.344602,-0.11488 2.397042,-3.21404 4.560829,-6.88703 z m -7.32544,0.72914 c -1.34724,-1.48864 -1.206672,-3.37368 0.331786,-4.45126 1.54502,-1.0822 2.186754,-1.11178 3.438436,-0.15846 1.642936,1.25135 1.878139,3.15496 0.553353,4.47971 -1.484322,1.48431 -3.05518,1.53154 -4.323575,0.13001 z m 3.124593,-2.14612 c 0,-0.48228 -0.394637,-0.87686 -0.876937,-0.87686 -0.482197,0 -0.876834,0.39458 -0.876834,0.87686 0,0.48227 0.394637,0.87686 0.876834,0.87686 0.4823,0 0.876937,-0.39459 0.876937,-0.87686 z m 1.169146,-3.19659 c -1.168223,-0.89891 -1.315149,-1.27137 -0.73237,-1.85605 0.583497,-0.58536 1.043138,-0.49699 2.301485,0.44244 0.864735,0.64565 1.676565,1.48672 1.80401,1.86904 0.359776,1.07935 -1.748644,0.79468 -3.373125,-0.45543 z m 22.353013,9.48076 c 2.548581,-2.62265 5.108234,-7.88708 5.116234,-10.52232 l 0.0102,-1.89987 h -8.184022 c -4.501156,0 -8.184023,0.16296 -8.184023,0.36212 0,0.90614 7.960303,14.24279 8.503813,14.24722 0.336708,0.003 1.570755,-0.98147 2.742362,-2.18715 z m -3.263828,-2.38433 c -1.269215,-1.40247 -1.227895,-3.19067 0.101505,-4.39382 1.389482,-1.25744 2.608766,-1.22493 3.809183,0.10161 1.269216,1.40247 1.227896,3.19067 -0.101504,4.39382 -1.389483,1.25744 -2.608766,1.22493 -3.809286,-0.10161 z m 2.717038,-2.13811 c 0.06357,-0.31711 -0.345115,-0.66522 -0.907798,-0.77359 -0.639786,-0.12322 -1.022939,0.1635 -1.022939,0.76558 0,1.01704 1.727523,1.0242 1.930737,0.008 z m -3.578185,-5.38917 c 0.142517,-0.74007 0.761591,-0.98535 2.403194,-0.9522 1.216207,0.0246 2.359209,0.19259 2.539968,0.37339 0.7822,0.78212 -0.622252,1.57567 -2.7885,1.57567 -1.896799,0 -2.309892,-0.1911 -2.154662,-0.99686 z m -29.72131,-6.8703 c 0.539203,-3.93345 2.634911,-7.87 5.97984,-11.2322 1.818672,-1.82809 2.839252,-3.29653 2.581288,-3.71393 -0.988694,-1.59978 -6.469112,3.74944 -8.696775,8.48866 -1.418704,3.0181 -2.57206,7.72908 -2.085147,8.51692 0.839206,1.35777 1.885419,0.38754 2.220794,-2.05945 z m 18.508149,2.34527 c 0,-0.41921 -7.617342,-13.4214 -8.221139,-14.03298 -0.832336,-0.84293 -5.058713,3.59216 -6.657766,6.98653 -0.757285,1.60759 -1.517235,3.90934 -1.688562,5.11502 l -0.31169,2.19215 h 8.439527 c 4.641828,0 8.43963,-0.11732 8.43963,-0.26072 z m -5.115104,-1.9309 c -1.799294,-0.89345 -2.347828,-1.84206 -1.535177,-2.65477 0.567604,-0.56761 5.000578,1.90361 4.752046,2.6491 -0.342756,1.02845 -1.154074,1.02988 -3.216869,0.006 z m -7.947283,-1.21571 c -1.214977,-1.34257 -1.231894,-2.67504 -0.04921,-3.85808 1.231895,-1.23189 3.356925,-1.16156 4.544219,0.15041 1.257425,1.38946 1.224923,2.60878 -0.101504,3.80925 -1.402401,1.26922 -3.190622,1.22788 -4.393808,-0.10161 z m 2.666696,-2.54558 c -0.892932,-0.89294 -1.55189,-0.23405 -1.056569,1.05657 0.292415,0.76205 0.545971,0.83756 1.066001,0.31751 0.520031,-0.52005 0.517775,-0.84685 -0.01025,-1.37408 z m 17.203869,-3.5852 3.671178,-6.32297 -1.878446,-0.78243 c -3.449715,-1.43696 -7.04133,-1.64591 -10.973755,-0.63847 -2.036342,0.52169 -3.80621,1.05236 -3.933142,1.17928 -0.126931,0.12693 1.401684,3.06474 3.397015,6.52847 5.303451,9.2065 4.822279,8.56032 5.485646,7.36712 0.308205,-0.55442 2.212386,-3.85338 4.231504,-7.331 z m -6.691294,0.65259 c -0.385819,-0.38581 -0.701508,-1.38543 -0.701508,-2.22138 0,-1.93187 0.991052,-2.92286 2.922917,-2.92286 1.931864,0 2.922814,0.99099 2.922814,2.92286 0,1.93188 -0.99095,2.92288 -2.922814,2.92288 -0.835925,0 -1.83559,-0.31568 -2.221409,-0.7015 z m 3.129719,-1.68774 c 0.602362,-0.97473 -0.752465,-2.09249 -1.558861,-1.28606 -0.674543,0.67455 -0.252428,1.92157 0.650551,1.92157 0.283494,0 0.69228,-0.28598 0.90831,-0.63551 z m -6.94895,-2.67707 c -0.214287,-0.21435 -0.389716,-0.60359 -0.389716,-0.86499 0,-0.6655 4.451327,-2.86777 4.896511,-2.42256 0.832747,0.83273 0.243816,1.76461 -1.701172,2.69214 -2.366078,1.12828 -2.289079,1.11195 -2.805623,0.59541 z m 27.669797,6.34155 c 0,-3.14851 -1.93894,-7.26517 -4.935066,-10.47799 -1.726292,-1.85107 -3.27203,-3.23407 -3.43495,-3.07331 -0.16292,0.16076 -2.146664,3.51475 -4.408265,7.45332 l -4.111953,7.16103 h 8.445166 c 7.774418,0 8.445068,-0.0844 8.445068,-1.06305 z m -10.191354,-0.88241 c -1.375231,-1.00561 -1.375231,-3.87209 0,-4.8777 1.465047,-1.07127 2.81885,-0.97127 3.962773,0.29273 1.347241,1.48864 1.206673,3.37369 -0.331786,4.45127 -1.587672,1.11204 -2.259242,1.13677 -3.630987,0.1337 z m 2.591951,-2.43884 c 0,-0.48228 -0.394636,-0.87687 -0.876834,-0.87687 -0.482299,0 -0.876936,0.39459 -0.876936,0.87687 0,0.48226 0.394637,0.87685 0.876936,0.87685 0.482198,0 0.876834,-0.39459 0.876834,-0.87685 z m 0.941941,-5.48548 c -0.975365,-1.01807 -1.37964,-1.84349 -1.013711,-2.06966 0.741904,-0.45847 2.850838,0.78378 3.294793,1.94071 0.65157,1.69805 -0.704278,1.7747 -2.281082,0.12895 z m 10.749522,8.22019 c 0,-4.3094 -4.12969,-12.10163 -7.96307,-15.02551 -1.534257,-1.17023 -2.244378,-1.4108 -2.730266,-0.92492 -0.485888,0.48588 0.119652,1.45377 2.327836,3.72104 3.38819,3.47872 5.16319,6.67285 6.07765,10.9368 0.69895,3.25918 2.28785,4.15687 2.28785,1.29259 z m -27.182676,-12.2505 c 3.6923,-0.19682 5.315038,-0.005 7.709824,0.9099 2.681869,1.02494 3.073533,1.0542 3.381122,0.25269 1.300487,-3.38907 -14.631091,-4.49282 -19.506276,-1.35143 -0.456975,0.29445 -0.654447,0.94645 -0.448978,1.48204 0.337938,0.88076 0.517878,0.87731 2.27739,-0.0438 1.158278,-0.60641 3.751254,-1.09824 6.586918,-1.24939 z" />
  </g>
</svg>
