<?xml version="1.0" encoding="UTF-8" standalone="no"?>
<!-- Created with Inkscape (http://www.inkscape.org/) -->

<svg
   width="52.916668mm"
   height="52.114487mm"
   viewBox="0 0 52.916668 52.114487"
   version="1.1"
   id="svg1"
   inkscape:version="1.3.2 (091e20ef0f, 2023-11-25, custom)"
   sodipodi:docname="pizza.svg"
   xmlns:inkscape="http://www.inkscape.org/namespaces/inkscape"
   xmlns:sodipodi="http://sodipodi.sourceforge.net/DTD/sodipodi-0.dtd"
   xmlns="http://www.w3.org/2000/svg"
   xmlns:svg="http://www.w3.org/2000/svg">
  <sodipodi:namedview
     id="namedview1"
     pagecolor="#ffffff"
     bordercolor="#000000"
     borderopacity="0.25"
     inkscape:showpageshadow="2"
     inkscape:pageopacity="0.0"
     inkscape:pagecheckerboard="0"
     inkscape:deskcolor="#d1d1d1"
     inkscape:document-units="mm"
     inkscape:zoom="0.74118967"
     inkscape:cx="183.48879"
     inkscape:cy="182.13961"
     inkscape:window-width="1920"
     inkscape:window-height="1036"
     inkscape:window-x="0"
     inkscape:window-y="20"
     inkscape:window-maximized="1"
     inkscape:current-layer="layer1" />
  <defs
     id="defs1" />
  <g
     inkscape:label="Layer 1"
     inkscape:groupmode="layer"
     id="layer1"
     transform="translate(-56.356265,-100.27708)">
    <path
       id="path230"
       style="fill:#6d6d6d;fill-opacity:1;stroke-width:1.0253"
       d="m 77.67484,152.20938 c -6.984733,-0.80781 -13.744926,-5.20886 -17.812895,-11.59672 -4.108467,-6.4513 -4.673509,-16.40547 -1.336167,-23.5373 2.490344,-5.32164 6.087804,-9.00046 11.548741,-11.80971 4.071864,-2.0947 4.983148,-2.32977 9.843569,-2.53895 4.376583,-0.18837 6.042793,0.001 9.110277,1.03829 3.571827,1.2072 3.782423,1.21815 4.337929,0.22558 0.85684,-1.53126 3.153813,-3.71349 3.908534,-3.71349 1.412757,0 7.639282,6.72619 9.296472,10.04247 2.20152,4.40566 3.2748,9.32696 2.39325,10.97408 -0.61252,1.14457 -1.14864,1.19725 -12.185555,1.19725 H 85.234048 l -1.002843,1.69777 c -0.55161,0.93378 -1.002946,1.85448 -1.002946,2.04601 0,0.19152 4.834378,0.34823 10.743062,0.34823 8.812019,0 10.873169,0.15682 11.467129,0.87245 1.08774,1.31068 0.23469,6.52634 -1.75582,10.73533 -4.604509,9.73615 -14.927097,15.30024 -26.00779,14.01871 z m 9.685469,-2.5889 c 3.671896,-1.07541 4.563187,-1.71556 3.654363,-2.62444 -0.452361,-0.4523 -1.403734,-0.36936 -3.352516,0.29228 -3.436693,1.16678 -9.962708,1.18998 -13.202442,0.047 -3.172782,-1.11939 -3.636626,-1.10211 -3.399987,0.12668 0.257247,1.33571 5.659537,3.00657 9.870329,3.05277 1.790374,0.0197 4.683967,-0.38276 6.430253,-0.89423 z m -17.891331,-3.71136 c 0.186707,-0.3021 -0.971059,-1.77512 -2.572778,-3.27338 -3.37743,-3.15916 -5.708853,-7.45344 -6.246314,-11.50527 -0.292107,-2.20205 -0.592314,-2.80456 -1.322018,-2.65282 -0.683053,0.14208 -0.911592,0.76846 -0.8268,2.26652 0.219824,3.88493 2.460713,8.57584 5.841118,12.22701 3.112084,3.36143 4.406624,4.10327 5.126792,2.93794 z m 18.26782,-0.75143 1.877934,-0.79663 -3.826101,-6.69693 c -2.10432,-3.68331 -4.008604,-7.01959 -4.231811,-7.41395 -0.245046,-0.43306 -2.077969,2.17139 -4.628293,6.57637 -2.322401,4.01136 -4.222583,7.417 -4.222583,7.56807 0,0.15107 1.249529,0.67577 2.776709,1.16598 3.21041,1.0305 9.351119,0.8286 12.254145,-0.40291 z m -5.677685,-0.96139 c 0,-0.81934 0.563093,-1.22085 2.12216,-1.51335 4.14138,-0.77691 3.678458,1.24195 -0.514597,2.24429 -1.326221,0.31704 -1.607563,0.18911 -1.607563,-0.73094 z m -3.850503,-3.87141 c -1.130903,-1.72593 -0.82762,-2.80864 1.149358,-4.10401 1.805753,-1.18322 3.675997,-0.38572 4.224942,1.80163 0.812958,3.23895 -3.539018,5.10335 -5.3743,2.30238 z m 3.517282,-2.11675 c -0.49809,-0.80598 -2.005071,-0.60976 -2.005071,0.26109 0,0.42869 0.17307,0.95252 0.384691,1.16407 0.528643,0.52865 2.018195,-0.78146 1.62038,-1.42516 z m 15.261853,5.82928 c 4.570875,-4.21323 8.765875,-15.02554 6.040645,-15.56928 -0.72479,-0.14461 -1.04642,0.43789 -1.34642,2.43883 -0.58976,3.9327 -3.552762,9.35411 -6.55842,11.99975 -1.454589,1.28042 -2.474657,2.60335 -2.266624,2.93986 0.641016,1.03717 1.40681,0.70179 4.130819,-1.80916 z m -21.834623,-8.1458 c 2.163787,-3.67298 3.945241,-6.87543 3.958672,-7.11657 0.01333,-0.24114 -3.801801,-0.43843 -8.478386,-0.43843 H 62.13062 l 0.385717,2.19215 c 0.212031,1.20568 0.858173,3.29059 1.435826,4.63314 1.191702,2.77002 5.692449,7.93264 6.640131,7.61674 0.344602,-0.11488 2.397042,-3.21404 4.560828,-6.88703 z m -7.325439,0.72914 c -1.34724,-1.48864 -1.206672,-3.37369 0.331786,-4.45126 1.54502,-1.0822 2.186753,-1.11178 3.438436,-0.15846 1.642936,1.25135 1.878139,3.15496 0.553353,4.47971 -1.484323,1.48431 -3.05518,1.53154 -4.323575,0.13001 z m 3.124592,-2.14612 c 0,-0.48228 -0.394636,-0.87686 -0.876936,-0.87686 -0.482197,0 -0.876834,0.39458 -0.876834,0.87686 0,0.48227 0.394637,0.87686 0.876834,0.87686 0.4823,0 0.876936,-0.39459 0.876936,-0.87686 z m 1.169147,-3.19659 c -1.168224,-0.89891 -1.315149,-1.27138 -0.73237,-1.85605 0.583497,-0.58536 1.043137,-0.49699 2.301484,0.44244 0.864736,0.64565 1.676566,1.48672 1.80401,1.86904 0.359777,1.07935 -1.748644,0.79468 -3.373124,-0.45543 z m 22.353013,9.48076 c 2.548581,-2.62265 5.108235,-7.88708 5.116232,-10.52233 l 0.01025,-1.89986 h -8.184024 c -4.501156,0 -8.184023,0.16296 -8.184023,0.36212 0,0.90614 7.960304,14.24278 8.503814,14.24722 0.336707,0.003 1.570755,-0.98147 2.742362,-2.18715 z m -3.263828,-2.38433 c -1.269215,-1.40247 -1.227896,-3.19067 0.101504,-4.39382 1.389483,-1.25744 2.608766,-1.22493 3.809184,0.10161 1.269215,1.40247 1.227895,3.19067 -0.101505,4.39382 -1.389482,1.25744 -2.608766,1.22493 -3.809286,-0.10161 z m 2.717037,-2.13811 c 0.06357,-0.31712 -0.345115,-0.66522 -0.907798,-0.77359 -0.639786,-0.12322 -1.022939,0.1635 -1.022939,0.76558 0,1.01703 1.727523,1.0242 1.930737,0.008 z M 90.34946,130.8472 c 0.142516,-0.74007 0.76159,-0.98535 2.403193,-0.9522 1.216208,0.0246 2.359209,0.19259 2.539969,0.37339 0.782199,0.78212 -0.622253,1.57567 -2.788501,1.57567 -1.896799,0 -2.309891,-0.1911 -2.154661,-0.99686 z m -29.72131,-6.8703 c 0.539203,-3.93345 2.63491,-7.87 5.979839,-11.2322 1.818672,-1.82809 2.839253,-3.29653 2.581288,-3.71393 -0.988694,-1.59978 -6.469111,3.74944 -8.696774,8.48866 -1.418704,3.0181 -2.57206,7.72908 -2.085147,8.51692 0.839206,1.35777 1.885419,0.38754 2.220794,-2.05945 z m 18.508149,2.34527 c 0,-0.41921 -7.617342,-13.4214 -8.221139,-14.03298 -0.832336,-0.84293 -5.058713,3.59216 -6.657766,6.98653 -0.757285,1.60758 -1.517235,3.90934 -1.688562,5.11502 l -0.31169,2.19215 h 8.439527 c 4.641827,0 8.43963,-0.11732 8.43963,-0.26072 z m -5.115104,-1.9309 c -1.799294,-0.89345 -2.347828,-1.84206 -1.535178,-2.65477 0.567605,-0.56761 5.000579,1.90361 4.752047,2.6491 -0.342757,1.02845 -1.154074,1.02988 -3.216869,0.006 z m -7.947283,-1.21571 c -1.214977,-1.34257 -1.231894,-2.67504 -0.04921,-3.85808 1.231894,-1.23189 3.356925,-1.16156 4.544219,0.15041 1.257424,1.38946 1.224922,2.60878 -0.101504,3.80925 -1.402402,1.26922 -3.190622,1.22788 -4.393808,-0.10161 z m 2.666695,-2.54558 c -0.892931,-0.89294 -1.551889,-0.23405 -1.056568,1.05657 0.292414,0.76204 0.54597,0.83756 1.066001,0.31751 0.520031,-0.52005 0.517775,-0.84685 -0.01025,-1.37408 z m 17.203869,-3.5852 3.671179,-6.32297 -1.878447,-0.78243 c -3.449714,-1.43696 -7.04133,-1.64591 -10.973754,-0.63847 -2.036342,0.52169 -3.80621,1.05236 -3.933142,1.17928 -0.126932,0.12693 1.401684,3.06474 3.397014,6.52847 5.303452,9.2065 4.82228,8.56032 5.485647,7.36712 0.308204,-0.55443 2.212386,-3.85338 4.231503,-7.331 z m -6.691293,0.65259 c -0.38582,-0.38581 -0.701509,-1.38543 -0.701509,-2.22138 0,-1.93187 0.991053,-2.92286 2.922917,-2.92286 1.931865,0 2.922814,0.99099 2.922814,2.92286 0,1.93188 -0.990949,2.92288 -2.922814,2.92288 -0.835924,0 -1.835589,-0.31568 -2.221408,-0.7015 z m 3.129719,-1.68774 c 0.602362,-0.97473 -0.752466,-2.09249 -1.558862,-1.28606 -0.674543,0.67455 -0.252428,1.92157 0.650551,1.92157 0.283495,0 0.692281,-0.28598 0.908311,-0.63551 z m -6.948951,-2.67707 c -0.214287,-0.21435 -0.389715,-0.60359 -0.389715,-0.86499 0,-0.6655 4.451327,-2.86777 4.896511,-2.42256 0.832746,0.83273 0.243816,1.76461 -1.701173,2.69214 -2.366078,1.12828 -2.289078,1.11195 -2.805623,0.59541 z m 27.669789,6.34155 c 0,-3.14851 -1.93893,-7.26517 -4.935058,-10.47799 -1.726292,-1.85107 -3.27203,-3.23407 -3.43495,-3.07331 -0.162919,0.16076 -2.146664,3.51475 -4.408264,7.45332 l -4.111954,7.16103 h 8.445167 c 7.774419,0 8.445059,-0.0844 8.445059,-1.06305 z M 92.912395,118.7917 c -1.375231,-1.00561 -1.375231,-3.87209 0,-4.8777 1.465047,-1.07127 2.818849,-0.97127 3.962773,0.29273 1.34724,1.48864 1.206672,3.37369 -0.331786,4.45127 -1.587673,1.11204 -2.259242,1.13677 -3.630987,0.1337 z m 2.591951,-2.43884 c 0,-0.48228 -0.394637,-0.87687 -0.876834,-0.87687 -0.4823,0 -0.876937,0.39459 -0.876937,0.87687 0,0.48226 0.394637,0.87685 0.876937,0.87685 0.482197,0 0.876834,-0.39459 0.876834,-0.87685 z m 0.94194,-5.48548 c -0.975365,-1.01807 -1.37964,-1.84349 -1.013711,-2.06966 0.741905,-0.45847 2.850838,0.78378 3.294792,1.94071 0.651576,1.69805 -0.704277,1.7747 -2.281081,0.12895 z m 10.749524,8.22019 c 0,-4.3094 -4.12969,-12.10163 -7.963074,-15.02551 -1.534255,-1.17023 -2.244376,-1.4108 -2.730264,-0.92492 -0.485888,0.48588 0.119652,1.45377 2.327835,3.72104 3.388193,3.47872 5.163193,6.67285 6.077653,10.9368 0.69894,3.25918 2.28785,4.15687 2.28785,1.29259 z m -27.182677,-12.2505 c 3.6923,-0.19682 5.315037,-0.005 7.709823,0.9099 2.68187,1.02494 3.073533,1.0542 3.381122,0.25269 1.300487,-3.38907 -14.631091,-4.49282 -19.506275,-1.35143 -0.456975,0.29445 -0.654448,0.94645 -0.448978,1.48204 0.337938,0.88076 0.517877,0.87731 2.27739,-0.0438 1.158278,-0.60641 3.751254,-1.09824 6.586918,-1.24939 z" />
  </g>
</svg>
