<?xml version="1.0" encoding="UTF-8" standalone="no"?>
<!-- Created with Inkscape (http://www.inkscape.org/) -->

<svg
   width="94.818886mm"
   height="93.500237mm"
   viewBox="0 0 94.818886 93.500237"
   version="1.1"
   id="svg1"
   xml:space="preserve"
   inkscape:version="1.3.2 (091e20ef0f, 2023-11-25, custom)"
   sodipodi:docname="IconsWild.svg"
   xmlns:inkscape="http://www.inkscape.org/namespaces/inkscape"
   xmlns:sodipodi="http://sodipodi.sourceforge.net/DTD/sodipodi-0.dtd"
   xmlns="http://www.w3.org/2000/svg"
   xmlns:svg="http://www.w3.org/2000/svg"><sodipodi:namedview
     id="namedview1"
     pagecolor="#ffffff"
     bordercolor="#000000"
     borderopacity="0.25"
     inkscape:showpageshadow="2"
     inkscape:pageopacity="0.0"
     inkscape:pagecheckerboard="0"
     inkscape:deskcolor="#d1d1d1"
     inkscape:document-units="mm"
     inkscape:zoom="0.16968249"
     inkscape:cx="4249.1125"
     inkscape:cy="813.28366"
     inkscape:window-width="1920"
     inkscape:window-height="1036"
     inkscape:window-x="0"
     inkscape:window-y="20"
     inkscape:window-maximized="1"
     inkscape:current-layer="layer1"
     showguides="true" /><defs
     id="defs1" /><g
     inkscape:label="Layer 1"
     inkscape:groupmode="layer"
     id="layer1"
     transform="translate(-1416.4261,325.0862)"><path
       id="path594"
       style="fill:#f7146f;fill-opacity:1;stroke-width:1.83293"
       d="m 1449.3651,-233.43416 c -11.4331,-3.95348 -22.6671,-13.38594 -27.7242,-23.27805 -12.1128,-23.69447 -2.4052,-52.72567 21.6701,-64.80516 6.9598,-3.49206 7.3938,-3.56884 20.176,-3.56884 12.5466,0 13.3441,0.13307 20.171,3.36675 13.9976,6.62998 24.1244,20.13118 26.9471,35.92618 3.9218,21.94493 -10.5978,45.47319 -32.1749,52.13764 -8.646,2.67048 -21.6952,2.76992 -29.0651,0.22148 z m 25.1365,-2.86719 c 12.8603,-3.32795 23.0889,-11.94353 29.1043,-24.51436 2.9996,-6.26854 3.2505,-7.63974 3.2505,-17.76584 0,-10.16646 -0.2447,-11.48946 -3.3284,-17.99921 -12.016,-25.36528 -42.8372,-33.6853 -65.2721,-17.61998 -13.3207,9.53868 -20.4764,26.55025 -17.7355,42.16326 4.5288,25.79853 29.2194,42.14396 53.9812,35.73613 z m -4.2548,-11.03219 c -0.5759,-1.81484 -1.2647,-2.08616 -3.9893,-1.57141 -10.4194,1.96842 -11.0796,1.97953 -11.7634,0.19783 -0.3687,-0.96094 -2.3759,-2.62189 -4.4605,-3.69102 -2.0844,-1.06913 -4.9656,-3.21 -6.4026,-4.75749 -1.437,-1.54749 -3.8979,-3.48232 -5.4688,-4.29959 -1.571,-0.81728 -3.6134,-2.95034 -4.539,-4.74015 -1.4211,-2.74808 -1.4875,-3.95214 -0.4262,-7.74209 1.0692,-3.81903 1.0059,-4.84571 -0.4251,-6.88863 -2.0869,-2.97943 -2.1883,-7.78786 -0.1814,-8.55832 0.8468,-0.32498 1.6439,-2.30926 1.8289,-4.55326 0.292,-3.54306 0.6663,-4.01576 3.4278,-4.32976 1.705,-0.19387 4.8378,-1.72891 6.9618,-3.41122 6.3185,-5.00438 10.9448,-6.40332 22.603,-6.83477 15.3274,-0.56728 20.3067,1.75637 24.9508,11.64353 2.9357,6.25038 3.2016,13.61386 0.8228,22.79388 -2.0886,8.05994 -3.5885,10.93237 -9.0809,17.3904 -2.4314,2.85862 -5.5143,6.62584 -6.8513,8.37156 -2.8209,3.68328 -6.008,4.12925 -7.0075,0.98051 z m 5.3964,-3.84979 c 0.64,-1.02472 1.4958,-3.37608 1.902,-5.22523 0.6753,-3.07455 0.5187,-3.3621 -1.8304,-3.3621 -3.3462,0 -5.6927,4.9501 -3.9182,8.26556 1.4304,2.67279 2.3313,2.74814 3.8466,0.32177 z m -9.3216,-4.1763 3.6439,-3.64393 -2.978,-2.40847 -2.9781,-2.40848 -2.3075,2.28618 c -1.2691,1.25741 -2.6178,4.25531 -2.9969,6.66199 -0.6536,4.14866 -0.5685,4.34416 1.6416,3.76622 1.282,-0.33526 3.9709,-2.24934 5.975,-4.25351 z m -11.195,-0.75337 c 0,-0.86216 -0.836,-1.56756 -1.8577,-1.56756 -1.0217,0 -2.9147,-0.74057 -4.2071,-1.6457 -1.2922,-0.90513 -2.8618,-1.47493 -3.4879,-1.26623 -1.2884,0.42945 6.2327,5.88742 8.2464,5.98425 0.7185,0.0345 1.3063,-0.64259 1.3063,-1.50476 z m 3.583,-7.38999 c 1.7241,-1.72415 2.1451,-5.39456 0.8424,-7.3455 -1.1888,-1.78028 -5.3963,-3.72211 -6.5371,-3.01699 -0.5629,0.34789 -1.0235,2.15668 -1.0235,4.01951 0,1.86285 -0.5233,3.91035 -1.163,4.54999 -0.6397,0.63965 -0.847,1.67425 -0.4608,2.29912 1.0497,1.69847 6.466,1.36986 8.342,-0.50613 z m 20.1238,-0.51749 c 12.6648,-4.79857 16.7701,-25.82093 7.1024,-36.37018 -3.4054,-3.716 -3.6396,-3.79458 -11.3114,-3.79458 -6.8528,0 -8.1717,0.31735 -10.5307,2.53354 -3.895,3.6591 -3.6503,8.81832 0.6996,14.74724 3.2635,4.44847 3.3856,4.96822 3.1209,13.29746 -0.2588,8.15228 -0.1338,8.72458 2.0901,9.61837 3.217,1.29246 5.3542,1.28476 8.8291,-0.0319 z m -6.293,-1.6758 c -0.3853,-0.38519 0.046,-1.84061 0.9599,-3.23427 1.5507,-2.36666 1.5164,-2.687 -0.5189,-4.8535 -2.7355,-2.91178 -2.7615,-4.40144 -0.09,-5.1003 2.216,-0.5795 2.8293,-3.29719 0.9993,-4.42821 -0.5999,-0.37078 -1.7756,-0.10576 -2.6127,0.58882 -1.5946,1.32339 -1.7468,1.07327 -1.931,-3.17314 -0.092,-2.10896 -0.5805,-2.54725 -2.5366,-2.27346 -2.1691,0.30355 -2.3885,-0.0255 -2.0901,-3.13516 0.2462,-2.56762 0.79,-3.39889 2.0834,-3.18531 2.5754,0.42527 3.4055,-1.71402 1.4874,-3.83353 -3.3713,-3.72524 -1.0618,-5.95845 2.6696,-2.58152 1.403,1.26961 2.2472,1.4166 3.2685,0.56899 1.5721,-1.30481 5.2697,-1.07468 9.1785,0.57124 3.3291,1.40179 6.0351,8.9418 4.0623,11.31897 -0.6747,0.81296 -0.9376,2.23195 -0.584,3.15331 0.9654,2.5159 -0.2423,3.7394 -2.499,2.53161 -2.287,-1.22389 -3.6782,0.21266 -2.693,2.78036 0.5155,1.34292 0.9136,1.39794 2.2271,0.30777 2.3096,-1.91685 3.7109,0.005 2.7158,3.72571 -0.5566,2.08176 -1.4955,3.10741 -2.8465,3.11011 -1.4294,0.004 -2.1136,0.85416 -2.3513,2.92485 -0.2597,2.26426 -0.7552,2.78752 -2.2038,2.32777 -1.0403,-0.33019 -2.4539,0.11217 -3.1891,0.99808 -1.4357,1.7298 -2.4182,1.97939 -3.5067,0.89081 z m 7.201,-9.84117 c 1.2178,-1.97033 -1.3188,-3.55318 -3.1966,-1.99475 -1.3221,1.09731 -1.3846,1.55435 -0.3056,2.23882 1.8324,1.16227 2.6692,1.10396 3.5022,-0.24407 z m -0.2646,-9.67041 c 0.2956,-0.77061 0.1301,-2.05991 -0.3674,-2.86516 -1.2194,-1.97317 -3.6129,0.3303 -2.7308,2.62841 0.77,2.00687 2.3718,2.12927 3.0982,0.23675 z m -4.9605,-4.96027 c 0.8967,-1.45103 -1.0912,-3.49676 -2.5322,-2.60605 -1.2002,0.74175 -0.4318,3.74216 0.9584,3.74216 0.4793,0 1.1876,-0.51127 1.5738,-1.13611 z m 10.2202,-0.35506 c 0.7341,-1.9134 -1.9394,-4.34231 -2.9609,-2.68974 -0.8611,1.3934 0.088,4.18091 1.4226,4.18091 0.5313,0 1.2236,-0.67104 1.5383,-1.49117 z m -5.3171,-5.04039 c 0.5986,-1.62793 -0.1485,-3.91894 -1.277,-3.91894 -1.1505,0 -2.262,3.09678 -1.534,4.27452 0.8367,1.35391 2.2481,1.1754 2.811,-0.35558 z m -33.3167,29.44677 c 3.1444,-2.47338 3.4591,-4.72213 1.1267,-8.05201 -1.9319,-2.7582 -6.8339,-3.11795 -9.2715,-0.6804 -3.6533,3.65329 -0.8227,10.10086 4.7484,10.81585 0.3535,0.0455 1.8818,-0.89216 3.3964,-2.08344 z m 18.3467,-10.11338 c -0.077,-4.57295 -0.1649,-4.73758 -1.1322,-2.09009 -0.5771,1.58063 -1.5535,2.87389 -2.1694,2.87389 -0.6161,0 -0.2687,0.94053 0.7715,2.0901 1.0403,1.14954 2.0538,2.09009 2.2521,2.09009 0.1983,0 0.3235,-2.2338 0.278,-4.96399 z m -12.9806,-1.30631 c 0.3552,-0.57477 -0.1155,-1.04505 -1.045,-1.04505 -0.93,0 -1.4003,0.47028 -1.0451,1.04505 0.3552,0.57479 0.8256,1.04506 1.0451,1.04506 0.2196,0 0.6898,-0.47027 1.045,-1.04506 z m -11.4954,-3.13515 c 0.3552,-0.57477 0.1759,-1.04504 -0.3993,-1.04504 -0.5748,0 -1.3356,0.47027 -1.6908,1.04504 -0.3553,0.57479 -0.176,1.04505 0.3992,1.04505 0.5746,0 1.3356,-0.47026 1.6909,-1.04505 z m 20.3783,0.042 c 0,-1.43704 -7.3124,-3.42922 -10.9919,-2.99458 -2.6678,0.31518 -2.2142,0.61431 3.1541,2.07919 7.807,2.1304 7.8378,2.134 7.8378,0.91539 z m -7.5047,-9.4014 c 0.27,-0.81034 -0.1247,-1.1302 -0.9863,-0.79811 -0.7902,0.3048 -4.8463,1.3901 -9.0135,2.41179 -4.1672,1.0217 -7.5766,2.40051 -7.5766,3.06403 0,1.64863 16.9733,-2.86858 17.5764,-4.67771 z m 7.2654,2.89322 c -0.646,-1.93776 -2.8957,-2.25915 -2.8957,-0.41368 0,0.91007 0.7445,1.65467 1.6546,1.65467 0.91,0 1.4685,-0.55844 1.2411,-1.24099 z m -13.3462,-6.07435 c 1.9939,-0.63857 1.1896,-0.86138 -3.3964,-0.94088 -3.3788,-0.0587 -6.0091,0.35326 -6.0091,0.94088 0,1.21526 5.6108,1.21526 9.4055,0 z m 11.4954,-6.44927 c 0,-0.67322 0.7783,-2.08402 1.7296,-3.13514 0.9513,-1.05113 1.304,-1.90851 0.7838,-1.9053 -2.3847,0.0147 -8.5538,2.26745 -11.3963,4.16153 l -3.1351,2.08916 6.009,0.007 c 3.899,0.004 6.009,-0.42293 6.009,-1.21714 z" /></g></svg>
