<?xml version="1.0" encoding="UTF-8" standalone="no"?>
<!-- Created with Inkscape (http://www.inkscape.org/) -->

<svg
   width="94.818886mm"
   height="93.50029mm"
   viewBox="0 0 94.818886 93.50029"
   version="1.1"
   id="svg1"
   xml:space="preserve"
   inkscape:version="1.3.2 (091e20ef0f, 2023-11-25, custom)"
   sodipodi:docname="IconsWild.svg"
   xmlns:inkscape="http://www.inkscape.org/namespaces/inkscape"
   xmlns:sodipodi="http://sodipodi.sourceforge.net/DTD/sodipodi-0.dtd"
   xmlns="http://www.w3.org/2000/svg"
   xmlns:svg="http://www.w3.org/2000/svg"><sodipodi:namedview
     id="namedview1"
     pagecolor="#ffffff"
     bordercolor="#000000"
     borderopacity="0.25"
     inkscape:showpageshadow="2"
     inkscape:pageopacity="0.0"
     inkscape:pagecheckerboard="0"
     inkscape:deskcolor="#d1d1d1"
     inkscape:document-units="mm"
     inkscape:zoom="0.16968249"
     inkscape:cx="4249.1125"
     inkscape:cy="813.28366"
     inkscape:window-width="1920"
     inkscape:window-height="1036"
     inkscape:window-x="0"
     inkscape:window-y="20"
     inkscape:window-maximized="1"
     inkscape:current-layer="layer1"
     showguides="true" /><defs
     id="defs1" /><g
     inkscape:label="Layer 1"
     inkscape:groupmode="layer"
     id="layer1"
     transform="translate(-1259.1546,331.75017)"><path
       id="path111"
       style="fill:#6d6d6d;fill-opacity:1;stroke-width:1.83293"
       d="m 1292.0937,-240.09809 c -11.4331,-3.95347 -22.6672,-13.38595 -27.7242,-23.27806 -12.1128,-23.69447 -2.4052,-52.72567 21.67,-64.80517 6.9598,-3.49205 7.3939,-3.56883 20.176,-3.56883 12.5467,0 13.3442,0.13307 20.1711,3.36675 13.9976,6.62998 24.1244,20.13117 26.9471,35.92617 3.9217,21.94493 -10.5979,45.47321 -32.175,52.13767 -8.6459,2.67047 -21.6951,2.76991 -29.065,0.22147 z m 25.1365,-2.86718 c 12.8602,-3.32795 23.0889,-11.94355 29.1042,-24.51438 2.9996,-6.26854 3.2506,-7.63974 3.2506,-17.76584 0,-10.16647 -0.2447,-11.48946 -3.3285,-17.99922 -12.0159,-25.36528 -42.8371,-33.6853 -65.272,-17.61998 -13.3207,9.53869 -20.4765,26.55026 -17.7355,42.16327 4.5288,25.79853 29.2193,42.14397 53.9812,35.73615 z m -4.2548,-11.03221 c -0.5759,-1.81485 -1.2647,-2.08616 -3.9894,-1.57142 -10.4193,1.96843 -11.0795,1.97954 -11.7634,0.19783 -0.3686,-0.96093 -2.3758,-2.62188 -4.4604,-3.69101 -2.0844,-1.06914 -4.9656,-3.21 -6.4027,-4.75749 -1.437,-1.5475 -3.8979,-3.48232 -5.4687,-4.29959 -1.571,-0.81729 -3.6134,-2.95035 -4.5391,-4.74015 -1.4211,-2.74808 -1.4874,-3.95214 -0.4261,-7.7421 1.0691,-3.81903 1.0059,-4.84571 -0.4251,-6.88862 -2.087,-2.97944 -2.1883,-7.78786 -0.1815,-8.55832 0.8469,-0.32498 1.644,-2.30926 1.8289,-4.55327 0.292,-3.54306 0.6663,-4.01575 3.4278,-4.32975 1.705,-0.19387 4.8379,-1.72892 6.9619,-3.41122 6.3185,-5.00439 10.9448,-6.40332 22.603,-6.83478 15.3273,-0.56727 20.3067,1.75638 24.9508,11.64354 2.9356,6.25038 3.2016,13.61386 0.8228,22.79387 -2.0886,8.05994 -3.5885,10.93237 -9.0809,17.3904 -2.4314,2.85863 -5.5144,6.62584 -6.8513,8.37157 -2.8209,3.68328 -6.008,4.12925 -7.0075,0.98051 z m 5.3963,-3.84979 c 0.6401,-1.02472 1.4959,-3.37608 1.9021,-5.22524 0.6752,-3.07454 0.5187,-3.36209 -1.8304,-3.36209 -3.3462,0 -5.6927,4.95009 -3.9183,8.26556 1.4305,2.67278 2.3314,2.74814 3.8466,0.32177 z m -9.3215,-4.1763 3.6438,-3.64393 -2.9779,-2.40848 -2.9782,-2.40847 -2.3075,2.28618 c -1.2691,1.25741 -2.6178,4.2553 -2.9968,6.66198 -0.6536,4.14866 -0.5686,4.34417 1.6416,3.76622 1.2819,-0.33526 3.9708,-2.24934 5.975,-4.2535 z m -11.195,-0.75338 c 0,-0.86215 -0.836,-1.56756 -1.8577,-1.56756 -1.0217,0 -2.9148,-0.74056 -4.2072,-1.6457 -1.2922,-0.90512 -2.8617,-1.47492 -3.4878,-1.26623 -1.2884,0.42946 6.2327,5.88743 8.2463,5.98426 0.7185,0.0345 1.3064,-0.64259 1.3064,-1.50477 z m 3.583,-7.38998 c 1.724,-1.72415 2.1451,-5.39457 0.8424,-7.34551 -1.1888,-1.78027 -5.3963,-3.7221 -6.5372,-3.01699 -0.5629,0.34789 -1.0235,2.15669 -1.0235,4.01952 0,1.86284 -0.5233,3.91034 -1.163,4.54998 -0.6397,0.63966 -0.847,1.67426 -0.4608,2.29912 1.0497,1.69847 6.4661,1.36987 8.3421,-0.50612 z m 20.1238,-0.5175 c 12.6648,-4.79856 16.77,-25.82093 7.1024,-36.37018 -3.4054,-3.716 -3.6397,-3.79457 -11.3114,-3.79457 -6.8528,0 -8.1718,0.31735 -10.5308,2.53353 -3.8949,3.65911 -3.6503,8.81832 0.6997,14.74724 3.2635,4.44848 3.3856,4.96822 3.1209,13.29746 -0.2588,8.15229 -0.1338,8.72459 2.0901,9.61838 3.217,1.29246 5.3542,1.28476 8.8291,-0.0319 z m -6.2931,-1.67579 c -0.3852,-0.38519 0.046,-1.84062 0.96,-3.23427 1.5506,-2.36667 1.5163,-2.68701 -0.5189,-4.8535 -2.7355,-2.91178 -2.7615,-4.40144 -0.09,-5.1003 2.2161,-0.57951 2.8294,-3.2972 0.9994,-4.42821 -0.6,-0.37078 -1.7756,-0.10576 -2.6127,0.58881 -1.5947,1.3234 -1.7468,1.07328 -1.931,-3.17314 -0.092,-2.10895 -0.5805,-2.54724 -2.5366,-2.27346 -2.1691,0.30355 -2.3885,-0.0255 -2.0901,-3.13516 0.2462,-2.56761 0.79,-3.39888 2.0833,-3.18531 2.5755,0.42528 3.4056,-1.71401 1.4874,-3.83353 -3.3713,-3.72523 -1.0618,-5.95844 2.6697,-2.58152 1.4029,1.26962 2.2472,1.4166 3.2685,0.569 1.5721,-1.30481 5.2697,-1.07469 9.1784,0.57123 3.3292,1.40179 6.0351,8.94181 4.0623,11.31898 -0.6747,0.81296 -0.9375,2.23194 -0.5839,3.1533 0.9654,2.51591 -0.2423,3.73941 -2.499,2.53162 -2.287,-1.22389 -3.6782,0.21265 -2.693,2.78036 0.5154,1.34291 0.9135,1.39794 2.227,0.30776 2.3097,-1.91684 3.711,0.005 2.7159,3.72572 -0.5567,2.08175 -1.4955,3.10741 -2.8466,3.1101 -1.4293,0.004 -2.1135,0.85417 -2.3513,2.92485 -0.2597,2.26426 -0.7551,2.78753 -2.2037,2.32777 -1.0404,-0.33018 -2.4539,0.11218 -3.1891,0.99809 -1.4358,1.7298 -2.4182,1.97939 -3.5068,0.89081 z m 7.2011,-9.84117 c 1.2178,-1.97033 -1.3188,-3.55318 -3.1966,-1.99475 -1.3221,1.09731 -1.3846,1.55435 -0.3056,2.23882 1.8324,1.16226 2.6691,1.10396 3.5022,-0.24407 z m -0.2647,-9.67042 c 0.2957,-0.7706 0.1302,-2.0599 -0.3673,-2.86515 -1.2194,-1.97317 -3.6129,0.3303 -2.7309,2.62841 0.77,2.00686 2.3718,2.12926 3.0982,0.23674 z m -4.9604,-4.96027 c 0.8966,-1.45102 -1.0912,-3.49676 -2.5322,-2.60604 -1.2003,0.74175 -0.4319,3.74215 0.9584,3.74215 0.4793,0 1.1876,-0.51126 1.5738,-1.13611 z m 10.2202,-0.35505 c 0.7341,-1.9134 -1.9394,-4.34232 -2.9609,-2.68974 -0.8611,1.39339 0.088,4.1809 1.4225,4.1809 0.5314,0 1.2237,-0.67104 1.5384,-1.49116 z m -5.3171,-5.04039 c 0.5986,-1.62794 -0.1485,-3.91894 -1.2771,-3.91894 -1.1505,0 -2.262,3.09678 -1.5339,4.27451 0.8367,1.35392 2.2481,1.17541 2.811,-0.35557 z m -33.3167,29.44677 c 3.1444,-2.47338 3.4591,-4.72214 1.1267,-8.05201 -1.932,-2.7582 -6.834,-3.11795 -9.2716,-0.6804 -3.6532,3.65329 -0.8226,10.10086 4.7484,10.81585 0.3536,0.0455 1.8819,-0.89216 3.3965,-2.08344 z m 18.3467,-10.11338 c -0.077,-4.57295 -0.165,-4.73759 -1.1322,-2.0901 -0.5772,1.58063 -1.5536,2.8739 -2.1695,2.8739 -0.616,0 -0.2687,0.94053 0.7715,2.09009 1.0404,1.14954 2.0538,2.0901 2.2522,2.0901 0.1983,0 0.3235,-2.2338 0.278,-4.96399 z m -12.9806,-1.30632 c 0.3552,-0.57477 -0.1155,-1.04504 -1.045,-1.04504 -0.93,0 -1.4004,0.47027 -1.0451,1.04504 0.3552,0.57479 0.8255,1.04507 1.0451,1.04507 0.2196,0 0.6897,-0.47028 1.045,-1.04507 z m -11.4955,-3.13514 c 0.3552,-0.57477 0.176,-1.04505 -0.3992,-1.04505 -0.5748,0 -1.3356,0.47028 -1.6909,1.04505 -0.3552,0.57479 -0.1759,1.04505 0.3992,1.04505 0.5747,0 1.3357,-0.47026 1.6909,-1.04505 z m 20.3784,0.042 c 0,-1.43704 -7.3125,-3.42922 -10.9919,-2.99458 -2.6679,0.31517 -2.2142,0.61431 3.1541,2.07919 7.807,2.1304 7.8378,2.13399 7.8378,0.91539 z m -7.5048,-9.4014 c 0.27,-0.81034 -0.1246,-1.13021 -0.9863,-0.79811 -0.7901,0.30479 -4.8462,1.39009 -9.0134,2.41179 -4.1672,1.02169 -7.5766,2.4005 -7.5766,3.06402 0,1.64864 16.9733,-2.86858 17.5763,-4.6777 z m 7.2654,2.89321 c -0.6459,-1.93776 -2.8956,-2.25914 -2.8956,-0.41367 0,0.91007 0.7445,1.65466 1.6545,1.65466 0.9101,0 1.4686,-0.55844 1.2411,-1.24099 z m -13.3461,-6.07434 c 1.9938,-0.63858 1.1896,-0.86139 -3.3964,-0.94088 -3.3789,-0.0587 -6.0091,0.35326 -6.0091,0.94088 0,1.21525 5.6108,1.21525 9.4055,0 z m 11.4954,-6.44927 c 0,-0.67322 0.7783,-2.08403 1.7296,-3.13514 0.9513,-1.05114 1.3039,-1.90851 0.7837,-1.9053 -2.3846,0.0147 -8.5537,2.26745 -11.3962,4.16153 l -3.1351,2.08916 6.0089,0.007 c 3.899,0.004 6.0091,-0.42293 6.0091,-1.21714 z" /></g></svg>
