<?xml version="1.0" encoding="UTF-8" standalone="no"?>
<!-- Created with Inkscape (http://www.inkscape.org/) -->

<svg
   width="51.30867mm"
   height="52.421242mm"
   viewBox="0 0 51.30867 52.421242"
   version="1.1"
   id="svg1"
   inkscape:version="1.3.2 (091e20ef0f, 2023-11-25, custom)"
   sodipodi:docname="ramen_pink.svg"
   xmlns:inkscape="http://www.inkscape.org/namespaces/inkscape"
   xmlns:sodipodi="http://sodipodi.sourceforge.net/DTD/sodipodi-0.dtd"
   xmlns="http://www.w3.org/2000/svg"
   xmlns:svg="http://www.w3.org/2000/svg">
  <sodipodi:namedview
     id="namedview1"
     pagecolor="#ffffff"
     bordercolor="#000000"
     borderopacity="0.25"
     inkscape:showpageshadow="2"
     inkscape:pageopacity="0.0"
     inkscape:pagecheckerboard="0"
     inkscape:deskcolor="#d1d1d1"
     inkscape:document-units="mm"
     inkscape:zoom="0.74118967"
     inkscape:cx="97.141127"
     inkscape:cy="99.839491"
     inkscape:window-width="1920"
     inkscape:window-height="1036"
     inkscape:window-x="0"
     inkscape:window-y="20"
     inkscape:window-maximized="1"
     inkscape:current-layer="layer1" />
  <defs
     id="defs1" />
  <g
     inkscape:label="Layer 1"
     inkscape:groupmode="layer"
     id="layer1"
     transform="translate(-79.375031,-122.23749)">
    <path
       id="path587"
       style="fill:#f7146f;fill-opacity:1"
       d="m 92.2936,174.27845 c -0.2091,-0.20905 -0.3801,-1.45292 -0.3801,-2.76416 0,-2.2179 -0.1543,-2.45364 -2.2137,-3.38231 -3.096,-1.39609 -7.3875,-5.77118 -8.9778,-9.15257 -0.9571,-2.035 -1.3423,-3.87044 -1.3463,-6.41419 -0.01,-3.33792 0.077,-3.56344 1.3033,-3.56344 1.1085,0 1.3294,-0.32729 1.443,-2.13807 0.2742,-4.37036 1.882,-6.73238 4.978,-7.31319 2.0358,-0.38191 6.246,1.172 7.5915,2.80186 0.4304,0.52134 1.0077,0.94789 1.2828,0.94789 0.2752,0 0.5004,-2.83739 0.5004,-6.30531 0,-4.05835 -0.2032,-6.17973 -0.5702,-5.95293 -0.3135,0.1938 -0.5701,1.37516 -0.5701,2.62524 0,1.65297 -0.3817,2.65456 -1.3995,3.67233 -1.5643,1.56428 -4.302,1.91063 -4.302,0.54424 0,-0.47038 0.4986,-0.85523 1.1079,-0.85523 1.4954,0 2.8831,-2.11934 2.8831,-4.40299 0,-1.70299 -0.1541,-1.86867 -1.7389,-1.86867 h -1.7389 l 0.171,-3.27836 c 0.1569,-3.00875 0.2882,-3.2946 1.5964,-3.47576 0.7839,-0.10856 1.6543,-0.60003 1.9341,-1.09216 0.4519,-0.79467 0.5944,-0.77773 1.2738,0.15142 0.7281,0.9958 0.8179,0.99834 1.8627,0.0528 1.0448,-0.94551 1.1278,-0.9433 1.7196,0.046 0.6016,1.00577 0.6419,1.00577 1.2435,0 0.5918,-0.98927 0.6748,-0.99148 1.7195,-0.046 1.0459,0.94649 1.1358,0.94172 1.9032,-0.10089 0.7442,-1.01117 0.8344,-1.01979 1.1858,-0.11335 0.3499,0.90249 1.4026,0.95226 13.1542,0.62192 l 12.7738,-0.35908 v 4.36422 4.36422 l -12.8284,-0.37334 -12.8284,-0.37334 v 4.81333 4.81333 l 3.9958,-0.22578 c 3.4605,-0.19554 4.4195,-0.0185 7.1593,1.322 2.5145,1.23021 3.4786,2.1143 4.6991,4.30877 0.8445,1.51854 1.9844,2.87963 2.5332,3.02464 0.7657,0.20234 0.9978,0.86791 0.9978,2.86134 0,5.81528 -3.9138,12.11139 -9.6158,15.46883 -2.5145,1.48059 -2.9064,1.9532 -2.9162,3.51681 -0.023,3.69153 0.2015,3.61007 -9.955,3.61007 -5.0883,0 -9.4225,-0.17104 -9.6315,-0.3801 z m 17.2944,-2.89826 c -10e-5,-0.90273 -0.7604,-0.99777 -7.9821,-0.99777 -7.2218,0 -7.982,0.095 -7.982,0.99777 0,0.90273 0.7602,0.99776 7.9821,0.99776 7.222,0 7.9821,-0.095 7.982,-0.99776 z m 0.4417,-3.86314 c 3.2461,-0.964 6.9575,-3.56788 9.1214,-6.39957 l 1.4161,-1.85299 h -18.603 c -10.3214,0 -18.603,0.22321 -18.603,0.5014 0,0.27577 1.0157,1.54799 2.2571,2.82716 2.1815,2.2479 5.6237,4.35943 8.5758,5.26068 2.61,0.79681 12.7442,0.58135 15.8356,-0.33668 z m 11.5316,-11.10332 c 0,-0.36924 -7.0318,-0.57015 -19.9553,-0.57015 -12.9234,0 -19.9552,0.20091 -19.9552,0.57015 0,0.36924 7.0318,0.57015 19.9552,0.57015 12.9235,0 19.9553,-0.20091 19.9553,-0.57015 z m 1.0374,-3.84851 0.1822,-1.28284 H 101.9308 81.0806 v 1.43249 1.43249 l 20.668,-0.14965 20.6679,-0.14965 z m -36.6698,-4.71 c 0.3766,-1.18646 3.0019,-2.8445 4.5041,-2.8445 1.5568,0 3.6245,1.24523 4.3649,2.62866 0.7224,1.34978 2.2469,1.88843 2.2469,0.79389 0,-0.91088 -4.043,-5.13062 -5.7728,-6.02514 -3.8605,-1.99629 -6.6987,-0.41693 -7.1971,4.00483 -0.2358,2.0917 -0.1207,2.58882 0.5991,2.58882 0.4901,0 1.0547,-0.51595 1.2549,-1.14656 z m 6.5306,0.26221 c -0.8564,-1.0319 -4.0439,-0.9075 -4.3981,0.17166 -0.1649,0.50233 0.5579,0.71269 2.449,0.71269 2.3595,0 2.5945,-0.10663 1.9491,-0.88435 z m 8.8615,0.31419 c -1.584,-0.68067 -2.7013,-0.68067 -2.2806,0 0.1938,0.31359 1.0428,0.55212 1.8866,0.53008 1.37,-0.0358 1.4122,-0.0925 0.394,-0.53008 z m 5.1923,-0.3317 c -0.1903,-0.49602 -0.3461,-1.00257 -0.3461,-1.12566 0,-0.12309 -0.7569,-0.61524 -1.6821,-1.09367 -1.8838,-0.97414 -7.15,-1.21384 -6.585,-0.29972 0.1938,0.31358 1.1972,0.57015 2.2299,0.57015 1.0699,0 2.7109,0.59212 3.8149,1.37655 2.301,1.63503 3.0393,1.79955 2.5684,0.57235 z m 7.9211,0.3317 c -1.5925,-0.68431 -4.7084,-0.68431 -5.1313,0 -0.2205,0.35669 0.8876,0.55515 2.9596,0.53008 2.3776,-0.0288 2.9903,-0.17831 2.1717,-0.53008 z m 2.5657,-1.41073 c 0,-0.14874 -0.757,-0.66187 -1.6821,-1.1403 -1.8675,-0.9657 -8.0105,-1.19554 -8.0105,-0.29972 0,0.31501 1.5947,0.58808 3.5635,0.61023 1.9599,0.022 4.0766,0.26057 4.7037,0.53007 1.455,0.62524 1.4254,0.61901 1.4254,0.29972 z m -6.8418,-4.30503 2.5657,-0.40353 -2.5657,-0.0505 c -1.4111,-0.0277 -3.3354,0.32427 -4.2761,0.78228 l -1.7105,0.83275 1.7105,-0.37875 c 0.9407,-0.20831 2.865,-0.56033 4.2761,-0.78228 z m -10.2627,-5.68725 c 0,-3.4209 -0.2281,-5.7015 -0.5702,-5.7015 -0.3421,0 -0.5701,2.2806 -0.5701,5.7015 0,3.42091 0.228,5.70151 0.5701,5.70151 0.3421,0 0.5702,-2.2806 0.5702,-5.70151 z m 3.4209,-0.6038 c 0,-3.69738 -0.1958,-5.09806 -0.7127,-5.09898 -0.533,-9.6e-4 -0.6668,1.36673 -0.5308,5.42576 0.2304,6.87422 1.2435,6.60798 1.2435,-0.32678 z m 25.6568,-7.37831 c 0,-0.36522 -4.3548,-0.5357 -12.1157,-0.4743 -13.4652,0.10652 -11.0018,0.78962 3.4209,0.94861 5.4803,0.0604 8.6948,-0.11494 8.6948,-0.47431 z m -25.8112,-0.34446 c -0.1895,-0.18946 -0.6812,-0.20971 -1.0928,-0.045 -0.4548,0.18201 -0.3197,0.31711 0.3445,0.34447 0.601,0.0248 0.9377,-0.11 0.7483,-0.29945 z m -3.2665,-2.50629 c 0,-0.31358 -0.2566,-0.57015 -0.5702,-0.57015 -0.3135,0 -0.5701,0.25657 -0.5701,0.57015 0,0.31358 0.2566,0.57015 0.5701,0.57015 0.3136,0 0.5702,-0.25657 0.5702,-0.57015 z m 3.1358,0 c 0.1938,-0.31358 0.081,-0.57015 -0.2514,-0.57015 -0.3321,0 -0.6038,0.25657 -0.6038,0.57015 0,0.31358 0.1131,0.57015 0.2514,0.57015 0.1383,0 0.41,-0.25657 0.6038,-0.57015 z m 25.8326,-0.0428 c -0.1124,-0.3371 -0.3903,-0.59367 -0.6177,-0.57015 -0.2273,0.0235 -5.5447,0.0428 -11.8163,0.0428 -7.222,0 -11.4031,0.20905 -11.4031,0.57015 0,0.36207 4.387,0.57015 12.0207,0.57015 8.3195,0 11.9578,-0.18872 11.8164,-0.61291 z" />
  </g>
</svg>
