<?xml version="1.0" encoding="UTF-8" standalone="no"?>
<!-- Created with Inkscape (http://www.inkscape.org/) -->

<svg
   width="63.674664mm"
   height="52.940376mm"
   viewBox="0 0 63.674664 52.940376"
   version="1.1"
   id="svg1"
   xml:space="preserve"
   inkscape:version="1.3.2 (091e20ef0f, 2023-11-25, custom)"
   sodipodi:docname="IconsWild.svg"
   xmlns:inkscape="http://www.inkscape.org/namespaces/inkscape"
   xmlns:sodipodi="http://sodipodi.sourceforge.net/DTD/sodipodi-0.dtd"
   xmlns="http://www.w3.org/2000/svg"
   xmlns:svg="http://www.w3.org/2000/svg"><sodipodi:namedview
     id="namedview1"
     pagecolor="#ffffff"
     bordercolor="#000000"
     borderopacity="0.25"
     inkscape:showpageshadow="2"
     inkscape:pageopacity="0.0"
     inkscape:pagecheckerboard="0"
     inkscape:deskcolor="#d1d1d1"
     inkscape:document-units="mm"
     inkscape:zoom="0.31364478"
     inkscape:cx="3370.0545"
     inkscape:cy="-471.8714"
     inkscape:window-width="1920"
     inkscape:window-height="1036"
     inkscape:window-x="0"
     inkscape:window-y="20"
     inkscape:window-maximized="1"
     inkscape:current-layer="layer1"
     showguides="true" /><defs
     id="defs1" /><g
     inkscape:label="Layer 1"
     inkscape:groupmode="layer"
     id="layer1"
     transform="translate(-1339.8794,-350.19301)"><path
       style="fill:#f7146f;fill-opacity:1;stroke-width:0.470253"
       d="m 1358.9808,402.87662 c -0.5984,-0.47064 -0.6423,-1.54111 -0.082,-2.00285 0.1378,-0.11361 0.2506,-0.2313 0.2506,-0.26153 0,-0.0302 -0.406,-0.23869 -0.9021,-0.46326 -7.3446,-3.32452 -13.5026,-10.02596 -16.4083,-17.85622 -1.199,-3.23109 -1.7869,-6.37168 -1.9335,-10.32842 -0.1134,-3.06178 0.054,-3.29569 2.3617,-3.29569 h 1.2956 l 0.063,-1.20276 c 0.059,-1.12757 0.041,-1.25008 -0.2893,-1.95964 -0.5296,-1.13779 -0.7351,-2.10131 -0.7351,-3.44496 0,-2.01503 0.5808,-3.44733 1.9371,-4.77718 1.3882,-1.36106 2.8726,-1.87665 5.0927,-1.76875 1.4185,0.0689 2.4102,0.32586 3.2419,0.83992 0.3887,0.2402 0.4872,0.24835 1.4346,0.11862 1.4944,-0.2046 2.7019,0.012 4.3879,0.78721 0.9149,0.42066 1.1187,0.47559 1.2033,0.32438 0.3107,-0.55522 1.2252,-1.5442 1.8999,-2.05474 1.4751,-1.11613 3.3702,-1.79264 5.0217,-1.79264 0.6312,0 0.7366,-0.0433 1.2947,-0.53147 1.4791,-1.29384 3.1211,-1.96155 5.0316,-2.04602 0.6843,-0.0302 1.4681,-0.004 1.7418,0.059 0.4272,0.0978 0.5948,0.0664 1.1821,-0.22169 1.3756,-0.67483 1.9488,-0.80494 3.546,-0.80494 1.1288,0 1.6537,0.0559 2.1517,0.22912 2.1115,0.73448 3.6313,2.32652 4.2066,4.40647 0.1827,0.66079 0.2509,0.76815 0.448,0.70559 0.4059,-0.12881 2.1283,-0.0794 2.7741,0.0796 2.1838,0.53759 4.3037,2.50622 4.9224,4.57102 0.1225,0.40908 0.2837,0.60225 0.7549,0.9046 1.7793,1.14182 3.2063,3.7332 3.2166,5.84168 0,0.36458 0.1145,0.55063 0.6593,1.08869 l 0.6572,0.64896 h 1.5263 c 2.5709,0 2.7082,0.17453 2.5926,3.29569 -0.087,2.3366 -0.2214,3.60802 -0.5805,5.476 -1.412,7.34584 -5.5421,14.09998 -11.5332,18.86088 -1.8199,1.44618 -4.2793,2.96558 -6.2282,3.84776 -0.4961,0.22457 -0.902,0.43304 -0.902,0.46326 0,0.0302 0.1127,0.14792 0.2505,0.26153 0.56,0.46174 0.5161,1.53221 -0.082,2.00285 -0.3247,0.25539 -0.3886,0.25668 -12.7349,0.25668 -12.3463,0 -12.4102,-0.001 -12.7348,-0.25668 z m 17.3384,-2.72629 c 4.1457,-0.68873 8.0787,-2.22392 11.4593,-4.47298 1.7566,-1.16863 2.7941,-2.01506 4.3631,-3.5596 2.4484,-2.41033 4.2493,-4.88612 5.6987,-7.83425 1.3681,-2.78312 2.1747,-5.24652 2.6671,-8.14542 0.2616,-1.54016 0.4908,-4.61391 0.3542,-4.75048 -0.059,-0.0588 -13.1622,-0.0926 -29.2147,-0.0753 l -29.108,0.0314 0.039,1.30642 c 0.18,5.97101 2.5267,12.15547 6.4551,17.01234 1.0755,1.32974 3.1972,3.45309 4.4546,4.45801 4.4356,3.5451 10.1117,5.80794 15.8637,6.32414 1.4168,0.12715 5.4582,-0.0435 6.9675,-0.29429 z m -25.4075,-34.43669 c -2.4625,-2.47672 -2.9517,-3.02807 -3.0225,-3.40646 -0.1706,-0.9118 0.6232,-1.71063 1.5306,-1.5404 0.3507,0.0658 0.7879,0.42223 2.1,1.7122 l 1.6571,1.62908 v -1.25616 c 0,-1.16627 0.023,-1.28325 0.3185,-1.63474 0.4014,-0.47695 1.0008,-0.60767 1.5306,-0.33374 0.6961,0.35996 0.7637,0.66035 0.7637,3.39045 v 2.46075 l 0.9614,0.96701 c 0.7246,0.72894 1.0438,0.96702 1.2963,0.96702 h 0.335 l 0.041,-2.23744 0.041,-2.23744 0.3926,-0.39237 c 0.5554,-0.555 1.2723,-0.555 1.8276,0 l 0.3926,0.39237 0.041,2.23744 0.041,2.23744 h 3.2094 3.2093 l 0.078,-0.38882 c 0.3197,-1.59806 -0.3378,-3.50419 -1.6673,-4.83364 -1.1993,-1.19933 -2.5234,-1.741 -4.2622,-1.74365 -1.1871,-0.002 -1.6309,-0.17573 -2.5542,-1.00103 -0.3893,-0.34794 -1.1113,-0.83258 -1.6045,-1.07697 -1.0694,-0.53001 -2.1573,-0.65569 -3.5756,-0.41308 l -0.9189,0.15719 -1.2859,-0.60107 c -1.1572,-0.54097 -1.3916,-0.60594 -2.3435,-0.64983 -1.3889,-0.0641 -2.2423,0.23852 -3.1046,1.10082 -0.8623,0.8623 -1.1649,1.71562 -1.1008,3.10464 0.044,0.95203 0.1088,1.18612 0.6503,2.34456 l 0.6016,1.28694 -0.1407,0.85215 c -0.077,0.46868 -0.1407,1.07931 -0.1407,1.35696 v 0.50483 h 3.8202 3.8202 z m 25.6213,2.30605 c 0.5448,-0.53806 0.6575,-0.72411 0.6593,-1.08869 0.01,-2.11241 1.4372,-4.69982 3.224,-5.84642 0.3929,-0.25208 0.6363,-0.50788 0.6911,-0.72617 0.2002,-0.79782 0.9199,-1.97489 1.7188,-2.81107 l 0.8458,-0.88533 -0.1402,-0.74653 c -0.3324,-1.77068 -1.6632,-2.97487 -3.4686,-3.13857 -0.9654,-0.0875 -1.9364,0.14005 -3.1391,0.73578 -0.9669,0.4789 -1.0549,0.49953 -1.7141,0.40147 -0.3822,-0.0568 -1.2002,-0.10391 -1.8179,-0.10458 -1.0334,-9.4e-4 -1.197,0.0343 -2.0529,0.44441 -0.5342,0.25595 -1.2954,0.77068 -1.7886,1.20934 -0.9458,0.84129 -1.4762,1.05393 -2.3352,0.93618 -1.3258,-0.18171 -3.1904,0.55004 -4.3458,1.7055 -0.4039,0.4039 -0.7344,0.77785 -0.7344,0.83099 0,0.0531 0.5326,0.18723 1.1835,0.29797 0.7721,0.13135 1.5075,0.35515 2.1152,0.64377 l 0.9316,0.44243 v -0.39824 c 0,-1.12232 0.5306,-1.82908 1.368,-1.82908 0.5963,0 1.0736,0.37355 1.2392,0.96992 0.07,0.25351 0.1283,1.26246 0.1287,2.24211 0,1.57508 0.072,2.08556 0.3325,2.38045 0.027,0.0307 0.5514,-0.44409 1.1652,-1.05498 l 1.1159,-1.11073 v -1.84398 c 0,-2.06141 0.1018,-2.43143 0.7637,-2.77369 0.8726,-0.45122 1.8491,0.21561 1.8491,1.26266 0,0.30269 0.04,0.55035 0.088,0.55035 0.048,0 0.8227,-0.72787 1.7211,-1.61748 1.6124,-1.59658 1.7655,-1.6968 2.4747,-1.62025 0.6644,0.0717 1.1635,0.86458 0.9926,1.57662 -0.053,0.22205 -0.6867,0.96494 -1.6939,1.9866 l -1.6087,1.63192 0.6545,0.0629 c 0.5345,0.0513 0.7186,0.13464 1.0041,0.4541 0.4978,0.55721 0.485,1.22798 -0.033,1.74634 l -0.3829,0.38284 h -1.9522 -1.9521 l -1.3644,1.36863 -1.3644,1.36863 h 1.3258 c 1.3147,0 1.3291,0.003 1.7087,0.38284 0.2927,0.29275 0.3828,0.49374 0.3828,0.85417 0,0.51498 -0.356,1.07659 -0.7948,1.2539 -0.1712,0.0692 0.1912,0.10891 1.0398,0.11405 l 1.3025,0.008 z m 9.7374,0.3068 c 0,-0.30085 -0.2063,-0.47652 -1.6897,-1.45505 -0.928,-0.61209 -1.7947,-1.24952 -1.926,-1.41652 -0.6222,-0.7909 -0.028,-2.01196 0.9788,-2.01196 0.3834,0 0.7175,0.14801 1.5337,0.67936 l 1.0435,0.67936 0.065,-1.58141 c 0.074,-1.7895 0.2174,-2.15497 0.9402,-2.39351 0.3157,-0.1042 0.5349,-0.1042 0.8506,0 0.7228,0.23854 0.8664,0.60401 0.9403,2.39351 l 0.065,1.58141 1.0435,-0.67936 c 0.8161,-0.53135 1.1503,-0.67936 1.5337,-0.67936 1.0069,0 1.6009,1.22106 0.9788,2.01196 -0.1314,0.167 -0.9981,0.80443 -1.926,1.41652 -1.4835,0.97853 -1.6875,1.1542 -1.6897,1.45505 v 0.34216 h 3.3727 c 3.1644,0 3.3669,-0.0134 3.2799,-0.21774 -0.051,-0.11975 -0.1608,-0.75486 -0.2441,-1.41135 -0.2485,-1.9593 -0.9518,-3.13349 -2.41,-4.02394 -0.782,-0.47753 -0.9351,-0.67756 -1.2754,-1.66691 -0.4713,-1.36979 -1.2279,-2.29605 -2.3753,-2.90797 -0.4492,-0.23954 -0.7229,-0.28499 -1.7164,-0.28499 -0.9936,0 -1.2673,0.0454 -1.7164,0.28499 -1.1475,0.61192 -1.904,1.53818 -2.3753,2.90797 -0.3404,0.98935 -0.4935,1.18938 -1.2755,1.66691 -1.4544,0.88811 -2.2923,2.26616 -2.4189,3.978 -0.04,0.54489 -0.1216,1.14468 -0.1808,1.33287 l -0.1076,0.34216 h 3.3529 3.3529 z"
       id="path6"
       inkscape:export-filename="../Projet1/Mister_Wild/icons/salade.svg"
       inkscape:export-xdpi="96"
       inkscape:export-ydpi="96" /></g></svg>
