<?xml version="1.0" encoding="UTF-8" standalone="no"?>
<!-- Created with Inkscape (http://www.inkscape.org/) -->

<svg
   width="60.756367mm"
   height="61.675503mm"
   viewBox="0 0 60.756367 61.675503"
   version="1.1"
   id="svg1"
   xml:space="preserve"
   inkscape:version="1.3.2 (091e20ef0f, 2023-11-25, custom)"
   sodipodi:docname="IconsWild.svg"
   xmlns:inkscape="http://www.inkscape.org/namespaces/inkscape"
   xmlns:sodipodi="http://sodipodi.sourceforge.net/DTD/sodipodi-0.dtd"
   xmlns="http://www.w3.org/2000/svg"
   xmlns:svg="http://www.w3.org/2000/svg"><sodipodi:namedview
     id="namedview1"
     pagecolor="#ffffff"
     bordercolor="#000000"
     borderopacity="0.25"
     inkscape:showpageshadow="2"
     inkscape:pageopacity="0.0"
     inkscape:pagecheckerboard="0"
     inkscape:deskcolor="#d1d1d1"
     inkscape:document-units="mm"
     inkscape:zoom="0.57521543"
     inkscape:cx="4933.8036"
     inkscape:cy="904.00912"
     inkscape:window-width="1920"
     inkscape:window-height="1036"
     inkscape:window-x="0"
     inkscape:window-y="20"
     inkscape:window-maximized="1"
     inkscape:current-layer="layer1"
     showguides="true" /><defs
     id="defs1" /><g
     inkscape:label="Layer 1"
     inkscape:groupmode="layer"
     id="layer1"
     transform="translate(-1175.4888,-351.11626)"><path
       style="fill:#f7146f;fill-opacity:1"
       d="m 1215.7241,412.65823 c -0.8953,-0.22756 -1.6889,-0.63537 -2.8309,-1.45476 -1.1376,-0.81626 -1.9248,-1.06805 -3.0993,-0.99132 -0.9604,0.0627 -1.5445,0.3125 -2.6324,1.12558 -1.2718,0.95055 -2.5022,1.37927 -3.9585,1.37927 -1.1834,0 -2.1649,-0.32104 -3.7395,-1.22314 -0.7955,-0.45576 -1.6408,-0.9099 -1.8785,-1.00919 -0.7173,-0.29971 -1.5931,-0.34394 -2.6172,-0.13216 -2.4711,0.51104 -4.4595,4.2e-4 -6.0489,-1.55336 -0.8328,-0.81414 -1.343,-1.72257 -1.7457,-3.10853 l -0.2681,-0.9228 -5.4039,-0.0337 c -5.2228,-0.0326 -5.412,-0.0418 -5.6454,-0.27519 -0.1328,-0.13284 -0.2773,-0.42091 -0.3211,-0.64017 -0.088,-0.43945 -0.723,0.2448 7.5377,-8.12156 l 2.343,-2.37303 -0.3244,-0.4902 c -0.8213,-1.24108 -1.0396,-2.50587 -0.762,-4.41463 0.1987,-1.36675 0.1523,-1.78619 -0.3318,-2.9935 -1.2613,-3.14589 0.5064,-6.57214 3.7807,-7.32794 0.3349,-0.0773 0.6089,-0.19388 0.6089,-0.25907 0,-0.0652 -0.1899,-0.70583 -0.422,-1.42366 -0.4701,-1.45441 -0.5201,-2.14062 -0.2275,-3.12609 0.4509,-1.51849 1.4519,-2.45814 3.3398,-3.13517 1.3077,-0.46896 1.7728,-0.90162 2.1331,-1.9843 0.4252,-1.27776 1.2563,-2.23825 2.3651,-2.73321 l 0.6186,-0.27614 3.4198,-6.85149 c 3.5034,-7.01891 3.6061,-7.19251 4.2574,-7.19251 0.1026,0 3.7391,1.77601 8.0811,3.94669 l 7.8945,3.9467 0.9088,-0.90283 0.9088,-0.90282 6.8085,-0.0331 c 7.4342,-0.0361 7.3948,-0.0394 7.6567,0.64942 0.072,0.18934 0.1154,8.89285 0.1154,23.14568 0,24.81601 0.037,23.45666 -0.6351,23.61251 -0.148,0.0343 -0.8654,0.0758 -1.5944,0.0922 l -1.3252,0.0297 -0.6917,1.14522 c -1.6928,2.80279 -3.19,3.75722 -6.1209,3.90177 -0.6962,0.0343 -1.4861,0.14092 -1.7554,0.23686 -0.2693,0.0959 -1.3257,0.64864 -2.3475,1.22822 -1.0218,0.57959 -2.1577,1.15874 -2.5241,1.287 -0.8902,0.31161 -2.6189,0.3894 -3.5265,0.15869 z m 3.0408,-2.07269 c 0.2318,-0.0944 1.2995,-0.66114 2.3725,-1.25951 1.0731,-0.59838 2.2124,-1.16917 2.5319,-1.26843 0.3195,-0.0993 1.2647,-0.22467 2.1004,-0.2787 1.7527,-0.1133 2.3213,-0.30891 3.169,-1.09034 0.4799,-0.44229 1.3992,-1.66302 1.3992,-1.85783 0,-0.0385 -9.283,-0.07 -20.629,-0.07 h -20.629 l 0.077,0.38423 c 0.262,1.30996 1.364,2.65944 2.5271,3.09463 0.9997,0.37401 1.6011,0.41723 2.6701,0.19187 1.3271,-0.27978 2.7081,-0.26166 3.6232,0.0475 0.4015,0.13567 1.4051,0.63018 2.2302,1.09891 1.7178,0.97591 2.0416,1.08815 3.1425,1.08907 1.0317,8.7e-4 1.6473,-0.2249 2.6923,-0.98733 1.6476,-1.20213 2.8673,-1.61469 4.4654,-1.51044 1.2598,0.0822 2.3191,0.47903 3.5145,1.3167 1.212,0.84923 1.8714,1.1839 2.5636,1.301 0.6772,0.11456 1.616,0.0278 2.1792,-0.20138 z m -32.8675,-11.59303 3.7174,-3.7189 -0.5862,-0.0694 c -0.5077,-0.0601 -1.0293,-0.20801 -1.7268,-0.48953 -0.1246,-0.0503 -1.4541,1.17881 -4.2795,3.9564 l -4.0987,4.0294 1.6282,0.005 1.6281,0.005 z m 25.1527,-18.04026 21.7589,-21.75916 h -2.1573 -2.1573 l -17.9442,17.97305 c -11.2899,11.30807 -17.9442,18.0583 -17.9442,18.20295 0,0.13891 -0.084,0.22991 -0.2117,0.22991 -0.1168,0 -1.8051,1.59406 -3.7664,3.5562 l -3.5547,3.55621 h 2.109 2.1089 z m 23.1454,0.7233 c 0,-11.56973 -0.014,-21.03587 -0.03,-21.03587 -0.017,0 -9.4963,9.46614 -21.0659,21.03587 l -21.0356,21.03586 h 21.0659 21.0658 z m -26.2797,18.02212 v -0.96439 h 1.0246 1.0247 v 0.96439 0.9644 h -1.0247 -1.0246 z m 20.2523,0 v -0.96439 h 0.9644 0.9643 v 0.96439 0.9644 h -0.9643 -0.9644 z m -28.3291,-1.02466 v -1.02467 h 0.9644 0.9644 v 1.02467 1.02466 h -0.9644 -0.9644 z m 19.1673,-2.04934 V 395.599 h 1.0247 1.0246 v 1.02467 1.02467 h -1.0246 -1.0247 z m -8.0768,-7.05214 v -0.9644 h 1.0247 1.0246 v 0.9644 0.96439 h -1.0246 -1.0247 z m 15.1892,-3.07888 v -1.02955 l 0.9946,0.035 0.9945,0.035 0.035,0.99453 0.035,0.99453 h -1.0295 -1.0296 z m -5.0631,-5.06308 v -1.02954 l 0.9946,0.035 0.9945,0.035 0.035,0.99454 0.035,0.99453 h -1.0295 -1.0296 z m 8.0769,-5.06307 v -1.02954 l 0.9945,0.035 0.9945,0.035 0.035,0.99453 0.035,0.99453 h -1.0295 -1.0295 z m -36.103,15.37165 c 1.3514,-1.35526 1.6502,-1.71387 1.5053,-1.80639 -0.1,-0.0635 -0.2256,-0.11627 -0.2804,-0.11729 -0.2934,-0.005 -1.8969,-1.0912 -2.6229,-1.77604 -1.9456,-1.83542 -3.0036,-4.30504 -3.0036,-7.01111 v -1.0803 l -0.4521,0.12433 c -1.5596,0.42894 -2.4048,1.42908 -2.6339,3.117 -0.059,0.43739 0,0.76684 0.3086,1.62741 0.5407,1.52285 0.6102,2.16126 0.4067,3.73078 -0.095,0.72915 -0.1359,1.54286 -0.092,1.80824 0.1691,1.01655 0.8855,2.00225 1.7796,2.44881 0.4738,0.23663 2.1745,0.5732 3.0954,0.61257 0.2368,0.0101 0.6712,-0.35631 1.989,-1.67801 z m 5.0097,-5.15808 c -0.2215,-0.0348 -0.2444,-0.14373 -0.2757,-1.31193 l -0.034,-1.27393 -1.1544,1.09301 -1.1545,1.09301 -0.6834,-0.68341 -0.6835,-0.68342 1.1123,-1.11687 1.1122,-1.11686 h -1.7757 -1.7758 v -1.02467 -1.02467 h 1.7758 1.7757 l -1.1396,-1.14435 -1.1396,-1.14434 0.6557,-0.6639 c 0.3606,-0.36514 0.7107,-0.66389 0.778,-0.66389 0.067,0 0.6252,0.50071 1.2398,1.1127 l 1.1173,1.1127 v -1.84087 -1.84088 l 0.9946,0.035 0.9945,0.035 0.06,1.73196 0.06,1.73197 1.1031,-1.03881 c 0.6067,-0.57134 1.1379,-1.0388 1.1806,-1.0388 0.043,0 0.3724,0.31192 0.7329,0.69316 l 0.6554,0.69315 -1.173,1.11796 -1.1729,1.11795 1.296,-0.033 1.2961,-0.033 -2e-4,0.29836 c -10e-5,0.26409 0.1043,0.19487 0.9087,-0.60275 1.0498,-1.04096 1.04,-0.95549 0.2858,-2.50233 -0.7132,-1.4626 -1.8628,-2.5932 -3.3746,-3.31871 -1.3261,-0.6364 -2.0433,-0.80615 -3.4062,-0.80615 -3.5703,0 -6.7064,2.5847 -7.3748,6.07826 -0.3419,1.78689 -0.1432,3.21265 0.6819,4.89173 0.8282,1.68533 2.4371,3.10515 4.2259,3.72927 l 0.6394,0.22308 0.9387,-0.92137 c 0.7678,-0.75355 0.8948,-0.92829 0.6972,-0.95937 z m 2.0676,-2.3395 -0.2678,-0.26789 v 0.53578 0.53577 l 0.2678,-0.26789 0.2679,-0.26788 z m 1.9623,-1.4198 c 0.2146,-0.23709 0.2106,-0.2411 -0.2411,-0.2411 -0.4516,0 -0.4556,0.004 -0.2411,0.2411 0.12,0.1326 0.2285,0.24109 0.2411,0.24109 0.013,0 0.1211,-0.10849 0.2411,-0.24109 z m 6.3289,-6.32885 1.0193,-1.02466 h -1.6047 c -0.8825,0 -1.5865,0.0434 -1.5644,0.0965 0.1605,0.38533 1.0171,1.95193 1.0675,1.95235 0.035,2.8e-4 0.5216,-0.46059 1.0823,-1.02416 z m -18.203,-0.40394 c 0,-0.25395 1.2926,-1.77246 2.0246,-2.37843 0.9107,-0.75389 2.6177,-1.64228 3.7015,-1.92644 1.6458,-0.43149 3.9227,-0.34991 5.4766,0.19625 0.7998,0.28112 0.7317,0.2799 0.7317,0.0131 0,-0.37159 0.5806,-1.95105 0.9786,-2.66236 1.2576,-2.24741 3.4734,-3.96652 6.0133,-4.66532 1.1938,-0.32847 3.6228,-0.30429 4.8571,0.0484 1.1466,0.32758 2.3122,0.9038 3.2977,1.63017 l 0.741,0.54619 0.9083,-0.83691 0.9082,-0.83691 -0.504,-1.05408 c -0.7288,-1.52392 -0.9728,-1.86889 -1.5524,-2.19463 -0.8415,-0.47298 -1.5369,-0.41361 -2.8094,0.23988 -1.0482,0.53831 -1.0657,0.54245 -2.2761,0.54045 l -1.2197,-0.002 -1.7293,-0.75141 c -1.9432,-0.84439 -2.5576,-0.93704 -3.3919,-0.51143 -0.5788,0.2953 -0.9143,0.73204 -1.5681,2.04126 -0.641,1.28337 -0.8945,1.62459 -1.5684,2.11061 -0.8548,0.61656 -1.4134,0.77182 -3.9512,1.09822 -1.3077,0.16819 -2.5437,0.35875 -2.7468,0.42347 -0.5915,0.18858 -1.2103,0.92696 -1.5387,1.83609 -0.3497,0.96807 -0.8047,1.65964 -1.3978,2.12429 -0.56,0.43867 -0.7765,0.54817 -1.8383,0.92952 -1.0503,0.37721 -1.4454,0.63757 -1.7737,1.1688 -0.3772,0.61031 -0.4362,1.28368 -0.1915,2.18761 0.1174,0.43354 0.2596,0.78826 0.3161,0.78826 0.056,0 0.1026,-0.0462 0.1026,-0.10257 z m 17.4249,-2.54951 c 0.9584,0 1.7425,-0.0397 1.7425,-0.0882 0,-0.0485 -0.4886,-0.57875 -1.0857,-1.17838 l -1.0857,-1.09024 0.7247,-0.71719 0.7248,-0.71719 1.1445,1.13976 1.1445,1.13976 v -1.77573 -1.77572 h 1.0247 1.0246 v 1.71627 1.71627 l 1.754,-1.74641 1.754,-1.7464 -0.4296,-0.3759 c -1.0882,-0.95199 -2.9976,-1.61317 -4.6589,-1.61317 -1.3066,0 -2.0384,0.17583 -3.3484,0.80449 -2.1817,1.04695 -3.7602,3.1652 -4.1626,5.58588 -0.066,0.39986 -0.033,0.45299 0.609,0.9644 0.3736,0.29767 0.8212,0.72734 0.9946,0.95483 l 0.3153,0.41361 0.036,-0.8054 0.036,-0.80539 z m -7.2385,-8.92142 c 1.5456,-0.19921 1.8954,-0.47915 2.7494,-2.19985 0.7999,-1.61192 1.4033,-2.30292 2.4658,-2.82375 0.6114,-0.29967 0.8248,-0.33898 1.837,-0.33826 1.142,8.1e-4 1.1501,0.003 2.8932,0.76593 2.2099,0.96734 2.5415,0.9906 3.9211,0.27504 0.5528,-0.28672 1.2428,-0.54053 1.6241,-0.59741 l 0.663,-0.0989 -6.0571,-3.0363 c -3.3314,-1.66996 -6.0988,-3.03629 -6.1498,-3.03629 -0.1021,0 -1.0527,1.87346 -3.8403,7.56916 l -1.8461,3.77186 0.3877,-0.0635 c 0.2132,-0.0349 0.8216,-0.11941 1.352,-0.18777 z m 21.4822,-1.59003 c 0.2187,-0.21191 0.3975,-0.43198 0.3975,-0.48905 0,-0.0864 -1.7033,-0.93389 -1.8769,-0.93389 -0.066,0 0.6481,1.44278 0.8208,1.65755 0.1709,0.21241 0.2128,0.19749 0.6586,-0.23461 z m 2.9291,-2.92981 0.8981,-0.90412 h -1.6403 -1.6402 l -0.3173,0.416 -0.3173,0.41601 0.9962,0.47765 c 0.5478,0.26271 1.0246,0.48237 1.0594,0.48812 0.035,0.006 0.4674,-0.39639 0.9614,-0.89366 z"
       id="path4"
       inkscape:export-filename="sandwich_Pink.svg"
       inkscape:export-xdpi="96"
       inkscape:export-ydpi="96" /></g></svg>
