<?xml version="1.0" encoding="UTF-8" standalone="no"?>
<!-- Created with Inkscape (http://www.inkscape.org/) -->

<svg
   width="72.485237mm"
   height="72.315643mm"
   viewBox="0 0 72.485237 72.315643"
   version="1.1"
   id="svg1"
   xml:space="preserve"
   inkscape:version="1.3.2 (091e20ef0f, 2023-11-25, custom)"
   sodipodi:docname="IconsWild.svg"
   xmlns:inkscape="http://www.inkscape.org/namespaces/inkscape"
   xmlns:sodipodi="http://sodipodi.sourceforge.net/DTD/sodipodi-0.dtd"
   xmlns="http://www.w3.org/2000/svg"
   xmlns:svg="http://www.w3.org/2000/svg"><sodipodi:namedview
     id="namedview1"
     pagecolor="#ffffff"
     bordercolor="#000000"
     borderopacity="0.25"
     inkscape:showpageshadow="2"
     inkscape:pageopacity="0.0"
     inkscape:pagecheckerboard="0"
     inkscape:deskcolor="#d1d1d1"
     inkscape:document-units="mm"
     inkscape:zoom="0.57521543"
     inkscape:cx="4933.8036"
     inkscape:cy="904.00912"
     inkscape:window-width="1920"
     inkscape:window-height="1036"
     inkscape:window-x="0"
     inkscape:window-y="20"
     inkscape:window-maximized="1"
     inkscape:current-layer="layer1"
     showguides="true" /><defs
     id="defs1" /><g
     inkscape:label="Layer 1"
     inkscape:groupmode="layer"
     id="layer1"
     transform="translate(-1419.9523,-162.95736)"><path
       style="fill:#f7146f;fill-opacity:1"
       d="m 1450.1149,234.8966 c -11.318,-2.05916 -20.8323,-9.0421 -26.1924,-19.22373 -2.6656,-5.06347 -3.9701,-10.52667 -3.9701,-16.62764 0,-4.47414 0.898,-9.81437 2.1113,-12.55574 2.979,-6.73097 4.863,-9.56095 9.1064,-13.67818 4.5286,-4.39411 9.8716,-7.3218 16.6887,-9.14456 2.4877,-0.66519 3.0074,-0.70938 8.3416,-0.70938 5.3341,0 5.8538,0.0442 8.3415,0.70938 6.5745,1.7579 11.6656,4.48281 16.194,8.66753 4.2906,3.96493 6.5944,7.36147 9.6012,14.15521 0.4706,1.06338 1.3061,4.29202 1.7035,6.58309 0.5367,3.09335 0.5278,8.89217 -0.018,12.08955 -2.5856,15.13562 -14.6127,27.07828 -29.966,29.75567 -2.7683,0.48276 -9.2344,0.47128 -11.9413,-0.0212 z m 11.6732,-4.21372 c 7.9575,-1.3956 15.1498,-5.85748 20.2046,-12.53428 2.9288,-3.8686 4.806,-8.20465 5.8499,-13.51221 0.6726,-3.41987 0.41,-10.10559 -0.5355,-13.63498 -2.8311,-10.56796 -10.5987,-18.87439 -20.9232,-22.37468 -3.3251,-1.12728 -6.2619,-1.58412 -10.1835,-1.58412 -3.9217,0 -6.8585,0.45684 -10.1836,1.58412 -10.3643,3.51378 -18.0859,11.80215 -20.9536,22.49159 -0.5497,2.04923 -0.6995,3.32754 -0.8088,6.90349 -0.1417,4.64043 0.098,6.63917 1.2829,10.69268 1.7599,6.02047 6.6029,12.63181 12.155,16.59315 3.4046,2.4291 8.6033,4.61535 12.7746,5.3722 2.6248,0.47624 8.6139,0.47784 11.3212,0.003 z m -0.6531,-5.88335 c 2.7222,-6.51527 4.8079,-10.37139 8.3438,-15.42652 1.1186,-1.59912 1.8846,-2.90748 1.7024,-2.90748 -0.1822,0 -1.4035,1.10133 -2.714,2.4474 -3.6495,3.74845 -5.7865,7.01796 -8.0418,12.30312 -0.7607,1.78263 -1.5052,3.24115 -1.6546,3.24115 -0.4171,0 -0.011,-6.86957 0.5714,-9.6573 0.6178,-2.95905 1.7563,-5.92061 3.2329,-8.4095 1.5155,-2.55467 5.5533,-6.59305 8.5108,-8.51198 2.3684,-1.53675 6.4478,-3.58372 7.142,-3.58372 0.886,0 0.7754,7.87641 -0.1677,11.94293 -1.6513,7.12061 -5.2825,12.23915 -11.6572,16.43233 -2.1009,1.38193 -5.1856,3.11015 -5.5514,3.11015 -0.069,0 0.058,-0.44126 0.2834,-0.98058 z m -9.8294,-0.0433 c -12.6951,-4.44518 -20.6077,-15.94244 -19.8717,-28.874 0.2472,-4.34231 1.3695,-9.26042 2.1133,-9.26042 0.4314,0 5.0261,2.37788 6.8537,3.54699 5.3214,3.40404 9.8215,8.28479 12.2205,13.25405 2.3199,4.80561 3.5621,11.67662 3.1688,17.52865 -0.1756,2.61348 -0.3876,3.22948 -0.774,2.24896 -0.1004,-0.25467 -0.9461,-2.46692 -1.8794,-4.91612 -2.999,-7.87001 -5.0283,-11.48733 -9.0421,-16.11731 -2.2492,-2.59453 -3.6069,-3.90355 -4.0486,-3.90355 -0.1313,0 0.7581,1.51804 1.9764,3.37343 3.7784,5.75411 5.3827,8.86435 8.1028,15.70929 0.8457,2.12806 2.0241,4.83673 2.6187,6.01927 0.5945,1.18255 0.9904,2.146 0.8796,2.141 -0.1107,-0.005 -1.1539,-0.3426 -2.318,-0.75024 z m -5.1128,-35.15786 c -0.9985,-2.00822 -2.4721,-6.18375 -2.3212,-6.57707 0.089,-0.23113 0.3946,-0.36895 0.7117,-0.32065 0.4339,0.0661 0.7629,0.62556 1.4964,2.54502 0.5171,1.35317 1.0245,2.36521 1.1275,2.24896 0.103,-0.11625 0.5203,-1.16386 0.9274,-2.32803 0.803,-2.29657 1.31,-2.96008 1.8925,-2.47666 0.5014,0.41612 0.4687,0.5823 -0.7138,3.62671 -1.8273,4.70443 -2.212,5.10902 -3.1205,3.28172 z m 12.1242,0.56378 c -1.1498,-0.72022 -1.6869,-1.70023 -1.8017,-3.28746 -0.1199,-1.65785 0.2407,-2.60831 1.401,-3.69246 0.6024,-0.56284 0.9603,-0.66146 2.4004,-0.66146 1.4593,0 1.785,0.0925 2.364,0.67151 0.5853,0.58527 0.626,0.73367 0.3175,1.15556 -0.3319,0.45399 -0.4053,0.45748 -1.1815,0.0561 -1.1633,-0.60156 -2.3137,-0.54284 -2.9602,0.1511 -0.7553,0.81075 -0.7615,3.16764 -0.01,3.91886 0.7852,0.78525 2.2493,0.71196 2.8079,-0.14055 0.4945,-0.7547 0.5154,-0.71469 -0.5589,-1.06706 -0.5263,-0.17262 -0.7938,-0.43649 -0.7938,-0.78313 0,-0.44521 0.2094,-0.53478 1.4105,-0.60352 1.8262,-0.1045 2.2668,0.24134 2.0483,1.60793 -0.3246,2.02952 -1.5947,3.10864 -3.6441,3.09596 -0.6257,-0.004 -1.4353,-0.19349 -1.7991,-0.42137 z m 6.116,0.0683 c -0.2282,-0.27496 -0.086,-0.9475 0.6025,-2.84427 1.842,-5.07646 1.9603,-5.254 3.1404,-4.71102 0.4427,0.20369 0.8811,1.06764 1.7365,3.42173 0.6293,1.73208 1.1056,3.42197 1.0583,3.75531 -0.1231,0.86782 -1.048,0.79217 -1.4859,-0.12154 -0.3214,-0.67054 -0.4696,-0.7276 -1.8897,-0.7276 -1.4627,0 -1.5576,0.0403 -1.8697,0.79375 -0.354,0.85445 -0.8149,1.00909 -1.2924,0.43364 z m 4.0849,-3.51328 c -0.096,-0.38411 -0.3328,-1.06872 -0.5253,-1.52135 l -0.3501,-0.82297 -0.3163,0.79375 c -0.1741,0.43656 -0.3822,1.12117 -0.4625,1.52136 -0.1386,0.68991 -0.095,0.7276 0.8416,0.7276 0.9355,0 0.9786,-0.037 0.8126,-0.69839 z m 3.8466,3.50605 c -0.2054,-0.24741 -0.2807,-1.52159 -0.2309,-3.90261 0.071,-3.37488 0.099,-3.5389 0.6358,-3.61541 0.4372,-0.0624 0.9655,0.45181 2.3813,2.31763 l 1.8195,2.39778 0.1322,-2.23942 c 0.1363,-2.30661 0.3993,-2.92749 1.1225,-2.64995 0.563,0.21603 0.6775,0.8495 0.7188,3.9753 0.037,2.81263 -0.2449,4.08402 -0.9057,4.08402 -0.2202,0 -1.203,-1.07156 -2.184,-2.38125 -0.981,-1.30969 -1.8753,-2.38125 -1.9874,-2.38125 -0.1121,0 -0.2037,0.92869 -0.2037,2.06375 0,2.39902 -0.4989,3.29479 -1.2984,2.33141 z m -21.0755,-0.24197 c -0.073,-0.18959 -0.099,-1.88623 -0.058,-3.77031 l 0.074,-3.42559 h 1.9843 c 1.808,0 1.9844,0.047 1.9844,0.52917 0,0.43117 -0.2205,0.55366 -1.1906,0.66146 -1.1171,0.12412 -1.1906,0.18128 -1.1906,0.92604 0,0.73486 0.078,0.80012 1.0549,0.8796 1.8868,0.15357 1.7288,1.36936 -0.178,1.36936 -1.017,0 -1.0407,0.0212 -0.9598,0.85989 0.079,0.81514 0.1446,0.86429 1.2691,0.94428 1.2192,0.0867 1.6453,0.39451 1.4068,1.0161 -0.1892,0.49302 -4.0083,0.50212 -4.1971,0.01 z"
       id="path10" /></g></svg>
