<?xml version="1.0" encoding="UTF-8" standalone="no"?>
<!-- Created with Inkscape (http://www.inkscape.org/) -->

<svg
   width="63.948032mm"
   height="117.08381mm"
   viewBox="0 0 63.948032 117.08381"
   version="1.1"
   id="svg1"
   xml:space="preserve"
   inkscape:version="1.3.2 (091e20ef0f, 2023-11-25, custom)"
   sodipodi:docname="IconsWild.svg"
   xmlns:inkscape="http://www.inkscape.org/namespaces/inkscape"
   xmlns:sodipodi="http://sodipodi.sourceforge.net/DTD/sodipodi-0.dtd"
   xmlns="http://www.w3.org/2000/svg"
   xmlns:svg="http://www.w3.org/2000/svg"><sodipodi:namedview
     id="namedview1"
     pagecolor="#ffffff"
     bordercolor="#000000"
     borderopacity="0.25"
     inkscape:showpageshadow="2"
     inkscape:pageopacity="0.0"
     inkscape:pagecheckerboard="0"
     inkscape:deskcolor="#d1d1d1"
     inkscape:document-units="mm"
     inkscape:zoom="0.16968249"
     inkscape:cx="4249.1125"
     inkscape:cy="813.28366"
     inkscape:window-width="1920"
     inkscape:window-height="1036"
     inkscape:window-x="0"
     inkscape:window-y="20"
     inkscape:window-maximized="1"
     inkscape:current-layer="layer1"
     showguides="true" /><defs
     id="defs1" /><g
     inkscape:label="Layer 1"
     inkscape:groupmode="layer"
     id="layer1"
     transform="translate(-1613.4808,-599.5919)"><path
       style="fill:#f7146f;fill-opacity:1"
       d="m 1626.4731,715.95752 c -2.32,-1.20967 -3.268,-3.63443 -2.3138,-5.91813 1.1068,-2.64893 2.05,-2.96616 8.8189,-2.96616 5.4631,0 6.1649,-0.0919 6.9878,-0.91479 0.8777,-0.87775 0.9148,-1.52465 0.9148,-15.97902 0,-8.47475 -0.1913,-15.56737 -0.4373,-16.21446 -0.3188,-0.83849 -0.9696,-1.28463 -2.4014,-1.64614 -12.1815,-3.07588 -21.396,-12.15736 -23.9407,-23.59518 -0.5714,-2.56831 -0.7201,-4.78788 -0.5606,-8.36431 0.2125,-4.76494 0.3408,-5.24207 6.0394,-22.47359 3.2023,-9.68291 6.0632,-17.75848 6.3575,-17.94572 0.2943,-0.18723 2.1051,-0.34358 4.024,-0.34743 2.6315,-0.005 3.6365,0.171 4.09,0.71742 1.1152,1.3437 -0.048,2.22462 -3.2706,2.47733 l -2.9164,0.2287 -4.4824,13.49313 c -6.5437,19.6985 -6.7434,20.44879 -6.7434,25.34045 0,7.97995 2.3228,13.59632 7.9848,19.30633 2.9695,2.99475 4.4283,4.06713 7.5666,5.56242 2.1383,1.01884 4.6082,1.99535 5.4887,2.17003 0.8805,0.17468 2.2789,0.63238 3.1076,1.01712 2.8096,1.30444 2.8385,1.50989 2.8385,20.11964 0,14.83264 -0.089,16.97171 -0.7458,17.9094 -1.2868,1.83715 -3.3166,2.34043 -9.4394,2.34043 -3.7773,0 -5.8219,0.18131 -6.1895,0.54887 -0.7233,0.72335 -0.6927,1.07147 0.1699,1.93413 0.6281,0.6281 2.9028,0.71876 18.0344,0.71876 15.1317,0 17.4063,-0.0907 18.0344,-0.71876 0.8627,-0.86266 0.8933,-1.21078 0.1699,-1.93413 -0.3675,-0.36756 -2.4122,-0.54887 -6.1895,-0.54887 -6.1227,0 -8.1525,-0.50328 -9.4393,-2.34043 -0.6568,-0.93769 -0.7459,-3.07676 -0.7459,-17.9094 0,-18.60975 0.029,-18.8152 2.8386,-20.11964 0.8286,-0.38474 2.227,-0.84244 3.1075,-1.01712 0.8805,-0.17468 3.3504,-1.15119 5.4888,-2.17003 3.1383,-1.49529 4.597,-2.56767 7.5666,-5.56242 6.0028,-6.05377 8.2295,-11.80591 7.887,-20.3737 -0.1891,-4.73014 -0.3088,-5.18212 -5.5814,-21.07132 -2.9635,-8.93062 -5.483,-16.39187 -5.5989,-16.58054 -0.1159,-0.18868 -5.2162,-0.34305 -11.3339,-0.34305 -9.1092,0 -11.2219,-0.11893 -11.6683,-0.65685 -0.4047,-0.48756 -0.415,-0.90016 -0.04,-1.60088 0.4909,-0.9172 0.846,-0.94383 12.4958,-0.93702 6.5948,0.004 12.2313,0.1602 12.5257,0.34743 0.2943,0.18724 3.1552,8.26281 6.3574,17.94572 5.6987,17.23152 5.8269,17.70865 6.0395,22.47359 0.1595,3.57643 0.011,5.796 -0.5607,8.36431 -2.5424,11.42786 -11.7403,20.49178 -23.9407,23.59202 -1.43,0.36338 -2.0829,0.81182 -2.4013,1.6493 -0.246,0.64709 -0.4373,7.73971 -0.4373,16.21446 0,14.45437 0.037,15.10127 0.9148,15.97902 0.8229,0.82293 1.5246,0.91479 6.9878,0.91479 6.7663,0 7.7122,0.31766 8.8166,2.96077 1.0224,2.44705 -0.2025,5.30373 -2.6384,6.15289 -0.9108,0.31749 -7.5829,0.49062 -18.8374,0.4888 -14.914,-0.002 -17.6249,-0.10597 -18.799,-0.71817 z m 11.892,-50.44615 c -8.4342,-2.42358 -15.4347,-9.47632 -17.7667,-17.89939 -1.0846,-3.91743 -1.3938,-7.23804 -0.7465,-8.01793 0.4787,-0.57686 4.1275,-0.67256 25.6427,-0.67256 29.0941,0 26.4663,-0.51819 25.6026,5.04868 -0.6091,3.92589 -2.003,7.74416 -3.9176,10.73142 -2.0965,3.27111 -3.1156,4.08782 -4.3058,3.45082 -1.2351,-0.66099 -1.2038,-1.47673 0.1178,-3.07268 2.4131,-2.91385 4.618,-7.95749 4.9643,-11.3556 l 0.1398,-1.37219 -22.1836,-0.11908 c -12.201,-0.0655 -22.4157,-0.0302 -22.6994,0.0785 -0.7963,0.30509 0.1331,4.59303 1.7186,7.92888 1.5746,3.31285 5.4269,7.66946 8.5294,9.64619 5.5089,3.50979 13.3892,4.3468 19.541,2.07555 4.384,-1.61854 5.5236,-1.79321 5.8666,-0.89925 0.4654,1.2127 -0.092,1.91796 -2.3448,2.96553 -5.2155,2.42549 -12.74,3.04006 -18.1584,1.48308 z m -6.3063,-12.2372 c -0.6174,-0.61747 -0.324,-1.97185 0.5257,-2.42662 1.1134,-0.59586 2.5122,0.3834 2.2816,1.5973 -0.1696,0.89303 -2.1566,1.48002 -2.8073,0.82932 z m -3.2034,-4.57564 c -0.584,-0.58394 -0.3398,-2.35492 0.3618,-2.62414 1.2224,-0.46907 2.1169,0.20411 1.9687,1.48167 -0.1366,1.17781 -1.5851,1.8879 -2.3305,1.14247 z"
       id="path17" /></g></svg>
